<?xml version="1.0" encoding="utf-8"?>
<!-- Generator: Adobe Illustrator 25.4.1, SVG Export Plug-In . SVG Version: 6.00 Build 0)  -->
<svg version="1.1" id="Layer_1" xmlns="http://www.w3.org/2000/svg" xmlns:xlink="http://www.w3.org/1999/xlink" x="0px" y="0px"
	 viewBox="0 0 257 171" style="enable-background:new 0 0 257 171;" xml:space="preserve">
<style type="text/css">
	.st0{clip-path:url(#SVGID_00000149347404329418496420000017238803028329189250_);}
	.st1{clip-path:url(#SVGID_00000152226115875541341970000014942355735813609912_);}
	.st2{fill:#C4C4C4;filter:url(#Adobe_OpacityMaskFilter);}
	.st3{mask:url(#mask0_2517_24476_00000008860336340437263010000003240122588608716201_);}
	.st4{fill-rule:evenodd;clip-rule:evenodd;fill:url(#SVGID_00000092450590283747687290000000752420788420842427_);}
	.st5{fill:#002F70;}
	.st6{fill:url(#SVGID_00000013152143883814101920000008129855044904318343_);}
	.st7{fill:#1F2937;}
</style>
<g>
	<defs>
		<rect id="SVGID_1_" x="-0.25" y="0.08" width="204" height="63"/>
	</defs>
	<clipPath id="SVGID_00000096054896343026187750000009765055381929297538_">
		<use xlink:href="#SVGID_1_"  style="overflow:visible;"/>
	</clipPath>
	<g style="clip-path:url(#SVGID_00000096054896343026187750000009765055381929297538_);">
		<g>
			<defs>
				<rect id="SVGID_00000122698846844903394430000012255517960179670718_" x="14.75" y="-53.89" width="186.51" height="186.51"/>
			</defs>
			<clipPath id="SVGID_00000080899581640539140030000003890147873154042789_">
				<use xlink:href="#SVGID_00000122698846844903394430000012255517960179670718_"  style="overflow:visible;"/>
			</clipPath>
			<g style="clip-path:url(#SVGID_00000080899581640539140030000003890147873154042789_);">
				<defs>
					<filter id="Adobe_OpacityMaskFilter" filterUnits="userSpaceOnUse" x="17.13" y="-0.13" width="182.65" height="64.67">
						<feColorMatrix  type="matrix" values="1 0 0 0 0  0 1 0 0 0  0 0 1 0 0  0 0 0 1 0"/>
					</filter>
				</defs>
				
					<mask maskUnits="userSpaceOnUse" x="17.13" y="-0.13" width="182.65" height="64.67" id="mask0_2517_24476_00000008860336340437263010000003240122588608716201_">
					<rect x="14.49" y="-8.93" class="st2" width="186.51" height="72.22"/>
				</mask>
				<g class="st3">
					
						<radialGradient id="SVGID_00000094596336798517707860000001979360178083234690_" cx="-4.6559" cy="169.0158" r="1" gradientTransform="matrix(-0.156 -47.5638 -134.3243 0.4405 22804.4941 -253.03)" gradientUnits="userSpaceOnUse">
						<stop  offset="0" style="stop-color:#FFD645"/>
						<stop  offset="1" style="stop-color:#FFC700"/>
					</radialGradient>
					<path style="fill-rule:evenodd;clip-rule:evenodd;fill:url(#SVGID_00000094596336798517707860000001979360178083234690_);" d="
						M109.09-0.13l-2.96,28.53l8.35-13.71l-5.72,15.18l18.46-19.63l-16.08,21.6c0.93-0.41,2.15-0.97,3.52-1.66
						c1.64-0.82,2.64-1.38,3.42-1.82c0.71-0.4,1.25-0.7,1.92-1c0.81-0.36,2.02-1.33,3.39-2.42v0v0l0,0c1.02-0.82,2.13-1.7,3.2-2.44
						c2.51-1.73,3.3-2.35,5.02-3.77c1.73-1.41,2.51-1.1,2.83-0.79c0.09,0.09,0.2,0.19,0.33,0.31c0.33,0.3,0.79,0.7,1.24,1.26
						c0.63,0.78,3.14,2.98,4.71,3.77c0.85,0.42,1.15,0.66,1.46,0.92c0.27,0.22,0.56,0.45,1.21,0.81c1.41,0.78,1.57,0.94,1.88,1.88
						c0.18,0.55,0.52,0.88,1.02,1.37c0.36,0.36,0.81,0.79,1.33,1.45c0.71,0.89,1.17,1.27,1.6,1.64c0.34,0.28,0.66,0.55,1.07,1.03
						c0.94,1.1,2.04,2.2,3.92,4.08l0,0v0v0l0,0c0.72,0.72,1.12,1.37,1.43,1.88c0.51,0.83,0.8,1.3,1.87,1.1
						c1.61-0.29,1.99,0.1,2.29,0.41l0.03,0.03c0.01,0.01,0.02,0.02,0.03,0.04c0.31,0.31,1.88,1.73,3.3,2.83
						c1.41,1.1,2.51,1.73,3.77,2.35c1.26,0.63,2.83,0.31,4.4-0.31c1.57-0.63,2.51-0.31,2.98,0.16c0.25,0.25,0.41,0.37,0.65,0.54
						c0.21,0.15,0.48,0.35,0.92,0.72c0.47,0.39,0.86,0.78,1.2,1.12c0.33,0.33,0.61,0.61,0.84,0.77c0.38,0.25,1.16,0.9,1.93,1.56v0
						c0.2,0.16,0.39,0.33,0.58,0.48c0.27,0.23,0.55,0.45,0.83,0.67c0.68,0.54,1.3,1.04,1.53,1.37c0.25,0.37,0.68,0.64,1.09,0.89v0
						l0,0l0,0c0.11,0.07,0.22,0.14,0.32,0.2c0.47,0.31,3.3,2.51,5.65,4.4c2.36,1.88,4.87,2.83,6.59,3.14c1.03,0.19,1.22,0.6,1.41,1
						c0.13,0.27,0.25,0.54,0.63,0.73c0.33,0.16,0.71,0.43,1.07,0.72c0.44,0.35,0.18,1.01-0.38,1.01h-0.76
						c-0.24,0-0.45-0.14-0.61-0.32c-0.25-0.28-0.57-0.43-0.72-0.46c-0.11-0.04-0.39-0.1-0.56-0.14c-0.04-0.01-0.09-0.01-0.14-0.01
						L17.76,64.54c-0.44,0-0.75-0.44-0.59-0.85l0.11-0.29c0.03-0.07,0.04-0.15,0.05-0.22c0.02-0.13,0.06-0.33,0.15-0.51
						c0.16-0.31,0.63-0.63,3.14-1.73c1.51-0.66,1.71-0.92,2.01-1.3c0.2-0.25,0.44-0.55,1.13-1.06c1.3-0.94,1.53-1,2.5-1.24h0
						c0.32-0.08,0.72-0.18,1.27-0.33c0.81-0.23,1.51-0.25,2.17-0.27c1.13-0.03,2.13-0.06,3.32-1.15c0.29-0.27,0.54-0.5,0.75-0.7
						c1.16-1.08,1.33-1.24,2.39-1.5c0.79-0.2,0.9-0.27,1.5-0.69c0.35-0.25,0.87-0.61,1.8-1.19c1.55-0.97,2.03-1.76,2.46-2.48
						c0.27-0.45,0.52-0.86,1-1.28c0.79-0.69,1.39-0.82,2.13-0.98h0c0.43-0.09,0.9-0.2,1.49-0.43c0.7-0.28,1.09-0.69,1.56-1.18
						c0.58-0.61,1.28-1.34,2.84-2.12c1.84-0.92,2.88-1.31,4.11-1.77l0,0l0,0c0.67-0.25,1.39-0.52,2.32-0.9
						c1.59-0.65,1.84-1.09,2.45-2.12c0.41-0.7,0.99-1.69,2.26-3.21c3.14-3.77,3.77-4.4,5.65-5.34c1.05-0.52,1.37-0.8,1.69-1.09
						c0.26-0.22,0.51-0.45,1.14-0.8c0.65-0.36,0.94-0.59,1.13-0.75c0.23-0.18,0.33-0.27,0.75-0.35c0.6-0.12,0.92,0.12,1.73,0.73l0,0
						l0,0c0.26,0.19,0.56,0.42,0.94,0.68c0.19,0.13,0.37,0.26,0.55,0.38c1.26,0.88,2.17,1.52,3.69,2.76
						c1.39,1.14,2.17,1.56,3.89,2.5c0.42,0.23,0.89,0.49,1.45,0.79c0.36,0.2,0.68,0.4,0.97,0.6l8.74,0.3l-11.9-7.8l12.75,5.22
						L68.19,3.48l29.06,27.01L85.3,2.85l14.73,25.99l-0.45-8.72l3.12,8.07L109.09-0.13z M88,37.51l4.87,0.72l-3.56,0.98
						c-0.08-0.08-0.16-0.17-0.24-0.26c-0.29-0.33-0.54-0.69-0.8-1.06C88.18,37.77,88.09,37.64,88,37.51z M91.22,41.37
						c0.03,0.08,0.04,0.17,0.04,0.26c0,0.39,0.2,0.76,0.42,1.04l1.86-1.57L91.22,41.37z"/>
				</g>
				<g>
					<path class="st5" d="M194.72,63.29H18.26c0.73-0.1,2.54-0.41,3.92-0.78c1.73-0.47,2.51-1.88,4.55-2.67
						c2.04-0.78,4.24,0,6.59-1.41c2.35-1.41,5.49-4.4,7.22-5.34c1.18-0.64,2.44-0.87,3.14-0.93c0.17-0.01,0.31-0.15,0.32-0.33
						c0.04-0.75,0.23-1.92,0.78-2.36c0.78-0.63,1.41-1.26,2.2-1.57c0.78-0.31,2.51-0.63,3.14-1.26c0.63-0.63,1.1-1.26,1.57-1.57
						s2.2-0.31,3.92-1.1c1.73-0.78,2.2-1.1,3.61-2.04c1.41-0.94,2.35-2.67,3.14-3.77c0.78-1.1,2.35-2.51,3.3-3.61
						c0.94-1.1,2.51-2.98,3.14-3.45c0.63-0.47,1.26-1.41,2.51-1.41c1.26,0,2.83,1.26,3.61,2.04c0.79,0.78,1.26,1.41,2.04,1.41
						c0.79,0,2.04,0.94,2.51,1.41c0.47,0.47,1.1,1.1,2.35,1.1c1.26,0,2.04,0.31,3.77,2.51c1.73,2.2,2.2,3.3,3.45,4.55
						c1.26,1.26,1.88,1.88,2.98,2.51c1.1,0.63,1.41,0.31,3.14-0.63c1.02-0.55,1.87-0.78,2.62-0.68c0.24,0.03,0.3,0.32,0.12,0.48
						l-10,8.82c-0.28,0.25,0.03,0.69,0.36,0.51l14.47-8.02c0.29-0.14,0.59-0.34,0.9-0.63c1.88-1.73,3.14-0.63,3.45-2.83
						c0.31-2.2,3.45-0.78,4.55-1.57c1.1-0.78,0.94-0.78,1.26-2.51c0.31-1.73,1.1-2.83,3.61-5.02c2.51-2.2,10.83-8.16,11.62-9.11
						c0.79-0.94,3.93-3.77,4.87-3.77s2.67,2.04,3.61,2.35c0.74,0.25,2.04,1.26,2.98,2.04c0.54,0.45,0.74,1.01,1.1,1.26
						c0.27,0.18,0.79,0.16,1.26,0.47c0.65,0.44,0.94,1.41,1.57,1.73c0.63,0.31,1.26,0.47,1.88,1.41c0.63,0.94,2.36,2.98,2.98,3.92
						c0.63,0.94,2.04,1.88,2.36,2.51c0.31,0.63,1.1,1.88,1.57,2.2c0.47,0.31,0.63,0.78,0.31,1.41c-0.31,0.63-1.41,1.26-1.88,1.73
						c-0.47,0.47-1.26,1.41-2.04,2.2c-0.58,0.58-2.47,3.16-3.65,4.7c-0.21,0.27,0.12,0.71,0.43,0.58c1.03-0.44,2.24-1.01,2.91-1.51
						c1.26-0.94,4.24-2.51,5.65-3.3c1.41-0.78,2.35-1.26,2.98-1.57c0.63-0.31,1.73-0.78,3.3,0.31c1.57,1.1,2.36,2.98,3.45,3.92
						c1.1,0.94,1.57,1.57,2.98,1.57c1.41,0,2.2-0.94,2.98-1.26c0.79-0.31,1.73-0.94,3.61,0.31c1.88,1.26,4.55,3.3,6.91,5.34
						c2.35,2.04,3.45,2.83,4.71,3.92c1.26,1.1,1.1,1.41,2.04,1.88s1.73,0.94,2.98,1.57c1.26,0.63,3.61,1.73,7.22,3.3H194.72z"/>
				</g>
				
					<radialGradient id="SVGID_00000031896164231498153520000003232146117165327512_" cx="28.0505" cy="197.2147" r="0.9997" gradientTransform="matrix(4.815128e-16 7.8637 10.1952 -6.242760e-16 -1908.2162 -180.368)" gradientUnits="userSpaceOnUse">
					<stop  offset="0" style="stop-color:#FFD542"/>
					<stop  offset="1" style="stop-color:#FFFFFF"/>
				</radialGradient>
				<path style="fill:url(#SVGID_00000031896164231498153520000003232146117165327512_);" d="M100.61,42.19l-19.54,3.59l19.47-4.18
					l-19.76-2.51l20.17,1.95c0.26-0.42,0.76-0.75,1.37-0.85c0.63-0.1,1.23,0.06,1.6,0.4l18.74-7.44l-17.76,7.68L124.04,38
					l-19.64,3.5l19.68,3.31l-19.73-2.72l17.72,9.08l-17.99-8.55l14.16,14.01l-14.57-13.58l9.23,17.65l-9.8-17.46l3.11,19.78
					l-3.68-19.59l-3.06,19.7l2.24-19.55L91.44,60.4l9.68-17.02L87.45,57.35l13.53-14.68l-17.71,9.22L100.61,42.19z"/>
			</g>
		</g>
	</g>
</g>
<path class="st7" d="M18.35,130.68v6.1h9.9c-1,2-2.2,3.4-3.8,4.4c-1.5,0.9-3.5,1.4-5.7,1.4c-3.5,0-6.4-1.1-8.8-3.4
	c-0.4-0.4-0.8-0.8-1.1-1.3l-0.6-0.9v-0.1c-0.2-0.3-0.3-0.6-0.5-0.9l-0.1-0.1c-0.1-0.3-0.3-0.5-0.4-0.8c0-0.1-0.1-0.2-0.1-0.2
	c-0.1-0.3-0.2-0.5-0.3-0.8c0-0.1-0.1-0.2-0.1-0.4c-0.1-0.2-0.1-0.5-0.2-0.7c0-0.2,0-0.4-0.1-0.6c0-0.2-0.1-0.3-0.1-0.5
	c0-0.4-0.1-0.8-0.1-1.2c0-3.2,1.1-5.9,3.4-8.1s5.1-3.3,8.5-3.3c3.9,0,7.3,1.5,10.2,4.6l4.6-4.5c-2.1-2.2-4.3-3.8-6.4-4.7
	c-2.6-1.1-5.4-1.6-8.4-1.6c-5.7,0-10.3,2-13.9,5.9c-3,3.3-4.5,7.2-4.5,11.7c0,3.3,0.8,6.3,2.4,9.2c0.3,0.5,0.6,0.9,0.9,1.3
	c0,0.1,0.1,0.2,0.2,0.3l0.9,1.2c1.3,1.5,2.9,2.8,4.6,3.8c2.8,1.5,6,2.3,9.5,2.3c3.3,0,6.2-0.7,8.7-2.1c2.5-1.4,4.5-3.4,6-6.1
	c1.6-2.7,2.3-5.5,2.3-8.4v-1.5H18.35z M51.55,122.28c-3.8,0-6.9,1.3-9.4,3.8c-2.5,2.5-3.8,5.7-3.8,9.5c0,3.7,1.3,6.8,3.8,9.3
	s5.8,3.7,9.7,3.7c2.6,0,4.8-0.5,6.6-1.3c1.9-0.9,3.5-2.3,4.8-4.2l-5.4-2.5c-1.7,1.7-3.8,2.5-6.1,2.5c-2,0-3.6-0.5-4.9-1.6
	c-1.3-1.1-2.1-2.5-2.4-4.3h20.6v-1.2c0-4.1-1.3-7.5-3.8-10C58.85,123.48,55.55,122.28,51.55,122.28z M44.85,132.28
	c0.7-1.5,1.5-2.6,2.3-3.2c1.4-1,2.9-1.5,4.7-1.5c1.6,0,3.1,0.4,4.3,1.3c1.2,0.9,2.1,2,2.5,3.4H44.85z M82.85,122.28
	c-1.2,0-2.4,0.2-3.6,0.7s-2.5,1.3-3.9,2.5v-2.6h-6.4v25.1h6.4v-10.1c0-2.6,0.1-4.3,0.3-5.1c0.4-1.5,1-2.7,1.9-3.5
	c0.9-0.9,2-1.3,3.3-1.3c1,0,1.8,0.3,2.5,0.8c0.7,0.5,1.1,1.3,1.4,2.2c0.3,1,0.4,3,0.4,6v11h6.4v-16.6c0-2.9-0.7-5.1-2.2-6.5
	C87.55,123.08,85.35,122.28,82.85,122.28z M108.35,122.28c-3.8,0-6.9,1.3-9.4,3.8c-2.5,2.5-3.7,5.7-3.7,9.5c0,3.7,1.3,6.8,3.8,9.3
	s5.7,3.7,9.7,3.7c2.6,0,4.8-0.5,6.6-1.3c1.9-0.9,3.5-2.3,4.8-4.2l-5.4-2.5c-1.7,1.7-3.8,2.5-6.1,2.5c-2,0-3.6-0.5-4.9-1.6
	c-1.3-1.1-2.1-2.5-2.4-4.3h20.5v-1.2c0-4.1-1.3-7.5-3.8-10C115.55,123.48,112.35,122.28,108.35,122.28z M101.65,132.28
	c0.7-1.5,1.5-2.6,2.3-3.2c1.3-1,2.9-1.5,4.7-1.5c1.6,0,3.1,0.4,4.3,1.3c1.2,0.9,2.1,2,2.5,3.4H101.65z M132.15,123.18
	c-1,0.6-1.7,1.6-2.3,2.8v-3.2h-5.6v25.2h6.4v-11.3c0-3.5,0.3-5.9,1-7c0.7-1.2,1.5-1.8,2.4-1.8c0.5,0,1.1,0.2,1.8,0.5l1.9-5.4
	c-0.9-0.4-1.7-0.6-2.5-0.6C134.15,122.28,133.15,122.58,132.15,123.18z M158.65,125.58c-1.1-1.1-2.4-2-3.7-2.5
	c-1.3-0.6-2.8-0.8-4.3-0.8c-3.3,0-6.2,1.2-8.5,3.7c-2.3,2.5-3.5,5.6-3.5,9.5c0,3.7,1.2,6.9,3.6,9.4s5.3,3.8,8.6,3.8
	c1.5,0,2.8-0.3,4.1-0.8s2.5-1.4,3.8-2.5v2.7h6.4v-25.1h-6.4v2.6H158.65z M156.95,140.78c-1.3,1.4-3,2.1-5,2.1s-3.6-0.7-4.9-2.1
	c-1.3-1.4-2-3.2-2-5.4s0.6-3.9,2-5.3c1.3-1.4,3-2.1,4.9-2.1c2,0,3.7,0.7,5,2c1.3,1.4,2,3.1,2,5.3
	C158.95,137.58,158.35,139.38,156.95,140.78z M169.45,147.98h6.4v-34.8h-6.4V147.98z M187.45,87.38c-1.1-1.1-2.3-1.9-3.7-2.5
	c-1.3-0.6-2.7-0.8-4.2-0.8c-3.3,0-6,1.2-8.3,3.6s-3.4,5.6-3.4,9.4c0,3.7,1.2,6.7,3.5,9.2c2.4,2.5,5.2,3.7,8.4,3.7
	c1.4,0,2.8-0.3,4-0.8s2.5-1.3,3.7-2.5v2.6h6.2v-24.7h-6.2V87.38z M185.75,102.28c-1.3,1.3-2.9,2-4.9,2c-1.9,0-3.5-0.7-4.8-2.1
	s-2-3.1-2-5.3c0-2.1,0.6-3.9,1.9-5.2c1.3-1.4,2.9-2,4.9-2s3.6,0.7,4.9,2c1.3,1.3,2,3.1,2,5.2
	C187.75,99.18,187.15,100.88,185.75,102.28z M218.45,87.38c-1.3-1.2-2.6-2-3.9-2.6c-1.3-0.5-2.6-0.8-4.1-0.8c-3.1,0-5.7,1.1-8,3.2
	c-2.5,2.4-3.7,5.5-3.7,9.4c0,3.7,1.2,6.7,3.5,9.1s5.1,3.6,8.5,3.6c1.5,0,2.9-0.2,4.1-0.7c1.2-0.5,2.4-1.3,3.5-2.4
	c0,2-0.2,3.5-0.6,4.3c-0.4,0.8-1.1,1.5-2.2,2c-1,0.5-2.4,0.8-4.1,0.8c-1.3,0-2.5-0.2-3.4-0.6c-1-0.4-1.8-0.9-2.4-1.6h-6.9
	c0.5,1.7,1.4,3.1,2.5,4.3c1.1,1.2,2.5,2.1,4.2,2.7s3.7,0.9,6.2,0.9c4.6,0,8-1.3,10.3-4c1.7-2,2.5-5,2.5-9.2v-21.1h-6.2v2.7H218.45z
	 M216.85,101.78c-1.3,1.3-2.9,1.9-4.8,1.9c-2,0-3.6-0.7-5-2c-1.3-1.3-2-3-2-5s0.6-3.6,1.9-4.9c1.3-1.3,2.9-2,4.9-2s3.6,0.6,4.9,1.9
	c1.3,1.3,1.9,2.9,1.9,5C218.75,98.78,218.15,100.48,216.85,101.78z M255.85,97.58c0-4.1-1.2-7.3-3.7-9.8s-5.6-3.7-9.6-3.7
	c-3.7,0-6.8,1.2-9.2,3.7c-2.5,2.5-3.7,5.6-3.7,9.4c0,3.7,1.2,6.7,3.7,9.2c2.5,2.4,5.6,3.7,9.5,3.7c2.5,0,4.7-0.5,6.5-1.3
	c1.8-0.9,3.4-2.3,4.7-4.1l-5.3-2.4c-1.7,1.6-3.7,2.4-6,2.4c-1.9,0-3.6-0.5-4.8-1.6c-1.3-1-2-2.4-2.3-4.2h20.1L255.85,97.58z
	 M235.95,93.98c0.7-1.5,1.5-2.6,2.3-3.2c1.3-1,2.9-1.5,4.6-1.5c1.6,0,3,0.4,4.2,1.3s2,2,2.4,3.4H235.95z M11.45,101.38h13.3l3.1,7.9
	h6.7l-12.9-33.3h-6.5l-13,33.4h6L11.45,101.38z M18.45,84.88l4.1,10.6h-8.5L18.45,84.88z M49.55,109.98c1.5,0,2.8-0.3,4-0.8
	s2.5-1.3,3.7-2.5v2.6h6.2v-34.2h-6.2v12.3c-0.4-0.4-0.8-0.8-1.3-1.1c-0.7-0.6-1.5-1-2.4-1.4c-1.3-0.6-2.7-0.8-4.2-0.8
	c-3.3,0-6,1.2-8.3,3.6s-3.4,5.5-3.4,9.4c0,3.7,1.2,6.7,3.5,9.2C43.55,108.78,46.35,109.98,49.55,109.98z M45.75,91.78
	c1.3-1.4,2.9-2,4.9-2s3.7,0.7,4.9,2c1.3,1.3,2,3.1,2,5.2c0,2.2-0.7,4-2,5.3c-1.3,1.4-2.9,2-4.9,2c-1.9,0-3.5-0.7-4.9-2.1
	c-1.3-1.4-2-3.1-2-5.3C43.85,94.88,44.55,93.08,45.75,91.78z M79.75,99.18l-6.3-14.6h-6.4l10.6,24.7h4l10.7-24.7h-6.3L79.75,99.18z
	 M106.75,109.98c1.4,0,2.8-0.3,4-0.8s2.5-1.3,3.7-2.5v2.6h6.2v-24.7h-6.2v2.7c-1.1-1.1-2.3-1.9-3.7-2.5c-1.3-0.6-2.7-0.8-4.2-0.8
	c-3.3,0-6,1.2-8.3,3.6c-0.7,0.8-1.3,1.6-1.8,2.5c-1.1,2-1.6,4.2-1.6,6.8c0,3.7,1.2,6.7,3.5,9.2
	C100.65,108.78,103.45,109.98,106.75,109.98z M102.95,91.78c0.6-0.7,1.4-1.2,2.2-1.5c0.8-0.3,1.7-0.5,2.7-0.5s1.9,0.2,2.8,0.5
	c0.8,0.3,1.5,0.8,2.2,1.5c1.3,1.3,2,3.1,2,5.2c0,2.2-0.7,4-2,5.3c-1.3,1.4-2.9,2-4.9,2c-1.9,0-3.5-0.7-4.8-2.1c-1.3-1.4-2-3.1-2-5.3
	C101.05,94.88,101.65,93.08,102.95,91.78z M140.95,90.48c0.7,0.5,1.1,1.2,1.4,2.2c0.3,1,0.4,2.9,0.4,5.9v10.8h6.2v-16.3
	c0-1-0.1-2-0.3-2.8c-0.3-1.5-1-2.7-1.9-3.6c-1.7-1.7-3.8-2.6-6.3-2.6c-1.2,0-2.4,0.2-3.5,0.7c-1.1,0.5-2.4,1.3-3.9,2.5v-2.5h-6.2
	v24.7h6.2v-9.9c0-2.6,0.1-4.2,0.3-5c0.4-1.5,1-2.6,1.9-3.5c0.3-0.3,0.7-0.6,1.1-0.7c0.7-0.3,1.4-0.5,2.2-0.5s1.5,0.2,2.1,0.5
	C140.75,90.28,140.85,90.38,140.95,90.48z M161.95,75.58h-6.2v9.1h-3.2v5.3h3.2v19.4h6.2v-19.4h3.7v-5.3h-3.7V75.58z"/>
<path class="st7" d="M5.75,161.48h1.5v9h-1.5V161.48z M11.25,161.48h1.5l3.5,5.9v-5.9h1.6v8.9h-1.5l-3.5-5.9v5.9h-1.6V161.48z"/>
<path class="st7" d="M26.25,162.68l-1.2,1.1c-0.4-0.6-0.8-0.9-1.2-0.9c-0.2,0-0.4,0.1-0.5,0.2s-0.2,0.3-0.2,0.4c0,0.1,0,0.3,0.1,0.4
	c0.1,0.2,0.5,0.6,1.1,1.2c0.6,0.5,1,0.9,1.1,1c0.3,0.3,0.5,0.7,0.7,1c0.1,0.3,0.2,0.7,0.2,1c0,0.7-0.2,1.3-0.7,1.8s-1.1,0.7-1.8,0.7
	c-0.6,0-1.1-0.1-1.5-0.5c-0.4-0.3-0.8-0.8-1.1-1.5l1.3-0.9c0.4,0.8,0.8,1.2,1.4,1.2c0.3,0,0.5-0.1,0.7-0.2c0.2-0.2,0.3-0.4,0.3-0.6
	s-0.1-0.4-0.2-0.6c-0.1-0.2-0.4-0.5-0.9-0.9c-0.9-0.8-1.5-1.4-1.7-1.8c-0.3-0.4-0.4-0.9-0.4-1.3c0-0.6,0.2-1.2,0.6-1.6
	c0.4-0.4,1-0.7,1.6-0.7c0.4,0,0.8,0.1,1.2,0.3C25.35,161.78,25.75,162.08,26.25,162.68z"/>
<path class="st7" d="M30.05,161.48h1.5v5.8c0,0.5,0,0.9,0.1,1.1s0.2,0.4,0.4,0.5c0.2,0.1,0.4,0.2,0.7,0.2s0.5-0.1,0.7-0.2
	c0.2-0.1,0.3-0.3,0.4-0.5c0.1-0.2,0.1-0.6,0.1-1.2v-5.6h1.5v5.3c0,0.9,0,1.5-0.1,1.9c-0.1,0.4-0.3,0.7-0.5,1
	c-0.3,0.3-0.6,0.6-0.9,0.7c-0.3,0.1-0.7,0.2-1.2,0.2c-0.6,0-1.1-0.1-1.5-0.4s-0.7-0.7-0.9-1.1c-0.2-0.4-0.3-1.2-0.3-2.3V161.48z"/>
<path class="st7" d="M39.75,161.48h1.6c0.9,0,1.5,0.1,1.9,0.3s0.7,0.5,0.9,0.9c0.2,0.4,0.3,0.9,0.3,1.4c0,0.6-0.1,1.1-0.4,1.5
	s-0.7,0.7-1.2,0.9l1.9,4h-1.7l-1.8-3.8h-0.2v3.8h-1.5v-9H39.75z M41.25,164.98h0.5c0.5,0,0.9-0.1,1-0.2c0.2-0.1,0.3-0.4,0.3-0.7
	c0-0.2,0-0.4-0.1-0.5c-0.1-0.1-0.2-0.2-0.4-0.3c-0.2-0.1-0.5-0.1-0.9-0.1h-0.4V164.98z"/>
<path class="st7" d="M50.95,161.48h1.6l3.1,9h-1.6l-0.6-1.9h-3.3l-0.7,1.9h-1.6L50.95,161.48z M51.75,163.78l-1.1,3.1h2.2
	L51.75,163.78z M59.15,161.48h1.4l3.6,5.9v-5.9h1.5v8.9h-1.5l-3.5-5.9v5.9h-1.5V161.48z"/>
<path class="st7" d="M77.25,162.98l-1.1,1.1c-0.7-0.9-1.6-1.3-2.5-1.3c-0.8,0-1.4,0.3-2,0.9c-0.5,0.6-0.8,1.3-0.8,2.2
	c0,0.6,0.1,1.1,0.4,1.6c0.2,0.5,0.6,0.8,1,1.1s0.9,0.4,1.4,0.4c0.4,0,0.9-0.1,1.2-0.3c0.4-0.2,0.8-0.5,1.2-1l1.1,1.2
	c-0.6,0.6-1.2,1.1-1.7,1.4s-1.2,0.4-1.8,0.4c-1.3,0-2.3-0.4-3.1-1.3c-0.8-0.9-1.2-2-1.2-3.4c0-0.9,0.2-1.7,0.6-2.4
	c0.4-0.7,0.9-1.2,1.6-1.7c0.7-0.4,1.4-0.6,2.2-0.6c0.7,0,1.3,0.2,1.9,0.5C76.35,161.98,76.85,162.48,77.25,162.98z"/>
<path class="st7" d="M80.85,161.48h4.5v1.6h-2.9v1.6h2.9v1.7h-2.9v2.4h2.9v1.6h-4.5V161.48z"/>
<path class="st7" d="M102.05,162.98l-1.1,1.1c-0.7-0.9-1.6-1.3-2.5-1.3c-0.8,0-1.4,0.3-2,0.9c-0.5,0.6-0.8,1.3-0.8,2.2
	c0,0.6,0.1,1.1,0.4,1.6c0.2,0.5,0.6,0.8,1,1.1s0.9,0.4,1.4,0.4s0.9-0.1,1.2-0.3c0.4-0.2,0.8-0.5,1.2-1l1.1,1.2
	c-0.6,0.6-1.2,1.1-1.7,1.4s-1.1,0.4-1.8,0.4c-1.3,0-2.3-0.4-3.1-1.3c-0.8-0.9-1.2-2-1.2-3.4c0-0.9,0.2-1.7,0.6-2.4s0.9-1.2,1.6-1.7
	c0.7-0.4,1.4-0.6,2.2-0.6c0.7,0,1.3,0.2,1.9,0.5C101.05,161.98,101.55,162.48,102.05,162.98z"/>
<path class="st7" d="M109.45,161.18c1.2,0,2.1,0.5,3,1.4c0.8,0.9,1.2,2,1.2,3.4c0,1.3-0.4,2.4-1.2,3.3c-0.8,0.9-1.8,1.4-3,1.4
	c-1.2,0-2.2-0.5-3-1.4c-0.8-0.9-1.2-2-1.2-3.3c0-0.9,0.2-1.6,0.6-2.4c0.4-0.7,0.9-1.3,1.6-1.7
	C107.95,161.38,108.75,161.18,109.45,161.18z M109.45,162.88c-0.8,0-1.4,0.3-1.9,0.9c-0.5,0.6-0.8,1.3-0.8,2.2c0,1,0.3,1.8,1,2.4
	c0.5,0.4,1.1,0.7,1.7,0.7c0.7,0,1.4-0.3,1.9-0.9c0.5-0.6,0.8-1.3,0.8-2.2c0-0.9-0.3-1.6-0.8-2.2
	C110.85,163.18,110.15,162.88,109.45,162.88z"/>
<path class="st7" d="M118.25,161.48h1.5l1.9,6.2l1.9-6.2h1.5l1.3,8.9h-1.5l-0.8-5.6l-1.8,5.6h-1.3l-1.7-5.6l-0.9,5.6h-1.5
	L118.25,161.48z"/>
<path class="st7" d="M129.85,161.48h1.7c0.9,0,1.5,0.1,1.9,0.3c0.4,0.2,0.7,0.5,0.9,0.9c0.2,0.4,0.3,0.9,0.3,1.4
	c0,0.6-0.2,1.1-0.5,1.6c-0.3,0.4-0.7,0.7-1.2,0.9c-0.3,0.1-0.9,0.1-1.6,0.1v3.8h-1.5V161.48z M131.45,164.98h0.5
	c0.4,0,0.7,0,0.8-0.1c0.2-0.1,0.3-0.2,0.4-0.3c0.1-0.1,0.1-0.3,0.1-0.5c0-0.3-0.1-0.6-0.4-0.8c-0.2-0.1-0.5-0.2-1-0.2h-0.4V164.98z"
	/>
<path class="st7" d="M140.95,161.48h1.6l3.1,9h-1.6l-0.6-1.9h-3.3l-0.7,1.9h-1.6L140.95,161.48z M141.75,163.78l-1.1,3.1h2.2
	L141.75,163.78z M149.15,161.48h1.4l3.6,5.9v-5.9h1.5v8.9h-1.4l-3.6-5.9v5.9h-1.5V161.48z M159.25,161.48h1.6l1.5,3.1l1.5-3.1h1.7
	l-2.4,5v3.9h-1.5v-3.9L159.25,161.48z M174.55,161.48h0.8v8.1h3.2v0.8h-4V161.48z M182.25,161.08c0.2,0,0.3,0.1,0.5,0.2
	c0.1,0.1,0.2,0.3,0.2,0.5s-0.1,0.3-0.2,0.5c-0.1,0.1-0.3,0.2-0.5,0.2s-0.3-0.1-0.5-0.2c-0.1-0.1-0.2-0.3-0.2-0.5s0.1-0.4,0.2-0.5
	C181.95,161.08,182.05,161.08,182.25,161.08z M181.85,163.78h0.8v6.6h-0.8V163.78z M186.45,163.78h0.8v1.2c0.3-0.4,0.5-0.7,0.8-0.9
	c0.4-0.3,0.8-0.4,1.2-0.4c0.3,0,0.6,0.1,0.8,0.2c0.3,0.1,0.5,0.3,0.6,0.5c0.2,0.2,0.3,0.5,0.4,0.9c0.3-0.5,0.6-0.9,1-1.2
	c0.4-0.3,0.8-0.4,1.2-0.4s0.8,0.1,1.1,0.3c0.3,0.2,0.6,0.6,0.7,1c0.1,0.4,0.2,1,0.2,1.9v3.6h-0.8v-3.6c0-0.7,0-1.2-0.1-1.5
	c-0.1-0.3-0.3-0.5-0.5-0.7c-0.2-0.2-0.5-0.2-0.8-0.2c-0.4,0-0.7,0.1-1,0.4c-0.3,0.2-0.5,0.6-0.7,1c-0.2,0.4-0.2,1.1-0.2,2v2.6h-0.8
	v-3.4c0-0.8,0-1.3-0.1-1.6c-0.1-0.3-0.2-0.5-0.5-0.7c-0.2-0.2-0.5-0.3-0.8-0.3c-0.4,0-0.7,0.1-1,0.4c-0.3,0.2-0.5,0.5-0.7,1
	c-0.2,0.4-0.2,1-0.2,1.9v2.8h-0.8v-6.8H186.45z M199.75,161.08c0.2,0,0.3,0.1,0.5,0.2c0.1,0.1,0.2,0.3,0.2,0.5s-0.1,0.3-0.2,0.5
	c-0.1,0.1-0.3,0.2-0.5,0.2s-0.3-0.1-0.5-0.2c-0.1-0.1-0.2-0.3-0.2-0.5s0.1-0.4,0.2-0.5C199.35,161.08,199.55,161.08,199.75,161.08z
	 M199.35,163.78h0.8v6.6h-0.8V163.78z"/>
<path class="st7" d="M204.65,161.28h0.8v2.5h1.2v0.7h-1.2v5.9h-0.8v-5.9h-1.1v-0.7h1.1V161.28z M215.15,168.28l0.7,0.4
	c-0.2,0.5-0.5,0.8-0.7,1.1c-0.3,0.3-0.6,0.5-0.9,0.6c-0.3,0.2-0.8,0.2-1.2,0.2c-1,0-1.8-0.3-2.3-1.1c-0.6-0.7-0.8-1.5-0.8-2.4
	c0-0.8,0.2-1.6,0.7-2.3c0.6-0.8,1.4-1.2,2.4-1.2s1.9,0.4,2.5,1.3c0.4,0.6,0.7,1.4,0.7,2.3h-5.5c0,0.8,0.2,1.4,0.7,1.9
	c0.4,0.5,1,0.7,1.6,0.7c0.3,0,0.6-0.1,0.9-0.2s0.5-0.3,0.8-0.5C214.65,168.98,214.95,168.68,215.15,168.28z M215.15,166.38
	c-0.1-0.4-0.3-0.8-0.5-1.1c-0.2-0.3-0.5-0.5-0.8-0.7c-0.3-0.2-0.7-0.3-1-0.3c-0.6,0-1.1,0.2-1.5,0.6c-0.3,0.3-0.6,0.8-0.7,1.4h4.5
	V166.38z M225.65,161.18v9.2h-0.8v-1.1c-0.3,0.4-0.7,0.8-1.1,1s-0.9,0.3-1.3,0.3c-0.8,0-1.6-0.3-2.2-1s-0.9-1.5-0.9-2.5
	s0.3-1.8,0.9-2.4c0.6-0.7,1.3-1,2.2-1c0.5,0,0.9,0.1,1.3,0.3c0.4,0.2,0.7,0.6,1.1,1v-3.8H225.65z M222.55,164.38
	c-0.4,0-0.8,0.1-1.2,0.4c-0.4,0.2-0.6,0.6-0.9,1c-0.2,0.4-0.3,0.9-0.3,1.3s0.1,0.9,0.3,1.3c0.2,0.4,0.5,0.8,0.9,1
	c0.4,0.2,0.8,0.4,1.2,0.4c0.4,0,0.8-0.1,1.2-0.4c0.4-0.2,0.7-0.6,0.9-1c0.2-0.4,0.3-0.9,0.3-1.4c0-0.8-0.2-1.4-0.7-1.9
	C223.85,164.68,223.25,164.38,222.55,164.38z"/>
</svg>
