<svg width="257" height="171" viewBox="0 0 257 171" fill="none" xmlns="http://www.w3.org/2000/svg">
<g clip-path="url(#clip0_4869_99953)">
<g clip-path="url(#clip1_4869_99953)">
<mask id="mask0_4869_99953" style="mask-type:alpha" maskUnits="userSpaceOnUse" x="14" y="-10" width="188" height="74">
<rect x="14.7468" y="-9.00684" width="186.506" height="72.2163" fill="#C4C4C4"/>
</mask>
<g mask="url(#mask0_4869_99953)">
<path fill-rule="evenodd" clip-rule="evenodd" d="M109.338 -0.214844L106.378 28.3104L114.729 14.5958L109.012 29.7767L127.467 10.1466L111.388 31.7425C112.319 31.3319 113.535 30.7707 114.908 30.0846C116.547 29.2651 117.544 28.7023 118.324 28.2621C119.038 27.8591 119.57 27.5589 120.245 27.2587C121.053 26.8999 122.27 25.926 123.634 24.835L123.634 24.8349L123.634 24.8348L123.634 24.8348C124.657 24.0164 125.763 23.1321 126.839 22.392C129.351 20.6651 130.136 20.0371 131.863 18.6242C133.59 17.2113 134.375 17.5252 134.689 17.8392C134.777 17.9274 134.89 18.0279 135.02 18.1443C135.355 18.4424 135.807 18.8446 136.259 19.4091C136.887 20.1941 139.398 22.392 140.968 23.1769C141.813 23.5995 142.113 23.8401 142.429 24.0946C142.701 24.3129 142.985 24.5415 143.637 24.9039C145.05 25.6888 145.207 25.8458 145.521 26.7878C145.703 27.3337 146.043 27.6686 146.542 28.1594C146.903 28.5155 147.348 28.9535 147.876 29.6136C148.585 30.4993 149.043 30.8853 149.478 31.2508C149.813 31.5333 150.134 31.8035 150.545 32.2825C151.487 33.3812 152.585 34.4798 154.468 36.3629L154.469 36.3633L154.469 36.3634L154.469 36.3638L154.47 36.3643C155.187 37.082 155.586 37.7314 155.9 38.243C156.411 39.0741 156.697 39.5415 157.766 39.3471C159.38 39.0537 159.76 39.4459 160.059 39.7548L160.087 39.7827C160.098 39.7947 160.11 39.8065 160.121 39.8181C160.435 40.1321 162.005 41.545 163.418 42.644C164.831 43.7429 165.93 44.3709 167.186 44.9988C168.442 45.6268 170.012 45.3128 171.582 44.6848C173.152 44.0569 174.094 44.3709 174.565 44.8418C174.815 45.0918 174.976 45.2091 175.213 45.3814C175.423 45.5339 175.692 45.7294 176.135 46.0978C176.606 46.4903 176.998 46.8827 177.332 47.2164C177.665 47.55 177.94 47.8247 178.175 47.9817C178.552 48.2328 179.331 48.8857 180.109 49.5386L180.109 49.5389C180.304 49.7022 180.499 49.8655 180.687 50.0226C180.958 50.2478 181.241 50.473 181.515 50.6908C182.195 51.2321 182.818 51.7276 183.042 52.0635C183.288 52.4322 183.726 52.7048 184.131 52.9564L184.131 52.9565L184.132 52.9567L184.134 52.958C184.245 53.0272 184.354 53.0948 184.455 53.1624C184.926 53.4764 187.752 55.6743 190.107 57.5582C192.462 59.4421 194.974 60.384 196.7 60.698C197.731 60.8854 197.923 61.2963 198.11 61.6974C198.237 61.9684 198.361 62.235 198.741 62.4249C198.923 62.5156 199.12 62.6385 199.321 62.7786C199.964 63.2274 199.631 64.1518 198.847 64.1518C198.513 64.1518 198.189 63.9465 197.944 63.7205C197.716 63.5102 197.465 63.4009 197.328 63.3669C197.247 63.3384 197.072 63.295 196.917 63.2587C196.773 63.2252 196.626 63.2104 196.479 63.2114L18.2943 64.4575C17.7191 64.4615 17.3185 63.8877 17.5205 63.3492C17.555 63.2571 17.5711 63.1592 17.5847 63.0618C17.6029 62.9311 17.6448 62.7517 17.7297 62.5819C17.8867 62.2679 18.3576 61.954 20.8695 60.855C22.3749 60.1964 22.5834 59.9325 22.8805 59.5564C23.0791 59.305 23.3174 59.0034 24.0094 58.5001C25.3073 57.5561 25.541 57.4991 26.5103 57.2623L26.5104 57.2623C26.8307 57.184 27.2313 57.0862 27.7772 56.9302C28.5869 56.6989 29.29 56.6806 29.9494 56.6635C31.08 56.6341 32.082 56.608 33.2719 55.5173C33.5637 55.2498 33.8103 55.02 34.0234 54.8214C35.1859 53.738 35.3503 53.5848 36.4117 53.3194C37.2053 53.121 37.3094 53.048 37.9122 52.625C38.2634 52.3786 38.7839 52.0134 39.7085 51.4355C41.2619 50.4646 41.7346 49.6739 42.1662 48.9519C42.4325 48.5064 42.6831 48.087 43.1624 47.6677C43.9531 46.9758 44.5572 46.844 45.288 46.6845L45.2881 46.6845C45.718 46.5907 46.1918 46.4873 46.7732 46.2548C47.476 45.9736 47.8641 45.5667 48.3321 45.0761C48.9094 44.4709 49.6081 43.7384 51.169 42.9579C53.0053 42.0397 54.0461 41.6519 55.2823 41.1913L55.2824 41.1913L55.2829 41.1911C55.9488 40.943 56.6714 40.6737 57.6056 40.2891C59.1954 39.6345 59.4482 39.2027 60.0564 38.1642C60.4693 37.4593 61.0458 36.4748 62.3154 34.9513C65.4552 31.1835 66.0832 30.5556 67.9671 29.6136C69.0137 29.0903 69.3335 28.8093 69.6533 28.5282C69.9091 28.3034 70.165 28.0786 70.7929 27.7297C71.4472 27.3663 71.7311 27.1374 71.9254 26.9809C72.1507 26.7994 72.2553 26.7151 72.6769 26.6308C73.2727 26.5116 73.5971 26.7542 74.4054 27.3586L74.4056 27.3588L74.4057 27.3589C74.6623 27.5507 74.9676 27.779 75.3457 28.0437C75.5373 28.1778 75.7195 28.3049 75.8949 28.4272C77.1572 29.3076 78.0683 29.943 79.5845 31.1835C80.9737 32.3202 81.7533 32.7456 83.4762 33.6858C83.8951 33.9144 84.3696 34.1734 84.9222 34.4804C85.2806 34.6795 85.6011 34.8786 85.8899 35.0771L94.6292 35.3759L82.7244 27.5727L95.4767 32.7896L68.4381 3.39597L97.4981 30.4077L85.5502 2.768L100.284 28.7616L99.8365 20.0371L102.957 28.1056L109.338 -0.214844ZM88.2479 37.4288L93.1157 38.1533L89.5532 39.1361C89.4751 39.0524 89.3965 38.9659 89.318 38.8761C89.0274 38.544 88.7806 38.1899 88.5227 37.8196C88.4332 37.6912 88.3424 37.5609 88.2479 37.4288ZM91.4765 41.2874C91.5022 41.372 91.5159 41.4575 91.5159 41.545C91.5159 41.6356 91.5268 41.7251 91.5462 41.8126C91.619 42.1406 91.8314 42.3434 92.1058 42.4408L93.7979 41.015L91.4765 41.2874Z" fill="url(#paint0_radial_4869_99953)"/>
</g>
<g filter="url(#filter0_i_4869_99953)">
<path d="M194.974 63.2091H18.5146C19.2472 63.1045 21.0579 62.801 22.4394 62.4242C24.1663 61.9532 24.9513 60.5403 26.9922 59.7553C29.033 58.9704 31.2309 59.7553 33.5858 58.3424C35.9407 56.9295 39.0805 53.9466 40.8074 53.0047C41.6659 52.5364 42.5689 52.2864 43.2677 52.1642C43.8117 52.069 44.2575 51.6128 44.3417 51.0669C44.442 50.4171 44.6507 49.7103 45.0462 49.3939C45.8312 48.7659 46.4592 48.1379 47.2441 47.8239C48.0291 47.51 49.756 47.196 50.3839 46.568C51.0119 45.94 51.4829 45.3121 51.9539 44.9981C52.4248 44.6841 54.1518 44.6841 55.8787 43.8991C57.6056 43.1142 58.0766 42.8002 59.4895 41.8582C60.9024 40.9163 61.8444 39.1894 62.6293 38.0904C63.4143 36.9915 64.9842 35.5786 65.9262 34.4796C66.8681 33.3807 68.438 31.4968 69.066 31.0258C69.694 30.5548 70.3219 29.6129 71.5779 29.6129C72.8338 29.6129 74.4037 30.8688 75.1887 31.6538C75.9736 32.4387 76.4446 33.0667 77.2296 33.0667C78.0145 33.0667 79.2705 34.0086 79.7414 34.4796C80.2124 34.9506 80.8404 35.5786 82.0963 35.5786C83.3523 35.5786 84.1372 35.8926 85.8641 38.0904C87.591 40.2883 88.062 41.3873 89.3179 42.6432C90.5739 43.8991 91.2019 44.5271 92.3008 45.1551C93.3997 45.783 93.7137 45.4691 95.4406 44.5271C95.97 44.2384 96.4551 44.0381 96.905 43.9264C97.6453 43.7426 97.8769 44.5868 97.3049 45.0914L92.9102 48.9682C92.0133 49.7595 93.0103 51.1725 94.0565 50.5928L103.019 45.6261C103.306 45.4887 103.606 45.2844 103.918 44.9981C105.802 43.2712 107.058 44.3701 107.372 42.1722C107.686 39.9743 110.826 41.3873 111.925 40.6023C113.024 39.8174 112.867 39.8174 113.181 38.0904C113.495 36.3635 114.28 35.2646 116.792 33.0667C119.303 30.8688 127.624 24.9031 128.409 23.9612C129.194 23.0192 132.334 20.1934 133.276 20.1934C134.218 20.1934 135.945 22.2343 136.887 22.5482C137.631 22.7965 138.927 23.8042 139.869 24.5891C140.412 25.0416 140.604 25.5994 140.968 25.8451C141.236 26.0256 141.753 26.0021 142.224 26.316C142.877 26.7515 143.166 27.729 143.794 28.043C144.422 28.3569 145.05 28.5139 145.678 29.4559C146.306 30.3978 148.033 32.4387 148.661 33.3807C149.289 34.3226 150.702 35.2646 151.016 35.8926C151.33 36.5205 152.115 37.7765 152.586 38.0904C153.057 38.4044 153.214 38.8754 152.9 39.5034C152.586 40.1313 151.487 40.7593 151.016 41.2303C150.545 41.7013 149.76 42.6432 148.975 43.4282C148.66 43.7428 147.967 44.6378 147.209 45.6376C146.561 46.4921 147.648 47.9026 148.529 47.2909C148.575 47.259 148.619 47.2274 148.661 47.196C149.917 46.254 152.9 44.6841 154.313 43.8991C155.726 43.1142 156.667 42.6432 157.295 42.3292C157.923 42.0152 159.022 41.5443 160.592 42.6432C162.162 43.7421 162.947 45.6261 164.046 46.568C165.145 47.51 165.616 48.1379 167.029 48.1379C168.442 48.1379 169.227 47.196 170.012 46.882C170.797 46.568 171.739 45.94 173.623 47.196C175.507 48.4519 178.175 50.4928 180.53 52.5337C182.885 54.5746 183.984 55.3596 185.24 56.4585C186.496 57.5574 186.339 57.8714 187.281 58.3424C188.223 58.8134 189.008 59.2844 190.264 59.9123C191.52 60.5403 193.875 61.6392 197.485 63.2091H194.974Z" fill="#002F70"/>
</g>
<path d="M100.861 42.1094L81.3182 45.6986L100.792 41.5171L81.0319 39.0113L101.199 40.9585C101.454 40.5406 101.954 40.2107 102.566 40.1104C103.2 40.0067 103.798 40.1746 104.171 40.512L122.91 33.0674L105.146 40.747L124.294 37.9206L104.651 41.4244L124.327 44.7389L104.596 42.0194L122.319 51.1033L104.333 42.5533L118.49 56.5597L103.915 42.9799L113.146 60.633L103.342 43.1773L106.453 62.9545L102.769 43.3654L99.7106 63.0642L101.951 43.5123L91.695 60.3192L101.373 43.2948L87.6978 57.2696L101.228 42.589L83.5209 51.8131L100.861 42.1094Z" fill="url(#paint1_radial_4869_99953)"/>
</g>
</g>
<path d="M18.6 130.6V136.7H28.5C27.5 138.7 26.3 140.1 24.7 141.1C23.2 142 21.2 142.5 19 142.5C15.5 142.5 12.6 141.4 10.2 139.1C9.8 138.7 9.4 138.3 9.1 137.8L8.5 136.9V136.8C8.3 136.5 8.2 136.2 8 135.9L7.9 135.8C7.8 135.5 7.6 135.3 7.5 135C7.5 134.9 7.4 134.8 7.4 134.8C7.3 134.5 7.2 134.3 7.1 134C7.1 133.9 7 133.8 7 133.6C6.9 133.4 6.9 133.1 6.8 132.9C6.8 132.7 6.8 132.5 6.7 132.3C6.7 132.1 6.6 132 6.6 131.8C6.6 131.4 6.5 131 6.5 130.6C6.5 127.4 7.6 124.7 9.9 122.5C12.2 120.3 15 119.2 18.4 119.2C22.3 119.2 25.7 120.7 28.6 123.8L33.2 119.3C31.1 117.1 28.9 115.5 26.8 114.6C24.2 113.5 21.4 113 18.4 113C12.7 113 8.1 115 4.5 118.9C1.5 122.2 0 126.1 0 130.6C0 133.9 0.8 136.9 2.4 139.8C2.7 140.3 3 140.7 3.3 141.1C3.3 141.2 3.4 141.3 3.5 141.4L4.4 142.6C5.7 144.1 7.3 145.4 9 146.4C11.8 147.9 15 148.7 18.5 148.7C21.8 148.7 24.7 148 27.2 146.6C29.7 145.2 31.7 143.2 33.2 140.5C34.8 137.8 35.5 135 35.5 132.1V130.6H18.6V130.6ZM51.8 122.2C48 122.2 44.9 123.5 42.4 126C39.9 128.5 38.6 131.7 38.6 135.5C38.6 139.2 39.9 142.3 42.4 144.8C44.9 147.3 48.2 148.5 52.1 148.5C54.7 148.5 56.9 148 58.7 147.2C60.6 146.3 62.2 144.9 63.5 143L58.1 140.5C56.4 142.2 54.3 143 52 143C50 143 48.4 142.5 47.1 141.4C45.8 140.3 45 138.9 44.7 137.1H65.3V135.9C65.3 131.8 64 128.4 61.5 125.9C59.1 123.4 55.8 122.2 51.8 122.2V122.2ZM45.1 132.2C45.8 130.7 46.6 129.6 47.4 129C48.8 128 50.3 127.5 52.1 127.5C53.7 127.5 55.2 127.9 56.4 128.8C57.6 129.7 58.5 130.8 58.9 132.2H45.1V132.2ZM83.1 122.2C81.9 122.2 80.7 122.4 79.5 122.9C78.3 123.4 77 124.2 75.6 125.4V122.8H69.2V147.9H75.6V137.8C75.6 135.2 75.7 133.5 75.9 132.7C76.3 131.2 76.9 130 77.8 129.2C78.7 128.3 79.8 127.9 81.1 127.9C82.1 127.9 82.9 128.2 83.6 128.7C84.3 129.2 84.7 130 85 130.9C85.3 131.9 85.4 133.9 85.4 136.9V147.9H91.8V131.3C91.8 128.4 91.1 126.2 89.6 124.8C87.8 123 85.6 122.2 83.1 122.2V122.2ZM108.6 122.2C104.8 122.2 101.7 123.5 99.2 126C96.7 128.5 95.5 131.7 95.5 135.5C95.5 139.2 96.8 142.3 99.3 144.8C101.8 147.3 105 148.5 109 148.5C111.6 148.5 113.8 148 115.6 147.2C117.5 146.3 119.1 144.9 120.4 143L115 140.5C113.3 142.2 111.2 143 108.9 143C106.9 143 105.3 142.5 104 141.4C102.7 140.3 101.9 138.9 101.6 137.1H122.1V135.9C122.1 131.8 120.8 128.4 118.3 125.9C115.8 123.4 112.6 122.2 108.6 122.2V122.2ZM101.9 132.2C102.6 130.7 103.4 129.6 104.2 129C105.5 128 107.1 127.5 108.9 127.5C110.5 127.5 112 127.9 113.2 128.8C114.4 129.7 115.3 130.8 115.7 132.2H101.9V132.2ZM132.4 123.1C131.4 123.7 130.7 124.7 130.1 125.9V122.7H124.5V147.9H130.9V136.6C130.9 133.1 131.2 130.7 131.9 129.6C132.6 128.4 133.4 127.8 134.3 127.8C134.8 127.8 135.4 128 136.1 128.3L138 122.9C137.1 122.5 136.3 122.3 135.5 122.3C134.4 122.2 133.4 122.5 132.4 123.1V123.1ZM158.9 125.5C157.8 124.4 156.5 123.5 155.2 123C153.9 122.4 152.4 122.2 150.9 122.2C147.6 122.2 144.7 123.4 142.4 125.9C140.1 128.4 138.9 131.5 138.9 135.4C138.9 139.1 140.1 142.3 142.5 144.8C144.9 147.3 147.8 148.6 151.1 148.6C152.6 148.6 153.9 148.3 155.2 147.8C156.5 147.3 157.7 146.4 159 145.3V148H165.4V122.9H159V125.5H158.9ZM157.2 140.7C155.9 142.1 154.2 142.8 152.2 142.8C150.2 142.8 148.6 142.1 147.3 140.7C146 139.3 145.3 137.5 145.3 135.3C145.3 133.1 145.9 131.4 147.3 130C148.6 128.6 150.3 127.9 152.2 127.9C154.2 127.9 155.9 128.6 157.2 129.9C158.5 131.3 159.2 133 159.2 135.2C159.2 137.5 158.6 139.3 157.2 140.7ZM169.7 147.9H176.1V113.1H169.7V147.9V147.9ZM187.7 87.3C186.6 86.2 185.4 85.4 184 84.8C182.7 84.2 181.3 84 179.8 84C176.5 84 173.8 85.2 171.5 87.6C169.2 90 168.1 93.2 168.1 97C168.1 100.7 169.3 103.7 171.6 106.2C174 108.7 176.8 109.9 180 109.9C181.4 109.9 182.8 109.6 184 109.1C185.2 108.6 186.5 107.8 187.7 106.6V109.2H193.9V84.5H187.7V87.3ZM186 102.2C184.7 103.5 183.1 104.2 181.1 104.2C179.2 104.2 177.6 103.5 176.3 102.1C175 100.7 174.3 99 174.3 96.8C174.3 94.7 174.9 92.9 176.2 91.6C177.5 90.2 179.1 89.6 181.1 89.6C183.1 89.6 184.7 90.3 186 91.6C187.3 92.9 188 94.7 188 96.8C188 99.1 187.4 100.8 186 102.2V102.2ZM218.7 87.3C217.4 86.1 216.1 85.3 214.8 84.7C213.5 84.2 212.2 83.9 210.7 83.9C207.6 83.9 205 85 202.7 87.1C200.2 89.5 199 92.6 199 96.5C199 100.2 200.2 103.2 202.5 105.6C204.8 108 207.6 109.2 211 109.2C212.5 109.2 213.9 109 215.1 108.5C216.3 108 217.5 107.2 218.6 106.1C218.6 108.1 218.4 109.6 218 110.4C217.6 111.2 216.9 111.9 215.8 112.4C214.8 112.9 213.4 113.2 211.7 113.2C210.4 113.2 209.2 113 208.3 112.6C207.3 112.2 206.5 111.7 205.9 111H199C199.5 112.7 200.4 114.1 201.5 115.3C202.6 116.5 204 117.4 205.7 118C207.4 118.6 209.4 118.9 211.9 118.9C216.5 118.9 219.9 117.6 222.2 114.9C223.9 112.9 224.7 109.9 224.7 105.7V84.6H218.5V87.3H218.7V87.3ZM217.1 101.7C215.8 103 214.2 103.6 212.3 103.6C210.3 103.6 208.7 102.9 207.3 101.6C206 100.3 205.3 98.6 205.3 96.6C205.3 94.6 205.9 93 207.2 91.7C208.5 90.4 210.1 89.7 212.1 89.7C214.1 89.7 215.7 90.3 217 91.6C218.3 92.9 218.9 94.5 218.9 96.6C219 98.7 218.4 100.4 217.1 101.7ZM256.1 97.5C256.1 93.4 254.9 90.2 252.4 87.7C249.9 85.2 246.8 84 242.8 84C239.1 84 236 85.2 233.6 87.7C231.1 90.2 229.9 93.3 229.9 97.1C229.9 100.8 231.1 103.8 233.6 106.3C236.1 108.7 239.2 110 243.1 110C245.6 110 247.8 109.5 249.6 108.7C251.4 107.8 253 106.4 254.3 104.6L249 102.2C247.3 103.8 245.3 104.6 243 104.6C241.1 104.6 239.4 104.1 238.2 103C236.9 102 236.2 100.6 235.9 98.8H256L256.1 97.5V97.5ZM236.2 93.9C236.9 92.4 237.7 91.3 238.5 90.7C239.8 89.7 241.4 89.2 243.1 89.2C244.7 89.2 246.1 89.6 247.3 90.5C248.5 91.4 249.3 92.5 249.7 93.9H236.2ZM11.7 101.3H25L28.1 109.2H34.8L21.9 75.9H15.4L2.4 109.3H8.4L11.7 101.3V101.3ZM18.7 84.8L22.8 95.4H14.3L18.7 84.8V84.8ZM49.8 109.9C51.3 109.9 52.6 109.6 53.8 109.1C55 108.6 56.3 107.8 57.5 106.6V109.2H63.7V75H57.5V87.3C57.1 86.9 56.7 86.5 56.2 86.2C55.5 85.6 54.7 85.2 53.8 84.8C52.5 84.2 51.1 84 49.6 84C46.3 84 43.6 85.2 41.3 87.6C39 90 37.9 93.1 37.9 97C37.9 100.7 39.1 103.7 41.4 106.2C43.8 108.7 46.6 109.9 49.8 109.9ZM46 91.7C47.3 90.3 48.9 89.7 50.9 89.7C52.9 89.7 54.6 90.4 55.8 91.7C57.1 93 57.8 94.8 57.8 96.9C57.8 99.1 57.1 100.9 55.8 102.2C54.5 103.6 52.9 104.2 50.9 104.2C49 104.2 47.4 103.5 46 102.1C44.7 100.7 44 99 44 96.8C44.1 94.8 44.8 93 46 91.7V91.7ZM80 99.1L73.7 84.5H67.3L77.9 109.2H81.9L92.6 84.5H86.3L80 99.1ZM107 109.9C108.4 109.9 109.8 109.6 111 109.1C112.2 108.6 113.5 107.8 114.7 106.6V109.2H120.9V84.5H114.7V87.2C113.6 86.1 112.4 85.3 111 84.7C109.7 84.1 108.3 83.9 106.8 83.9C103.5 83.9 100.8 85.1 98.5 87.5C97.8 88.3 97.2 89.1 96.7 90C95.6 92 95.1 94.2 95.1 96.8C95.1 100.5 96.3 103.5 98.6 106C100.9 108.7 103.7 109.9 107 109.9V109.9ZM103.2 91.7C103.8 91 104.6 90.5 105.4 90.2C106.2 89.9 107.1 89.7 108.1 89.7C109.1 89.7 110 89.9 110.9 90.2C111.7 90.5 112.4 91 113.1 91.7C114.4 93 115.1 94.8 115.1 96.9C115.1 99.1 114.4 100.9 113.1 102.2C111.8 103.6 110.2 104.2 108.2 104.2C106.3 104.2 104.7 103.5 103.4 102.1C102.1 100.7 101.4 99 101.4 96.8C101.3 94.8 101.9 93 103.2 91.7V91.7ZM141.2 90.4C141.9 90.9 142.3 91.6 142.6 92.6C142.9 93.6 143 95.5 143 98.5V109.3H149.2V93C149.2 92 149.1 91 148.9 90.2C148.6 88.7 147.9 87.5 147 86.6C145.3 84.9 143.2 84 140.7 84C139.5 84 138.3 84.2 137.2 84.7C136.1 85.2 134.8 86 133.3 87.2V84.7H127.1V109.4H133.3V99.5C133.3 96.9 133.4 95.3 133.6 94.5C134 93 134.6 91.9 135.5 91C135.8 90.7 136.2 90.4 136.6 90.3C137.3 90 138 89.8 138.8 89.8C139.6 89.8 140.3 90 140.9 90.3C141 90.2 141.1 90.3 141.2 90.4V90.4ZM162.2 75.5H156V84.6H152.8V89.9H156V109.3H162.2V89.9H165.9V84.6H162.2V75.5V75.5Z" fill="#1F2937"/>
<path d="M6 161.4H7.5V170.4H6V161.4ZM11.5 161.4H13L16.5 167.3V161.4H18.1V170.3H16.6L13.1 164.4V170.3H11.5V161.4Z" fill="#1F2937"/>
<path d="M26.5 162.6L25.3 163.7C24.9 163.1 24.5 162.8 24.1 162.8C23.9 162.8 23.7 162.9 23.6 163C23.5 163.1 23.4 163.3 23.4 163.4C23.4 163.5 23.4 163.7 23.5 163.8C23.6 164 24 164.4 24.6 165C25.2 165.5 25.6 165.9 25.7 166C26 166.3 26.2 166.7 26.4 167C26.5 167.3 26.6 167.7 26.6 168C26.6 168.7 26.4 169.3 25.9 169.8C25.4 170.3 24.8 170.5 24.1 170.5C23.5 170.5 23 170.4 22.6 170C22.2 169.7 21.8 169.2 21.5 168.5L22.8 167.6C23.2 168.4 23.6 168.8 24.2 168.8C24.5 168.8 24.7 168.7 24.9 168.6C25.1 168.4 25.2 168.2 25.2 168C25.2 167.8 25.1 167.6 25 167.4C24.9 167.2 24.6 166.9 24.1 166.5C23.2 165.7 22.6 165.1 22.4 164.7C22.1 164.3 22 163.8 22 163.4C22 162.8 22.2 162.2 22.6 161.8C23 161.4 23.6 161.1 24.2 161.1C24.6 161.1 25 161.2 25.4 161.4C25.6 161.7 26 162 26.5 162.6" fill="#1F2937"/>
<path d="M30.3 161.4H31.8V167.2C31.8 167.7 31.8 168.1 31.9 168.3C32 168.5 32.1 168.7 32.3 168.8C32.5 168.9 32.7 169 33 169C33.3 169 33.5 168.9 33.7 168.8C33.9 168.7 34 168.5 34.1 168.3C34.2 168.1 34.2 167.7 34.2 167.1V161.5H35.7V166.8C35.7 167.7 35.7 168.3 35.6 168.7C35.5 169.1 35.3 169.4 35.1 169.7C34.8 170 34.5 170.3 34.2 170.4C33.9 170.5 33.5 170.6 33 170.6C32.4 170.6 31.9 170.5 31.5 170.2C31.1 169.9 30.8 169.5 30.6 169.1C30.4 168.7 30.3 167.9 30.3 166.8V161.4V161.4Z" fill="#1F2937"/>
<path d="M40 161.4H41.6C42.5 161.4 43.1 161.5 43.5 161.7C43.9 161.9 44.2 162.2 44.4 162.6C44.6 163 44.7 163.5 44.7 164C44.7 164.6 44.6 165.1 44.3 165.5C44 165.9 43.6 166.2 43.1 166.4L45 170.4H43.3L41.5 166.6H41.3V170.4H39.8V161.4H40V161.4ZM41.5 164.9H42C42.5 164.9 42.9 164.8 43 164.7C43.2 164.6 43.3 164.3 43.3 164C43.3 163.8 43.3 163.6 43.2 163.5C43.1 163.4 43 163.3 42.8 163.2C42.6 163.1 42.3 163.1 41.9 163.1H41.5V164.9V164.9Z" fill="#1F2937"/>
<path d="M51.2001 161.4H52.8001L55.9001 170.4H54.3001L53.7001 168.5H50.4001L49.7001 170.4H48.1001L51.2001 161.4ZM52.0001 163.7L50.9001 166.8H53.1001L52.0001 163.7ZM59.4001 161.4H60.8001L64.4001 167.3V161.4H65.9001V170.3H64.4001L60.9001 164.4V170.3H59.4001V161.4Z" fill="#1F2937"/>
<path d="M77.5001 162.9L76.4001 164C75.7001 163.1 74.8001 162.7 73.9001 162.7C73.1001 162.7 72.5001 163 71.9001 163.6C71.4001 164.2 71.1001 164.9 71.1001 165.8C71.1001 166.4 71.2001 166.9 71.5001 167.4C71.7001 167.9 72.1001 168.2 72.5001 168.5C72.9001 168.8 73.4001 168.9 73.9001 168.9C74.3001 168.9 74.8001 168.8 75.1001 168.6C75.5001 168.4 75.9001 168.1 76.3001 167.6L77.4001 168.8C76.8001 169.4 76.2001 169.9 75.7001 170.2C75.2001 170.5 74.5001 170.6 73.9001 170.6C72.6001 170.6 71.6001 170.2 70.8001 169.3C70.0001 168.4 69.6001 167.3 69.6001 165.9C69.6001 165 69.8001 164.2 70.2001 163.5C70.6001 162.8 71.1001 162.3 71.8001 161.8C72.5001 161.4 73.2001 161.2 74.0001 161.2C74.7001 161.2 75.3001 161.4 75.9001 161.7C76.6001 161.9 77.1001 162.4 77.5001 162.9" fill="#1F2937"/>
<path d="M81.1001 161.4H85.6001V163H82.7001V164.6H85.6001V166.3H82.7001V168.7H85.6001V170.3H81.1001V161.4Z" fill="#1F2937"/>
<path d="M102.3 162.9L101.2 164C100.5 163.1 99.6001 162.7 98.7001 162.7C97.9001 162.7 97.3001 163 96.7001 163.6C96.2001 164.2 95.9001 164.9 95.9001 165.8C95.9001 166.4 96.0001 166.9 96.3001 167.4C96.5001 167.9 96.9001 168.2 97.3001 168.5C97.7001 168.8 98.2001 168.9 98.7001 168.9C99.2001 168.9 99.6001 168.8 99.9001 168.6C100.3 168.4 100.7 168.1 101.1 167.6L102.2 168.8C101.6 169.4 101 169.9 100.5 170.2C100 170.5 99.4001 170.6 98.7001 170.6C97.4001 170.6 96.4001 170.2 95.6001 169.3C94.8001 168.4 94.4001 167.3 94.4001 165.9C94.4001 165 94.6001 164.2 95.0001 163.5C95.4001 162.8 95.9001 162.3 96.6001 161.8C97.3001 161.4 98.0001 161.2 98.8001 161.2C99.5001 161.2 100.1 161.4 100.7 161.7C101.3 161.9 101.8 162.4 102.3 162.9" fill="#1F2937"/>
<path d="M109.7 161.1C110.9 161.1 111.8 161.6 112.7 162.5C113.5 163.4 113.9 164.5 113.9 165.9C113.9 167.2 113.5 168.3 112.7 169.2C111.9 170.1 110.9 170.6 109.7 170.6C108.5 170.6 107.5 170.1 106.7 169.2C105.9 168.3 105.5 167.2 105.5 165.9C105.5 165 105.7 164.3 106.1 163.5C106.5 162.8 107 162.2 107.7 161.8C108.2 161.3 109 161.1 109.7 161.1V161.1ZM109.7 162.8C108.9 162.8 108.3 163.1 107.8 163.7C107.3 164.3 107 165 107 165.9C107 166.9 107.3 167.7 108 168.3C108.5 168.7 109.1 169 109.7 169C110.4 169 111.1 168.7 111.6 168.1C112.1 167.5 112.4 166.8 112.4 165.9C112.4 165 112.1 164.3 111.6 163.7C111.1 163.1 110.4 162.8 109.7 162.8Z" fill="#1F2937"/>
<path d="M118.5 161.4H120L121.9 167.6L123.8 161.4H125.3L126.6 170.3H125.1L124.3 164.7L122.5 170.3H121.2L119.5 164.7L118.6 170.3H117.1L118.5 161.4Z" fill="#1F2937"/>
<path d="M130.1 161.4H131.8C132.7 161.4 133.3 161.5 133.7 161.7C134.1 161.9 134.4 162.2 134.6 162.6C134.8 163 134.9 163.5 134.9 164C134.9 164.6 134.7 165.1 134.4 165.6C134.1 166 133.7 166.3 133.2 166.5C132.9 166.6 132.3 166.6 131.6 166.6V170.4H130.1V161.4V161.4ZM131.7 164.9H132.2C132.6 164.9 132.9 164.9 133 164.8C133.2 164.7 133.3 164.6 133.4 164.5C133.5 164.4 133.5 164.2 133.5 164C133.5 163.7 133.4 163.4 133.1 163.2C132.9 163.1 132.6 163 132.1 163H131.7V164.9Z" fill="#1F2937"/>
<path d="M141.2 161.4H142.8L145.9 170.4H144.3L143.7 168.5H140.4L139.7 170.4H138.1L141.2 161.4ZM142 163.7L140.9 166.8H143.1L142 163.7ZM149.4 161.4H150.8L154.4 167.3V161.4H155.9V170.3H154.5L150.9 164.4V170.3H149.4V161.4ZM159.5 161.4H161.1L162.6 164.5L164.1 161.4H165.8L163.4 166.4V170.3H161.9V166.4L159.5 161.4ZM174.8 161.4H175.6V169.5H178.8V170.3H174.8V161.4ZM182.5 161C182.7 161 182.8 161.1 183 161.2C183.1 161.3 183.2 161.5 183.2 161.7C183.2 161.9 183.1 162 183 162.2C182.9 162.3 182.7 162.4 182.5 162.4C182.3 162.4 182.2 162.3 182 162.2C181.9 162.1 181.8 161.9 181.8 161.7C181.8 161.5 181.9 161.3 182 161.2C182.2 161 182.3 161 182.5 161ZM182.1 163.7H182.9V170.3H182.1V163.7ZM186.7 163.7H187.5V164.9C187.8 164.5 188 164.2 188.3 164C188.7 163.7 189.1 163.6 189.5 163.6C189.8 163.6 190.1 163.7 190.3 163.8C190.6 163.9 190.8 164.1 190.9 164.3C191.1 164.5 191.2 164.8 191.3 165.2C191.6 164.7 191.9 164.3 192.3 164C192.7 163.7 193.1 163.6 193.5 163.6C193.9 163.6 194.3 163.7 194.6 163.9C194.9 164.1 195.2 164.5 195.3 164.9C195.4 165.3 195.5 165.9 195.5 166.8V170.4H194.7V166.8C194.7 166.1 194.7 165.6 194.6 165.3C194.5 165 194.3 164.8 194.1 164.6C193.9 164.4 193.6 164.4 193.3 164.4C192.9 164.4 192.6 164.5 192.3 164.8C192 165 191.8 165.4 191.6 165.8C191.4 166.2 191.4 166.9 191.4 167.8V170.4H190.6V167C190.6 166.2 190.6 165.7 190.5 165.4C190.4 165.1 190.3 164.9 190 164.7C189.8 164.5 189.5 164.4 189.2 164.4C188.8 164.4 188.5 164.5 188.2 164.8C187.9 165 187.7 165.3 187.5 165.8C187.3 166.2 187.3 166.8 187.3 167.7V170.5H186.5V163.7H186.7V163.7ZM200 161C200.2 161 200.3 161.1 200.5 161.2C200.6 161.3 200.7 161.5 200.7 161.7C200.7 161.9 200.6 162 200.5 162.2C200.4 162.3 200.2 162.4 200 162.4C199.8 162.4 199.7 162.3 199.5 162.2C199.4 162.1 199.3 161.9 199.3 161.7C199.3 161.5 199.4 161.3 199.5 161.2C199.6 161 199.8 161 200 161ZM199.6 163.7H200.4V170.3H199.6V163.7Z" fill="#1F2937"/>
<path d="M204.9 161.2H205.7V163.7H206.9V164.4H205.7V170.3H204.9V164.4H203.8V163.7H204.9V161.2ZM215.4 168.2L216.1 168.6C215.9 169.1 215.6 169.4 215.4 169.7C215.1 170 214.8 170.2 214.5 170.3C214.2 170.5 213.7 170.5 213.3 170.5C212.3 170.5 211.5 170.2 211 169.4C210.4 168.7 210.2 167.9 210.2 167C210.2 166.2 210.4 165.4 210.9 164.7C211.5 163.9 212.3 163.5 213.3 163.5C214.3 163.5 215.2 163.9 215.8 164.8C216.2 165.4 216.5 166.2 216.5 167.1H211C211 167.9 211.2 168.5 211.7 169C212.1 169.5 212.7 169.7 213.3 169.7C213.6 169.7 213.9 169.6 214.2 169.5C214.5 169.4 214.7 169.2 215 169C214.9 168.9 215.2 168.6 215.4 168.2V168.2ZM215.4 166.3C215.3 165.9 215.1 165.5 214.9 165.2C214.7 164.9 214.4 164.7 214.1 164.5C213.8 164.3 213.4 164.2 213.1 164.2C212.5 164.2 212 164.4 211.6 164.8C211.3 165.1 211 165.6 210.9 166.2H215.4V166.3ZM225.9 161.1V170.3H225.1V169.2C224.8 169.6 224.4 170 224 170.2C223.6 170.4 223.1 170.5 222.7 170.5C221.9 170.5 221.1 170.2 220.5 169.5C219.9 168.8 219.6 168 219.6 167C219.6 166 219.9 165.2 220.5 164.6C221.1 163.9 221.8 163.6 222.7 163.6C223.2 163.6 223.6 163.7 224 163.9C224.4 164.1 224.7 164.5 225.1 164.9V161.1H225.9ZM222.8 164.3C222.4 164.3 222 164.4 221.6 164.7C221.2 164.9 221 165.3 220.7 165.7C220.5 166.1 220.4 166.6 220.4 167C220.4 167.4 220.5 167.9 220.7 168.3C220.9 168.7 221.2 169.1 221.6 169.3C222 169.5 222.4 169.7 222.8 169.7C223.2 169.7 223.6 169.6 224 169.3C224.4 169.1 224.7 168.7 224.9 168.3C225.1 167.9 225.2 167.4 225.2 166.9C225.2 166.1 225 165.5 224.5 165C224.1 164.6 223.5 164.3 222.8 164.3" fill="#1F2937"/>
<defs>
<filter id="filter0_i_4869_99953" x="18.5146" y="20.1934" width="178.971" height="44.8995" filterUnits="userSpaceOnUse" color-interpolation-filters="sRGB">
<feFlood flood-opacity="0" result="BackgroundImageFix"/>
<feBlend mode="normal" in="SourceGraphic" in2="BackgroundImageFix" result="shape"/>
<feColorMatrix in="SourceAlpha" type="matrix" values="0 0 0 0 0 0 0 0 0 0 0 0 0 0 0 0 0 0 127 0" result="hardAlpha"/>
<feOffset dy="1.8839"/>
<feGaussianBlur stdDeviation="1.56992"/>
<feComposite in2="hardAlpha" operator="arithmetic" k2="-1" k3="1"/>
<feColorMatrix type="matrix" values="0 0 0 0 1 0 0 0 0 0.831373 0 0 0 0 0.231373 0 0 0 0.2 0"/>
<feBlend mode="normal" in2="shape" result="effect1_innerShadow_4869_99953"/>
</filter>
<radialGradient id="paint0_radial_4869_99953" cx="0" cy="0" r="1" gradientUnits="userSpaceOnUse" gradientTransform="translate(102.418 42.7954) rotate(-90.1874) scale(47.5627 133.992)">
<stop stop-color="#FFD645"/>
<stop offset="1" stop-color="#FFC700"/>
</radialGradient>
<radialGradient id="paint1_radial_4869_99953" cx="0" cy="0" r="1" gradientUnits="userSpaceOnUse" gradientTransform="translate(102.663 40.132) rotate(90) scale(7.8637 10.1952)">
<stop stop-color="#FFD542"/>
<stop offset="1" stop-color="white"/>
</radialGradient>
<clipPath id="clip0_4869_99953">
<rect width="204" height="63" fill="white"/>
</clipPath>
<clipPath id="clip1_4869_99953">
<rect width="186.506" height="186.506" fill="white" transform="translate(15 -53.9678)"/>
</clipPath>
</defs>
</svg>
