<svg viewBox="0 0 257 171" fill="none" xmlns="http://www.w3.org/2000/svg">
<g clip-path="url(#clip0_2501_11790)">
<g clip-path="url(#clip1_2501_11790)">
<mask id="mask0_2501_11790" style="mask-type:alpha" maskUnits="userSpaceOnUse" x="14" y="-10" width="188" height="74">
<rect x="14.7468" y="-9.00735" width="186.506" height="72.2163" fill="#C4C4C4"/>
</mask>
<g mask="url(#mask0_2501_11790)">
<path fill-rule="evenodd" clip-rule="evenodd" d="M109.338 -0.21582L106.378 28.3094L114.729 14.5948L109.012 29.7757L127.467 10.1456L111.388 31.7416C112.319 31.3309 113.535 30.7698 114.908 30.0836C116.547 29.2641 117.544 28.7013 118.324 28.2612C119.038 27.8581 119.57 27.5579 120.245 27.2578C121.053 26.8989 122.27 25.9249 123.634 24.8338C124.657 24.0154 125.763 23.1311 126.839 22.391C129.351 20.6641 130.136 20.0361 131.863 18.6232C133.59 17.2103 134.375 17.5243 134.689 17.8383C134.777 17.9264 134.89 18.0269 135.021 18.1433C135.355 18.4415 135.807 18.8436 136.259 19.4082C136.887 20.1931 139.398 22.391 140.968 23.176C141.814 23.5985 142.113 23.8391 142.429 24.0936C142.701 24.3119 142.985 24.5405 143.637 24.9029C145.05 25.6879 145.207 25.8448 145.521 26.7868C145.703 27.3327 146.043 27.6677 146.542 28.1584C146.903 28.5145 147.348 28.9526 147.876 29.6127C148.585 30.4983 149.043 30.8843 149.478 31.2499C149.813 31.5323 150.134 31.8025 150.545 32.2815C151.487 33.3802 152.585 34.479 154.469 36.3621L154.469 36.3626L154.469 36.3628L154.47 36.3633C155.187 37.081 155.586 37.7304 155.9 38.242C156.411 39.0732 156.698 39.5405 157.767 39.3462C159.381 39.0527 159.76 39.4449 160.059 39.7538L160.083 39.7785C160.096 39.7916 160.109 39.8045 160.121 39.8171C160.435 40.1311 162.005 41.544 163.418 42.643C164.831 43.7419 165.93 44.3699 167.186 44.9979C168.442 45.6258 170.012 45.3118 171.582 44.6839C173.152 44.0559 174.094 44.3699 174.565 44.8409C174.815 45.0908 174.976 45.2081 175.213 45.3805L175.214 45.3805C175.423 45.533 175.693 45.7285 176.135 46.0968C176.606 46.4893 176.998 46.8818 177.332 47.2154C177.665 47.549 177.94 47.8237 178.175 47.9807C178.552 48.2319 179.331 48.8849 180.11 49.538C180.304 49.7013 180.499 49.8646 180.687 50.0216C180.958 50.2468 181.241 50.472 181.515 50.6898C182.195 51.2312 182.818 51.7267 183.042 52.0625C183.288 52.4313 183.726 52.7038 184.131 52.9554C184.243 53.0252 184.353 53.0933 184.455 53.1614C184.926 53.4754 187.752 55.6733 190.107 57.5572C192.462 59.4411 194.974 60.3831 196.701 60.6971C197.731 60.8844 197.923 61.2953 198.11 61.6964C198.237 61.9675 198.362 62.234 198.741 62.424C198.923 62.5147 199.12 62.6375 199.321 62.7776C199.964 63.2265 199.631 64.1509 198.847 64.1509C198.513 64.1509 198.189 63.9455 197.944 63.7195C197.716 63.5092 197.465 63.3999 197.329 63.3659C197.247 63.3375 197.072 63.294 196.917 63.2578C196.773 63.2243 196.626 63.2094 196.479 63.2105L18.2943 64.4565C17.7192 64.4605 17.3186 63.8868 17.5205 63.3482C17.5551 63.2561 17.5712 63.1583 17.5848 63.0608C17.603 62.9301 17.6448 62.7508 17.7297 62.581C17.8867 62.267 18.3577 61.953 20.8696 60.854C22.375 60.1954 22.5835 59.9315 22.8806 59.5554C23.0792 59.304 23.3175 59.0024 24.0094 58.4992C25.3074 57.5552 25.5411 57.4981 26.5104 57.2613L26.5105 57.2613C26.8308 57.1831 27.2314 57.0852 27.7772 56.9292C28.5869 56.6979 29.2901 56.6796 29.9495 56.6625C31.0801 56.6331 32.0821 56.607 33.2719 55.5163C33.5638 55.2488 33.8104 55.019 34.0235 54.8204C35.186 53.737 35.3504 53.5838 36.4118 53.3184C37.2054 53.12 37.3095 53.047 37.9123 52.624C38.2635 52.3776 38.7839 52.0124 39.7086 51.4345C41.262 50.4637 41.7347 49.6729 42.1662 48.9509C42.4325 48.5054 42.6832 48.0861 43.1624 47.6667C43.9532 46.9748 44.5573 46.843 45.2881 46.6835C45.718 46.5897 46.1918 46.4864 46.7732 46.2538C47.476 45.9727 47.8642 45.5657 48.3321 45.0752C48.9095 44.4699 49.6082 43.7374 51.169 42.957C53.0054 42.0388 54.0462 41.651 55.2823 41.1904L55.2825 41.1903L55.2829 41.1902C55.9488 40.9421 56.6714 40.6728 57.6057 40.2881C59.1954 39.6335 59.4483 39.2017 60.0565 38.1632C60.4693 37.4583 61.0459 36.4739 62.3154 34.9504C65.4553 31.1826 66.0833 30.5546 67.9672 29.6127C69.0138 29.0893 69.3336 28.8083 69.6534 28.5273C69.9092 28.3024 70.165 28.0776 70.793 27.7287C71.4472 27.3653 71.7312 27.1365 71.9255 26.9799C72.1508 26.7984 72.2554 26.7141 72.6769 26.6298C73.2727 26.5106 73.5972 26.7533 74.4055 27.3577C74.6621 27.5496 74.9675 27.7779 75.3458 28.0427C75.5373 28.1768 75.7196 28.3039 75.895 28.4263L75.895 28.4263L75.8951 28.4263C77.1573 29.3066 78.0684 29.9421 79.5846 31.1826C80.9738 32.3192 81.7534 32.7447 83.4763 33.6849C83.8951 33.9134 84.3697 34.1724 84.9223 34.4794C85.2807 34.6785 85.6012 34.8776 85.8899 35.0761L94.6292 35.3749L82.7244 27.5718L95.4768 32.7886L68.4381 3.39499L97.4981 30.4067L85.5503 2.76703L100.284 28.7606L99.8365 20.0361L102.957 28.1047L109.338 -0.21582ZM88.248 37.4278L93.1157 38.1523L89.5533 39.1351C89.4751 39.0515 89.3966 38.9649 89.3181 38.8752C89.0275 38.5431 88.7808 38.189 88.5229 37.8188L88.5227 37.8186C88.4333 37.6902 88.3425 37.5599 88.248 37.4278ZM91.4765 41.2864C91.5023 41.3711 91.5159 41.4566 91.5159 41.544C91.5159 41.6347 91.5268 41.7242 91.5463 41.8117C91.6191 42.1396 91.8314 42.3424 92.1059 42.4399L93.7979 41.0141L91.4765 41.2864Z" fill="url(#paint0_radial_2501_11790)"/>
</g>
<g filter="url(#filter0_i_2501_11790)">
<path d="M194.974 63.209H18.5146C19.2473 63.1043 21.0579 62.8008 22.4394 62.424C24.1664 61.953 24.9513 60.5401 26.9922 59.7551C29.0331 58.9702 31.231 59.7551 33.5859 58.3422C35.9408 56.9293 39.0806 53.9464 40.8075 53.0045C41.666 52.5362 42.569 52.2862 43.2678 52.164C43.8118 52.0688 44.2575 51.6126 44.3418 51.0668C44.442 50.4169 44.6507 49.7101 45.0463 49.3937C45.8312 48.7657 46.4592 48.1377 47.2442 47.8238C48.0291 47.5098 49.756 47.1958 50.384 46.5678C51.012 45.9399 51.483 45.3119 51.9539 44.9979C52.4249 44.6839 54.1518 44.6839 55.8787 43.899C57.6056 43.114 58.0766 42.8 59.4895 41.8581C60.9025 40.9161 61.8444 39.1892 62.6294 38.0903C63.4143 36.9913 64.9843 35.5784 65.9262 34.4794C66.8682 33.3805 68.4381 31.4966 69.066 31.0256C69.694 30.5546 70.322 29.6127 71.5779 29.6127C72.8339 29.6127 74.4038 30.8686 75.1887 31.6536C75.9737 32.4385 76.4447 33.0665 77.2296 33.0665C78.0146 33.0665 79.2705 34.0085 79.7415 34.4794C80.2125 34.9504 80.8404 35.5784 82.0964 35.5784C83.3523 35.5784 84.1373 35.8924 85.8642 38.0903C87.5911 40.2881 88.0621 41.3871 89.318 42.643C90.5739 43.899 91.2019 44.5269 92.3009 45.1549C93.3998 45.7829 93.7138 45.4689 95.4407 44.5269C95.97 44.2382 96.4551 44.038 96.905 43.9262C97.6454 43.7424 97.877 44.5866 97.3049 45.0912L92.9103 48.968C92.0134 49.7593 93.0104 51.1723 94.0565 50.5926L103.019 45.6259C103.307 45.4885 103.606 45.2842 103.918 44.9979C105.802 43.271 107.058 44.3699 107.372 42.172C107.686 39.9742 110.826 41.3871 111.925 40.6021C113.024 39.8172 112.867 39.8172 113.181 38.0903C113.495 36.3633 114.28 35.2644 116.792 33.0665C119.303 30.8686 127.624 24.9029 128.409 23.961C129.194 23.019 132.334 20.1932 133.276 20.1932C134.218 20.1932 135.945 22.2341 136.887 22.5481C137.631 22.7963 138.927 23.804 139.869 24.589C140.412 25.0414 140.604 25.5992 140.968 25.8449C141.236 26.0254 141.753 26.0019 142.224 26.3159C142.877 26.7513 143.166 27.7288 143.794 28.0428C144.422 28.3568 145.05 28.5137 145.678 29.4557C146.306 30.3977 148.033 32.4385 148.661 33.3805C149.289 34.3224 150.702 35.2644 151.016 35.8924C151.33 36.5203 152.115 37.7763 152.586 38.0903C153.057 38.4042 153.214 38.8752 152.9 39.5032C152.586 40.1312 151.487 40.7591 151.016 41.2301C150.545 41.7011 149.76 42.643 148.975 43.428C148.66 43.7427 147.967 44.6376 147.209 45.6374C146.561 46.4919 147.648 47.9024 148.529 47.2907C148.575 47.2588 148.619 47.2272 148.661 47.1958C149.917 46.2538 152.9 44.6839 154.313 43.899C155.726 43.114 156.668 42.643 157.296 42.329C157.923 42.0151 159.022 41.5441 160.592 42.643C162.162 43.742 162.947 45.6259 164.046 46.5678C165.145 47.5098 165.616 48.1377 167.029 48.1377C168.442 48.1377 169.227 47.1958 170.012 46.8818C170.797 46.5678 171.739 45.9399 173.623 47.1958C175.507 48.4517 178.175 50.4926 180.53 52.5335C182.885 54.5744 183.984 55.3594 185.24 56.4583C186.496 57.5573 186.339 57.8712 187.281 58.3422C188.223 58.8132 189.008 59.2842 190.264 59.9121C191.52 60.5401 193.875 61.639 197.485 63.209H194.974Z" fill="#002F70"/>
</g>
<path d="M100.861 42.1085L81.3184 45.6977L100.792 41.5162L81.032 39.0104L101.199 40.9577C101.454 40.5397 101.954 40.2098 102.566 40.1096C103.2 40.0058 103.798 40.1737 104.171 40.5112L122.911 33.0665L105.146 40.7461L124.294 37.9197L104.652 41.4235L124.327 44.738L104.596 42.0185L122.32 51.1024L104.334 42.5524L118.49 56.5588L103.915 42.9791L113.146 60.6322L103.342 43.1765L106.453 62.9537L102.769 43.3645L99.7107 63.0633L101.952 43.5115L91.6951 60.3184L101.373 43.294L87.6979 57.2687L101.228 42.5881L83.521 51.8122L100.861 42.1085Z" fill="url(#paint1_radial_2501_11790)"/>
</g>
</g>
<path d="M18.6 130.6V136.7H28.5C27.5 138.7 26.3 140.1 24.7 141.1C23.2 142 21.2 142.5 19 142.5C15.5 142.5 12.6 141.4 10.2 139.1C9.8 138.7 9.4 138.3 9.1 137.8L8.5 136.9V136.8C8.3 136.5 8.2 136.2 8 135.9L7.9 135.8C7.8 135.5 7.6 135.3 7.5 135C7.5 134.9 7.4 134.8 7.4 134.8C7.3 134.5 7.2 134.3 7.1 134C7.1 133.9 7 133.8 7 133.6C6.9 133.4 6.9 133.1 6.8 132.9C6.8 132.7 6.8 132.5 6.7 132.3C6.7 132.1 6.6 132 6.6 131.8C6.6 131.4 6.5 131 6.5 130.6C6.5 127.4 7.6 124.7 9.9 122.5C12.2 120.3 15 119.2 18.4 119.2C22.3 119.2 25.7 120.7 28.6 123.8L33.2 119.3C31.1 117.1 28.9 115.5 26.8 114.6C24.2 113.5 21.4 113 18.4 113C12.7 113 8.1 115 4.5 118.9C1.5 122.2 0 126.1 0 130.6C0 133.9 0.8 136.9 2.4 139.8C2.7 140.3 3 140.7 3.3 141.1C3.3 141.2 3.4 141.3 3.5 141.4L4.4 142.6C5.7 144.1 7.3 145.4 9 146.4C11.8 147.9 15 148.7 18.5 148.7C21.8 148.7 24.7 148 27.2 146.6C29.7 145.2 31.7 143.2 33.2 140.5C34.8 137.8 35.5 135 35.5 132.1V130.6H18.6ZM51.8 122.2C48 122.2 44.9 123.5 42.4 126C39.9 128.5 38.6 131.7 38.6 135.5C38.6 139.2 39.9 142.3 42.4 144.8C44.9 147.3 48.2 148.5 52.1 148.5C54.7 148.5 56.9 148 58.7 147.2C60.6 146.3 62.2 144.9 63.5 143L58.1 140.5C56.4 142.2 54.3 143 52 143C50 143 48.4 142.5 47.1 141.4C45.8 140.3 45 138.9 44.7 137.1H65.3V135.9C65.3 131.8 64 128.4 61.5 125.9C59.1 123.4 55.8 122.2 51.8 122.2ZM45.1 132.2C45.8 130.7 46.6 129.6 47.4 129C48.8 128 50.3 127.5 52.1 127.5C53.7 127.5 55.2 127.9 56.4 128.8C57.6 129.7 58.5 130.8 58.9 132.2H45.1ZM83.1 122.2C81.9 122.2 80.7 122.4 79.5 122.9C78.3 123.4 77 124.2 75.6 125.4V122.8H69.2V147.9H75.6V137.8C75.6 135.2 75.7 133.5 75.9 132.7C76.3 131.2 76.9 130 77.8 129.2C78.7 128.3 79.8 127.9 81.1 127.9C82.1 127.9 82.9 128.2 83.6 128.7C84.3 129.2 84.7 130 85 130.9C85.3 131.9 85.4 133.9 85.4 136.9V147.9H91.8V131.3C91.8 128.4 91.1 126.2 89.6 124.8C87.8 123 85.6 122.2 83.1 122.2ZM108.6 122.2C104.8 122.2 101.7 123.5 99.2 126C96.7 128.5 95.5 131.7 95.5 135.5C95.5 139.2 96.8 142.3 99.3 144.8C101.8 147.3 105 148.5 109 148.5C111.6 148.5 113.8 148 115.6 147.2C117.5 146.3 119.1 144.9 120.4 143L115 140.5C113.3 142.2 111.2 143 108.9 143C106.9 143 105.3 142.5 104 141.4C102.7 140.3 101.9 138.9 101.6 137.1H122.1V135.9C122.1 131.8 120.8 128.4 118.3 125.9C115.8 123.4 112.6 122.2 108.6 122.2ZM101.9 132.2C102.6 130.7 103.4 129.6 104.2 129C105.5 128 107.1 127.5 108.9 127.5C110.5 127.5 112 127.9 113.2 128.8C114.4 129.7 115.3 130.8 115.7 132.2H101.9ZM132.4 123.1C131.4 123.7 130.7 124.7 130.1 125.9V122.7H124.5V147.9H130.9V136.6C130.9 133.1 131.2 130.7 131.9 129.6C132.6 128.4 133.4 127.8 134.3 127.8C134.8 127.8 135.4 128 136.1 128.3L138 122.9C137.1 122.5 136.3 122.3 135.5 122.3C134.4 122.2 133.4 122.5 132.4 123.1ZM158.9 125.5C157.8 124.4 156.5 123.5 155.2 123C153.9 122.4 152.4 122.2 150.9 122.2C147.6 122.2 144.7 123.4 142.4 125.9C140.1 128.4 138.9 131.5 138.9 135.4C138.9 139.1 140.1 142.3 142.5 144.8C144.9 147.3 147.8 148.6 151.1 148.6C152.6 148.6 153.9 148.3 155.2 147.8C156.5 147.3 157.7 146.4 159 145.3V148H165.4V122.9H159V125.5H158.9ZM157.2 140.7C155.9 142.1 154.2 142.8 152.2 142.8C150.2 142.8 148.6 142.1 147.3 140.7C146 139.3 145.3 137.5 145.3 135.3C145.3 133.1 145.9 131.4 147.3 130C148.6 128.6 150.3 127.9 152.2 127.9C154.2 127.9 155.9 128.6 157.2 129.9C158.5 131.3 159.2 133 159.2 135.2C159.2 137.5 158.6 139.3 157.2 140.7ZM169.7 147.9H176.1V113.1H169.7V147.9ZM187.7 87.3C186.6 86.2 185.4 85.4 184 84.8C182.7 84.2 181.3 84 179.8 84C176.5 84 173.8 85.2 171.5 87.6C169.2 90 168.1 93.2 168.1 97C168.1 100.7 169.3 103.7 171.6 106.2C174 108.7 176.8 109.9 180 109.9C181.4 109.9 182.8 109.6 184 109.1C185.2 108.6 186.5 107.8 187.7 106.6V109.2H193.9V84.5H187.7V87.3ZM186 102.2C184.7 103.5 183.1 104.2 181.1 104.2C179.2 104.2 177.6 103.5 176.3 102.1C175 100.7 174.3 99 174.3 96.8C174.3 94.7 174.9 92.9 176.2 91.6C177.5 90.2 179.1 89.6 181.1 89.6C183.1 89.6 184.7 90.3 186 91.6C187.3 92.9 188 94.7 188 96.8C188 99.1 187.4 100.8 186 102.2ZM218.7 87.3C217.4 86.1 216.1 85.3 214.8 84.7C213.5 84.2 212.2 83.9 210.7 83.9C207.6 83.9 205 85 202.7 87.1C200.2 89.5 199 92.6 199 96.5C199 100.2 200.2 103.2 202.5 105.6C204.8 108 207.6 109.2 211 109.2C212.5 109.2 213.9 109 215.1 108.5C216.3 108 217.5 107.2 218.6 106.1C218.6 108.1 218.4 109.6 218 110.4C217.6 111.2 216.9 111.9 215.8 112.4C214.8 112.9 213.4 113.2 211.7 113.2C210.4 113.2 209.2 113 208.3 112.6C207.3 112.2 206.5 111.7 205.9 111H199C199.5 112.7 200.4 114.1 201.5 115.3C202.6 116.5 204 117.4 205.7 118C207.4 118.6 209.4 118.9 211.9 118.9C216.5 118.9 219.9 117.6 222.2 114.9C223.9 112.9 224.7 109.9 224.7 105.7V84.6H218.5V87.3H218.7ZM217.1 101.7C215.8 103 214.2 103.6 212.3 103.6C210.3 103.6 208.7 102.9 207.3 101.6C206 100.3 205.3 98.6 205.3 96.6C205.3 94.6 205.9 93 207.2 91.7C208.5 90.4 210.1 89.7 212.1 89.7C214.1 89.7 215.7 90.3 217 91.6C218.3 92.9 218.9 94.5 218.9 96.6C219 98.7 218.4 100.4 217.1 101.7ZM256.1 97.5C256.1 93.4 254.9 90.2 252.4 87.7C249.9 85.2 246.8 84 242.8 84C239.1 84 236 85.2 233.6 87.7C231.1 90.2 229.9 93.3 229.9 97.1C229.9 100.8 231.1 103.8 233.6 106.3C236.1 108.7 239.2 110 243.1 110C245.6 110 247.8 109.5 249.6 108.7C251.4 107.8 253 106.4 254.3 104.6L249 102.2C247.3 103.8 245.3 104.6 243 104.6C241.1 104.6 239.4 104.1 238.2 103C236.9 102 236.2 100.6 235.9 98.8H256L256.1 97.5ZM236.2 93.9C236.9 92.4 237.7 91.3 238.5 90.7C239.8 89.7 241.4 89.2 243.1 89.2C244.7 89.2 246.1 89.6 247.3 90.5C248.5 91.4 249.3 92.5 249.7 93.9H236.2ZM11.7 101.3H25L28.1 109.2H34.8L21.9 75.9H15.4L2.4 109.3H8.4L11.7 101.3ZM18.7 84.8L22.8 95.4H14.3L18.7 84.8ZM49.8 109.9C51.3 109.9 52.6 109.6 53.8 109.1C55 108.6 56.3 107.8 57.5 106.6V109.2H63.7V75H57.5V87.3C57.1 86.9 56.7 86.5 56.2 86.2C55.5 85.6 54.7 85.2 53.8 84.8C52.5 84.2 51.1 84 49.6 84C46.3 84 43.6 85.2 41.3 87.6C39 90 37.9 93.1 37.9 97C37.9 100.7 39.1 103.7 41.4 106.2C43.8 108.7 46.6 109.9 49.8 109.9ZM46 91.7C47.3 90.3 48.9 89.7 50.9 89.7C52.9 89.7 54.6 90.4 55.8 91.7C57.1 93 57.8 94.8 57.8 96.9C57.8 99.1 57.1 100.9 55.8 102.2C54.5 103.6 52.9 104.2 50.9 104.2C49 104.2 47.4 103.5 46 102.1C44.7 100.7 44 99 44 96.8C44.1 94.8 44.8 93 46 91.7ZM80 99.1L73.7 84.5H67.3L77.9 109.2H81.9L92.6 84.5H86.3L80 99.1ZM107 109.9C108.4 109.9 109.8 109.6 111 109.1C112.2 108.6 113.5 107.8 114.7 106.6V109.2H120.9V84.5H114.7V87.2C113.6 86.1 112.4 85.3 111 84.7C109.7 84.1 108.3 83.9 106.8 83.9C103.5 83.9 100.8 85.1 98.5 87.5C97.8 88.3 97.2 89.1 96.7 90C95.6 92 95.1 94.2 95.1 96.8C95.1 100.5 96.3 103.5 98.6 106C100.9 108.7 103.7 109.9 107 109.9ZM103.2 91.7C103.8 91 104.6 90.5 105.4 90.2C106.2 89.9 107.1 89.7 108.1 89.7C109.1 89.7 110 89.9 110.9 90.2C111.7 90.5 112.4 91 113.1 91.7C114.4 93 115.1 94.8 115.1 96.9C115.1 99.1 114.4 100.9 113.1 102.2C111.8 103.6 110.2 104.2 108.2 104.2C106.3 104.2 104.7 103.5 103.4 102.1C102.1 100.7 101.4 99 101.4 96.8C101.3 94.8 101.9 93 103.2 91.7ZM141.2 90.4C141.9 90.9 142.3 91.6 142.6 92.6C142.9 93.6 143 95.5 143 98.5V109.3H149.2V93C149.2 92 149.1 91 148.9 90.2C148.6 88.7 147.9 87.5 147 86.6C145.3 84.9 143.2 84 140.7 84C139.5 84 138.3 84.2 137.2 84.7C136.1 85.2 134.8 86 133.3 87.2V84.7H127.1V109.4H133.3V99.5C133.3 96.9 133.4 95.3 133.6 94.5C134 93 134.6 91.9 135.5 91C135.8 90.7 136.2 90.4 136.6 90.3C137.3 90 138 89.8 138.8 89.8C139.6 89.8 140.3 90 140.9 90.3C141 90.2 141.1 90.3 141.2 90.4ZM162.2 75.5H156V84.6H152.8V89.9H156V109.3H162.2V89.9H165.9V84.6H162.2V75.5Z" fill="white"/>
<path d="M6 161.1H7.5V170.1H6V161.1ZM11.5 161.1H13L16.5 167V161.1H18.1V170H16.6L13.1 164.1V170H11.5V161.1Z" fill="white"/>
<path d="M26.5 162.3L25.3 163.4C24.9 162.8 24.5 162.5 24.1 162.5C23.9 162.5 23.7 162.6 23.6 162.7C23.5 162.8 23.4 163 23.4 163.1C23.4 163.2 23.4 163.4 23.5 163.5C23.6 163.7 24 164.1 24.6 164.7C25.2 165.2 25.6 165.6 25.7 165.7C26 166 26.2 166.4 26.4 166.7C26.5 167 26.6 167.4 26.6 167.7C26.6 168.4 26.4 169 25.9 169.5C25.4 170 24.8 170.2 24.1 170.2C23.5 170.2 23 170.1 22.6 169.7C22.2 169.4 21.8 168.9 21.5 168.2L22.8 167.3C23.2 168.1 23.6 168.5 24.2 168.5C24.5 168.5 24.7 168.4 24.9 168.3C25.1 168.1 25.2 167.9 25.2 167.7C25.2 167.5 25.1 167.3 25 167.1C24.9 166.9 24.6 166.6 24.1 166.2C23.2 165.4 22.6 164.8 22.4 164.4C22.1 164 22 163.5 22 163.1C22 162.5 22.2 161.9 22.6 161.5C23 161.1 23.6 160.8 24.2 160.8C24.6 160.8 25 160.9 25.4 161.1C25.6 161.4 26 161.7 26.5 162.3Z" fill="white"/>
<path d="M30.3 161.1H31.8V166.9C31.8 167.4 31.8 167.8 31.9 168C32 168.2 32.1 168.4 32.3 168.5C32.5 168.6 32.7 168.7 33 168.7C33.3 168.7 33.5 168.6 33.7 168.5C33.9 168.4 34 168.2 34.1 168C34.2 167.8 34.2 167.4 34.2 166.8V161.2H35.7V166.5C35.7 167.4 35.7 168 35.6 168.4C35.5 168.8 35.3 169.1 35.1 169.4C34.8 169.7 34.5 170 34.2 170.1C33.9 170.2 33.5 170.3 33 170.3C32.4 170.3 31.9 170.2 31.5 169.9C31.1 169.6 30.8 169.2 30.6 168.8C30.4 168.4 30.3 167.6 30.3 166.5V161.1Z" fill="white"/>
<path d="M40 161.1H41.6C42.5 161.1 43.1 161.2 43.5 161.4C43.9 161.6 44.2 161.9 44.4 162.3C44.6 162.7 44.7 163.2 44.7 163.7C44.7 164.3 44.6 164.8 44.3 165.2C44 165.6 43.6 165.9 43.1 166.1L45 170.1H43.3L41.5 166.3H41.3V170.1H39.8V161.1H40ZM41.5 164.6H42C42.5 164.6 42.9 164.5 43 164.4C43.2 164.3 43.3 164 43.3 163.7C43.3 163.5 43.3 163.3 43.2 163.2C43.1 163.1 43 163 42.8 162.9C42.6 162.8 42.3 162.8 41.9 162.8H41.5V164.6Z" fill="white"/>
<path d="M51.2001 161.1H52.8001L55.9001 170.1H54.3001L53.7001 168.2H50.4001L49.7001 170.1H48.1001L51.2001 161.1ZM52.0001 163.4L50.9001 166.5H53.1001L52.0001 163.4ZM59.4001 161.1H60.8001L64.4001 167V161.1H65.9001V170H64.4001L60.9001 164.1V170H59.4001V161.1Z" fill="white"/>
<path d="M77.5001 162.6L76.4001 163.7C75.7001 162.8 74.8001 162.4 73.9001 162.4C73.1001 162.4 72.5001 162.7 71.9001 163.3C71.4001 163.9 71.1001 164.6 71.1001 165.5C71.1001 166.1 71.2001 166.6 71.5001 167.1C71.7001 167.6 72.1001 167.9 72.5001 168.2C72.9001 168.5 73.4001 168.6 73.9001 168.6C74.3001 168.6 74.8001 168.5 75.1001 168.3C75.5001 168.1 75.9001 167.8 76.3001 167.3L77.4001 168.5C76.8001 169.1 76.2001 169.6 75.7001 169.9C75.2001 170.2 74.5001 170.3 73.9001 170.3C72.6001 170.3 71.6001 169.9 70.8001 169C70.0001 168.1 69.6001 167 69.6001 165.6C69.6001 164.7 69.8001 163.9 70.2001 163.2C70.6001 162.5 71.1001 162 71.8001 161.5C72.5001 161.1 73.2001 160.9 74.0001 160.9C74.7001 160.9 75.3001 161.1 75.9001 161.4C76.6001 161.6 77.1001 162.1 77.5001 162.6Z" fill="white"/>
<path d="M81.1001 161.1H85.6001V162.7H82.7001V164.3H85.6001V166H82.7001V168.4H85.6001V170H81.1001V161.1Z" fill="white"/>
<path d="M102.3 162.6L101.2 163.7C100.5 162.8 99.6001 162.4 98.7001 162.4C97.9001 162.4 97.3001 162.7 96.7001 163.3C96.2001 163.9 95.9001 164.6 95.9001 165.5C95.9001 166.1 96.0001 166.6 96.3001 167.1C96.5001 167.6 96.9001 167.9 97.3001 168.2C97.7001 168.5 98.2001 168.6 98.7001 168.6C99.2001 168.6 99.6001 168.5 99.9001 168.3C100.3 168.1 100.7 167.8 101.1 167.3L102.2 168.5C101.6 169.1 101 169.6 100.5 169.9C100 170.2 99.4001 170.3 98.7001 170.3C97.4001 170.3 96.4001 169.9 95.6001 169C94.8001 168.1 94.4001 167 94.4001 165.6C94.4001 164.7 94.6001 163.9 95.0001 163.2C95.4001 162.5 95.9001 162 96.6001 161.5C97.3001 161.1 98.0001 160.9 98.8001 160.9C99.5001 160.9 100.1 161.1 100.7 161.4C101.3 161.6 101.8 162.1 102.3 162.6Z" fill="white"/>
<path d="M109.7 160.8C110.9 160.8 111.8 161.3 112.7 162.2C113.5 163.1 113.9 164.2 113.9 165.6C113.9 166.9 113.5 168 112.7 168.9C111.9 169.8 110.9 170.3 109.7 170.3C108.5 170.3 107.5 169.8 106.7 168.9C105.9 168 105.5 166.9 105.5 165.6C105.5 164.7 105.7 164 106.1 163.2C106.5 162.5 107 161.9 107.7 161.5C108.2 161 109 160.8 109.7 160.8ZM109.7 162.5C108.9 162.5 108.3 162.8 107.8 163.4C107.3 164 107 164.7 107 165.6C107 166.6 107.3 167.4 108 168C108.5 168.4 109.1 168.7 109.7 168.7C110.4 168.7 111.1 168.4 111.6 167.8C112.1 167.2 112.4 166.5 112.4 165.6C112.4 164.7 112.1 164 111.6 163.4C111.1 162.8 110.4 162.5 109.7 162.5Z" fill="white"/>
<path d="M118.5 161.1H120L121.9 167.3L123.8 161.1H125.3L126.6 170H125.1L124.3 164.4L122.5 170H121.2L119.5 164.4L118.6 170H117.1L118.5 161.1Z" fill="white"/>
<path d="M130.1 161.1H131.8C132.7 161.1 133.3 161.2 133.7 161.4C134.1 161.6 134.4 161.9 134.6 162.3C134.8 162.7 134.9 163.2 134.9 163.7C134.9 164.3 134.7 164.8 134.4 165.3C134.1 165.7 133.7 166 133.2 166.2C132.9 166.3 132.3 166.3 131.6 166.3V170.1H130.1V161.1ZM131.7 164.6H132.2C132.6 164.6 132.9 164.6 133 164.5C133.2 164.4 133.3 164.3 133.4 164.2C133.5 164.1 133.5 163.9 133.5 163.7C133.5 163.4 133.4 163.1 133.1 162.9C132.9 162.8 132.6 162.7 132.1 162.7H131.7V164.6Z" fill="white"/>
<path d="M141.2 161.1H142.8L145.9 170.1H144.3L143.7 168.2H140.4L139.7 170.1H138.1L141.2 161.1ZM142 163.4L140.9 166.5H143.1L142 163.4ZM149.4 161.1H150.8L154.4 167V161.1H155.9V170H154.5L150.9 164.1V170H149.4V161.1ZM159.5 161.1H161.1L162.6 164.2L164.1 161.1H165.8L163.4 166.1V170H161.9V166.1L159.5 161.1ZM174.8 161.1H175.6V169.2H178.8V170H174.8V161.1ZM182.5 160.7C182.7 160.7 182.8 160.8 183 160.9C183.1 161 183.2 161.2 183.2 161.4C183.2 161.6 183.1 161.7 183 161.9C182.9 162 182.7 162.1 182.5 162.1C182.3 162.1 182.2 162 182 161.9C181.9 161.8 181.8 161.6 181.8 161.4C181.8 161.2 181.9 161 182 160.9C182.2 160.7 182.3 160.7 182.5 160.7ZM182.1 163.4H182.9V170H182.1V163.4ZM186.7 163.4H187.5V164.6C187.8 164.2 188 163.9 188.3 163.7C188.7 163.4 189.1 163.3 189.5 163.3C189.8 163.3 190.1 163.4 190.3 163.5C190.6 163.6 190.8 163.8 190.9 164C191.1 164.2 191.2 164.5 191.3 164.9C191.6 164.4 191.9 164 192.3 163.7C192.7 163.4 193.1 163.3 193.5 163.3C193.9 163.3 194.3 163.4 194.6 163.6C194.9 163.8 195.2 164.2 195.3 164.6C195.4 165 195.5 165.6 195.5 166.5V170.1H194.7V166.5C194.7 165.8 194.7 165.3 194.6 165C194.5 164.7 194.3 164.5 194.1 164.3C193.9 164.1 193.6 164.1 193.3 164.1C192.9 164.1 192.6 164.2 192.3 164.5C192 164.7 191.8 165.1 191.6 165.5C191.4 165.9 191.4 166.6 191.4 167.5V170.1H190.6V166.7C190.6 165.9 190.6 165.4 190.5 165.1C190.4 164.8 190.3 164.6 190 164.4C189.8 164.2 189.5 164.1 189.2 164.1C188.8 164.1 188.5 164.2 188.2 164.5C187.9 164.7 187.7 165 187.5 165.5C187.3 165.9 187.3 166.5 187.3 167.4V170.2H186.5V163.4H186.7ZM200 160.7C200.2 160.7 200.3 160.8 200.5 160.9C200.6 161 200.7 161.2 200.7 161.4C200.7 161.6 200.6 161.7 200.5 161.9C200.4 162 200.2 162.1 200 162.1C199.8 162.1 199.7 162 199.5 161.9C199.4 161.8 199.3 161.6 199.3 161.4C199.3 161.2 199.4 161 199.5 160.9C199.6 160.7 199.8 160.7 200 160.7ZM199.6 163.4H200.4V170H199.6V163.4Z" fill="white"/>
<path d="M204.9 160.9H205.7V163.4H206.9V164.1H205.7V170H204.9V164.1H203.8V163.4H204.9V160.9ZM215.4 167.9L216.1 168.3C215.9 168.8 215.6 169.1 215.4 169.4C215.1 169.7 214.8 169.9 214.5 170C214.2 170.2 213.7 170.2 213.3 170.2C212.3 170.2 211.5 169.9 211 169.1C210.4 168.4 210.2 167.6 210.2 166.7C210.2 165.9 210.4 165.1 210.9 164.4C211.5 163.6 212.3 163.2 213.3 163.2C214.3 163.2 215.2 163.6 215.8 164.5C216.2 165.1 216.5 165.9 216.5 166.8H211C211 167.6 211.2 168.2 211.7 168.7C212.1 169.2 212.7 169.4 213.3 169.4C213.6 169.4 213.9 169.3 214.2 169.2C214.5 169.1 214.7 168.9 215 168.7C214.9 168.6 215.2 168.3 215.4 167.9ZM215.4 166C215.3 165.6 215.1 165.2 214.9 164.9C214.7 164.6 214.4 164.4 214.1 164.2C213.8 164 213.4 163.9 213.1 163.9C212.5 163.9 212 164.1 211.6 164.5C211.3 164.8 211 165.3 210.9 165.9H215.4V166ZM225.9 160.8V170H225.1V168.9C224.8 169.3 224.4 169.7 224 169.9C223.6 170.1 223.1 170.2 222.7 170.2C221.9 170.2 221.1 169.9 220.5 169.2C219.9 168.5 219.6 167.7 219.6 166.7C219.6 165.7 219.9 164.9 220.5 164.3C221.1 163.6 221.8 163.3 222.7 163.3C223.2 163.3 223.6 163.4 224 163.6C224.4 163.8 224.7 164.2 225.1 164.6V160.8H225.9ZM222.8 164C222.4 164 222 164.1 221.6 164.4C221.2 164.6 221 165 220.7 165.4C220.5 165.8 220.4 166.3 220.4 166.7C220.4 167.1 220.5 167.6 220.7 168C220.9 168.4 221.2 168.8 221.6 169C222 169.2 222.4 169.4 222.8 169.4C223.2 169.4 223.6 169.3 224 169C224.4 168.8 224.7 168.4 224.9 168C225.1 167.6 225.2 167.1 225.2 166.6C225.2 165.8 225 165.2 224.5 164.7C224.1 164.3 223.5 164 222.8 164Z" fill="white"/>
<defs>
<filter id="filter0_i_2501_11790" x="18.5146" y="20.1932" width="178.971" height="44.8997" filterUnits="userSpaceOnUse" color-interpolation-filters="sRGB">
<feFlood flood-opacity="0" result="BackgroundImageFix"/>
<feBlend mode="normal" in="SourceGraphic" in2="BackgroundImageFix" result="shape"/>
<feColorMatrix in="SourceAlpha" type="matrix" values="0 0 0 0 0 0 0 0 0 0 0 0 0 0 0 0 0 0 127 0" result="hardAlpha"/>
<feOffset dy="1.8839"/>
<feGaussianBlur stdDeviation="1.56992"/>
<feComposite in2="hardAlpha" operator="arithmetic" k2="-1" k3="1"/>
<feColorMatrix type="matrix" values="0 0 0 0 1 0 0 0 0 0.831373 0 0 0 0 0.231373 0 0 0 0.2 0"/>
<feBlend mode="normal" in2="shape" result="effect1_innerShadow_2501_11790"/>
</filter>
<radialGradient id="paint0_radial_2501_11790" cx="0" cy="0" r="1" gradientUnits="userSpaceOnUse" gradientTransform="translate(102.418 42.7944) rotate(-90.1874) scale(47.5627 133.992)">
<stop stop-color="#FFD645"/>
<stop offset="1" stop-color="#FFC700"/>
</radialGradient>
<radialGradient id="paint1_radial_2501_11790" cx="0" cy="0" r="1" gradientUnits="userSpaceOnUse" gradientTransform="translate(102.663 40.1311) rotate(90) scale(7.8637 10.1952)">
<stop stop-color="#FFD542"/>
<stop offset="1" stop-color="white"/>
</radialGradient>
<clipPath id="clip0_2501_11790">
<rect width="204" height="63" fill="white"/>
</clipPath>
<clipPath id="clip1_2501_11790">
<rect width="186.506" height="186.506" fill="white" transform="translate(15 -53.9678)"/>
</clipPath>
</defs>
</svg>
