<svg viewBox="0 0 93 69" fill="none" xmlns="http://www.w3.org/2000/svg">
<g clip-path="url(#clip0_2720_17990)">
<g clip-path="url(#clip1_2720_17990)">
<mask id="mask0_2720_17990" style="mask-type:alpha" maskUnits="userSpaceOnUse" x="6" y="-4" width="67" height="27">
<rect x="6.1084" y="-3.21869" width="66.6485" height="25.8066" fill="#C4C4C4"/>
</mask>
<g mask="url(#mask0_2720_17990)">
<path fill-rule="evenodd" clip-rule="evenodd" d="M39.911 -0.0764771L38.8536 10.1171L41.8376 5.2161L39.7948 10.641L46.3896 3.62617L40.6436 11.3435C40.9766 11.1968 41.4112 10.9962 41.9015 10.751C42.4872 10.4582 42.8436 10.2571 43.1223 10.0998C43.3775 9.95574 43.5676 9.84847 43.809 9.74121C44.0975 9.61297 44.5326 9.26491 45.02 8.87498L45.02 8.87495C45.3856 8.58251 45.7806 8.26653 46.1652 8.00206C47.0629 7.38495 47.3434 7.16054 47.9605 6.65563C48.5776 6.15072 48.8581 6.26292 48.9703 6.37512C49.0018 6.40659 49.0421 6.44247 49.0887 6.484L49.0888 6.48408L49.0889 6.48414C49.2085 6.59068 49.3699 6.73438 49.5313 6.93614C49.7557 7.21664 50.6533 8.00206 51.2144 8.28257C51.5164 8.43357 51.6233 8.51954 51.7364 8.6105C51.8334 8.6885 51.935 8.77018 52.1681 8.89968C52.673 9.18019 52.7291 9.23629 52.8413 9.5729C52.9063 9.76798 53.0279 9.88769 53.206 10.0631C53.3352 10.1903 53.4941 10.3468 53.6828 10.5827C53.936 10.8992 54.0999 11.0372 54.2551 11.1678C54.3751 11.2687 54.4898 11.3653 54.6365 11.5365C54.9732 11.9292 55.3659 12.3219 56.0391 12.9951C56.2956 13.2516 56.438 13.4836 56.5503 13.6664C56.7327 13.9635 56.8352 14.1305 57.2172 14.061C57.794 13.9561 57.9297 14.0963 58.0366 14.2067C58.0441 14.2144 58.0514 14.222 58.0587 14.2293C58.1709 14.3415 58.7319 14.8464 59.2369 15.2391C59.7418 15.6319 60.1345 15.8563 60.5833 16.0807C61.0321 16.3051 61.5931 16.1929 62.1541 15.9685C62.7151 15.7441 63.0518 15.8563 63.2201 16.0246C63.3094 16.1139 63.3671 16.1558 63.4519 16.2174L63.4519 16.2174C63.5269 16.2719 63.6231 16.3417 63.7811 16.4734C63.9494 16.6136 64.0896 16.7538 64.2088 16.8731L64.2088 16.8731L64.2089 16.8731L64.2089 16.8731L64.209 16.8733C64.3282 16.9924 64.4263 17.0905 64.5104 17.1466C64.645 17.2363 64.9232 17.4697 65.2015 17.7031L65.2016 17.7031C65.2711 17.7615 65.3407 17.8198 65.408 17.8759C65.5046 17.9564 65.6058 18.0369 65.7037 18.1147C65.9469 18.3082 66.1695 18.4852 66.2495 18.6052C66.3374 18.737 66.494 18.8344 66.6387 18.9243C66.6788 18.9492 66.7179 18.9736 66.7544 18.9979C66.9227 19.1101 67.9326 19.8956 68.7741 20.5688C69.6156 21.242 70.5132 21.5786 71.1303 21.6908C71.4986 21.7578 71.5672 21.9046 71.6341 22.0479C71.6794 22.1448 71.7239 22.24 71.8597 22.3079C71.9245 22.3403 71.9949 22.3842 72.0667 22.4343C72.2964 22.5947 72.1775 22.925 71.8973 22.925C71.7782 22.925 71.6622 22.8517 71.5746 22.7709C71.4931 22.6957 71.4034 22.6567 71.3548 22.6445C71.3256 22.6344 71.2632 22.6188 71.2077 22.6059C71.1564 22.5939 71.1038 22.5886 71.0511 22.589L7.37651 23.0343C7.17098 23.0357 7.02782 22.8307 7.09999 22.6382C7.11233 22.6053 7.1181 22.5703 7.12295 22.5355C7.12946 22.4888 7.14442 22.4247 7.17476 22.364C7.23086 22.2518 7.39916 22.1396 8.29678 21.7469C8.83474 21.5115 8.90924 21.4172 9.01541 21.2828C9.0864 21.193 9.17154 21.0852 9.41881 20.9054C9.88265 20.568 9.96616 20.5476 10.3125 20.463L10.3126 20.463C10.427 20.4351 10.5702 20.4001 10.7652 20.3444C11.0546 20.2617 11.3059 20.2552 11.5415 20.249C11.9455 20.2385 12.3036 20.2292 12.7288 19.8395C12.8331 19.7439 12.9212 19.6617 12.9973 19.5908L12.9973 19.5908C13.4128 19.2036 13.4715 19.1489 13.8508 19.054C14.1344 18.9831 14.1716 18.957 14.387 18.8059C14.5125 18.7178 14.6985 18.5873 15.029 18.3808C15.5841 18.0339 15.753 17.7513 15.9072 17.4933C16.0024 17.3341 16.0919 17.1842 16.2632 17.0344C16.5458 16.7871 16.7616 16.74 17.0228 16.683C17.1764 16.6495 17.3457 16.6126 17.5535 16.5295C17.8047 16.429 17.9434 16.2836 18.1106 16.1083C18.3169 15.892 18.5666 15.6302 19.1244 15.3513C19.7806 15.0232 20.1525 14.8846 20.5943 14.7201L20.5943 14.72C20.8323 14.6314 21.0906 14.5351 21.4245 14.3976C21.9926 14.1637 22.083 14.0094 22.3003 13.6383C22.4478 13.3864 22.6539 13.0346 23.1076 12.4902C24.2296 11.1437 24.454 10.9193 25.1272 10.5827C25.5012 10.3957 25.6155 10.2953 25.7298 10.1949C25.8212 10.1145 25.9126 10.0342 26.137 9.90951C26.3708 9.77963 26.4723 9.69786 26.5417 9.64192C26.6222 9.57705 26.6596 9.54693 26.8102 9.5168C27.0232 9.47422 27.1391 9.56092 27.4279 9.77691C27.5196 9.84548 27.6288 9.92708 27.764 10.0217L27.9602 10.1588C28.4113 10.4734 28.7369 10.7004 29.2787 11.1437C29.7751 11.5499 30.0538 11.702 30.6694 12.0379C30.8191 12.1196 30.9887 12.2122 31.1862 12.3219C31.3143 12.3931 31.4289 12.4642 31.5321 12.5352L34.6553 12.642L30.4007 9.8533L34.9578 11.7176L25.2955 1.21369L35.6801 10.8664L31.4106 0.989298L36.6757 10.2781L36.5158 7.1606L37.631 10.0439L39.911 -0.0764771ZM32.3747 13.3756L34.114 13.6345L32.8411 13.9856C32.8132 13.9557 32.7851 13.9248 32.757 13.8927C32.6531 13.774 32.565 13.6475 32.4728 13.5152L32.4728 13.5152C32.4408 13.4693 32.4084 13.4228 32.3747 13.3756ZM33.5284 14.7544C33.5375 14.7847 33.5424 14.8152 33.5424 14.8464C33.5424 14.8788 33.5463 14.9108 33.5533 14.9421C33.5793 15.0593 33.6552 15.1318 33.7534 15.1666L34.358 14.6571L33.5284 14.7544Z" fill="url(#paint0_radial_2720_17990)"/>
</g>
<g filter="url(#filter0_i_2720_17990)">
<path d="M70.513 22.5877H7.45508C7.71688 22.5503 8.36392 22.4418 8.85761 22.3072C9.47473 22.1389 9.75524 21.6339 10.4846 21.3534C11.2139 21.0729 11.9993 21.3534 12.8408 20.8485C13.6823 20.3436 14.8044 19.2777 15.4215 18.9411C15.7283 18.7737 16.0509 18.6844 16.3007 18.6407C16.4951 18.6067 16.6543 18.4437 16.6844 18.2486C16.7203 18.0164 16.7949 17.7638 16.9362 17.6507C17.2167 17.4263 17.4411 17.2019 17.7216 17.0897C18.0021 16.9775 18.6193 16.8653 18.8437 16.6409C19.0681 16.4165 19.2364 16.1921 19.4047 16.0799C19.573 15.9677 20.1901 15.9677 20.8072 15.6872C21.4243 15.4067 21.5926 15.2945 22.0975 14.9579C22.6025 14.6213 22.9391 14.0042 23.2196 13.6114C23.5001 13.2187 24.0611 12.7138 24.3977 12.3211C24.7343 11.9284 25.2953 11.2552 25.5197 11.0869C25.7441 10.9186 25.9685 10.582 26.4173 10.582C26.8662 10.582 27.4272 11.0308 27.7077 11.3113C27.9882 11.5918 28.1565 11.8162 28.437 11.8162C28.7175 11.8162 29.1663 12.1528 29.3346 12.3211C29.5029 12.4894 29.7273 12.7138 30.1761 12.7138C30.625 12.7138 30.9055 12.826 31.5226 13.6114C32.1397 14.3969 32.308 14.7896 32.7568 15.2384C33.2056 15.6872 33.43 15.9116 33.8227 16.136C34.2154 16.3604 34.3276 16.2482 34.9448 15.9116C35.1339 15.8084 35.3073 15.7369 35.468 15.6969C35.7326 15.6312 35.8154 15.9329 35.6109 16.1133L34.0405 17.4986C33.72 17.7814 34.0763 18.2864 34.4501 18.0792L37.653 16.3043C37.7556 16.2552 37.8626 16.1822 37.9742 16.0799C38.6475 15.4628 39.0963 15.8555 39.2085 15.0701C39.3207 14.2847 40.4427 14.7896 40.8354 14.5091C41.2281 14.2286 41.172 14.2286 41.2842 13.6114C41.3964 12.9943 41.6769 12.6016 42.5746 11.8162C43.4722 11.0308 46.4455 8.89892 46.7261 8.56231C47.0066 8.22571 48.1286 7.21588 48.4652 7.21588C48.8018 7.21588 49.4189 7.9452 49.7555 8.0574C50.0216 8.14611 50.4848 8.50621 50.8215 8.78672C51.0155 8.94842 51.084 9.14775 51.2142 9.23553C51.3098 9.30003 51.4947 9.29163 51.663 9.40384C51.8964 9.55943 51.9996 9.90875 52.224 10.021C52.4484 10.1332 52.6728 10.1893 52.8972 10.5259C53.1216 10.8625 53.7387 11.5918 53.9631 11.9284C54.1875 12.265 54.6925 12.6016 54.8047 12.826C54.9169 13.0504 55.1974 13.4992 55.3657 13.6114C55.534 13.7236 55.5901 13.8919 55.4779 14.1164C55.3657 14.3408 54.973 14.5652 54.8047 14.7335C54.6363 14.9018 54.3558 15.2384 54.0753 15.5189C53.9629 15.6313 53.7152 15.9511 53.4443 16.3084C53.2128 16.6138 53.6013 17.1178 53.916 16.8993C53.9325 16.8879 53.9482 16.8765 53.9631 16.8653C54.4119 16.5287 55.4779 15.9677 55.9828 15.6872C56.4877 15.4067 56.8243 15.2384 57.0487 15.1262C57.2731 15.014 57.6658 14.8457 58.2268 15.2384C58.7879 15.6311 59.0684 16.3043 59.4611 16.6409C59.8538 16.9775 60.0221 17.2019 60.527 17.2019C61.0319 17.2019 61.3124 16.8653 61.5929 16.7531C61.8734 16.6409 62.21 16.4165 62.8833 16.8653C63.5565 17.3141 64.5102 18.0435 65.3517 18.7728C66.1932 19.5021 66.5859 19.7826 67.0348 20.1753C67.4836 20.568 67.4275 20.6802 67.7641 20.8485C68.1007 21.0168 68.3812 21.1851 68.83 21.4095C69.2788 21.6339 70.1203 22.0267 71.4107 22.5877H70.513Z" fill="#002F70"/>
</g>
<path d="M36.8818 15.048L29.8982 16.3306L36.8572 14.8363L29.7959 13.9408L37.0028 14.6367C37.0938 14.4873 37.2724 14.3694 37.4913 14.3336C37.7178 14.2966 37.9314 14.3565 38.0646 14.4771L44.7613 11.8168L38.4132 14.5611L45.2556 13.5511L38.2364 14.8032L45.2675 15.9876L38.2167 15.0158L44.5501 18.2619L38.1227 15.2066L43.1816 20.2118L37.9733 15.359L41.272 21.6674L37.7684 15.4296L38.8801 22.497L37.5637 15.4968L36.4708 22.5362L37.2715 15.5493L33.6064 21.5553L37.0647 15.4716L32.178 20.4655L37.0132 15.2193L30.6854 18.5156L36.8818 15.048Z" fill="url(#paint1_radial_2720_17990)"/>
</g>
</g>
<path d="M7.48562 46.6698V48.8497H11.0234C10.666 49.5644 10.2372 50.0646 9.66546 50.422C9.12944 50.7436 8.41473 50.9223 7.62856 50.9223C6.37782 50.9223 5.3415 50.5292 4.48386 49.7073C4.34092 49.5644 4.19798 49.4214 4.09077 49.2427L3.87636 48.9211V48.8854C3.80489 48.7782 3.76915 48.671 3.69768 48.5638L3.66195 48.528C3.62621 48.4208 3.55474 48.3494 3.51901 48.2422C3.51901 48.2064 3.48327 48.1707 3.48327 48.1707C3.44754 48.0635 3.4118 47.992 3.37607 47.8848C3.37607 47.8491 3.34033 47.8133 3.34033 47.7419C3.3046 47.6704 3.3046 47.5632 3.26886 47.4917C3.26886 47.4202 3.26886 47.3488 3.23313 47.2773C3.23313 47.2058 3.19739 47.1701 3.19739 47.0986C3.19739 46.9557 3.16166 46.8127 3.16166 46.6698C3.16166 45.5263 3.55474 44.5614 4.37665 43.7753C5.19856 42.9891 6.19915 42.596 7.41415 42.596C8.80782 42.596 10.0228 43.132 11.0591 44.2398L12.703 42.6317C11.9525 41.8455 11.1663 41.2738 10.4159 40.9522C9.48679 40.5591 8.4862 40.3804 7.41415 40.3804C5.37724 40.3804 3.73342 41.0951 2.44695 42.4888C1.3749 43.668 0.838867 45.0617 0.838867 46.6698C0.838867 47.8491 1.12475 48.9211 1.69651 49.9574C1.80372 50.1361 1.91092 50.2791 2.01813 50.422C2.01813 50.4577 2.05386 50.4935 2.0896 50.5292L2.41122 50.958C2.87577 51.4941 3.44754 51.9586 4.05504 52.316C5.05562 52.852 6.19915 53.1379 7.44988 53.1379C8.62914 53.1379 9.66546 52.8877 10.5588 52.3874C11.4522 51.8871 12.1669 51.1724 12.703 50.2076C13.2747 49.2427 13.5249 48.2422 13.5249 47.2058V46.6698H7.48562ZM19.3497 43.668C17.9918 43.668 16.884 44.1326 15.9906 45.026C15.0972 45.9194 14.6327 47.0629 14.6327 48.4208C14.6327 49.743 15.0972 50.8508 15.9906 51.7442C16.884 52.6376 18.0632 53.0664 19.4569 53.0664C20.386 53.0664 21.1722 52.8877 21.8154 52.6018C22.4944 52.2802 23.0662 51.7799 23.5307 51.101L21.601 50.2076C20.9935 50.8151 20.2431 51.101 19.4212 51.101C18.7065 51.101 18.1347 50.9223 17.6702 50.5292C17.2056 50.1361 16.9197 49.6358 16.8125 48.9926H24.174V48.5638C24.174 47.0986 23.7094 45.8836 22.816 44.9902C21.9584 44.0969 20.7791 43.668 19.3497 43.668ZM16.9554 47.2416C17.2056 46.7055 17.4915 46.3125 17.7774 46.098C18.2776 45.7407 18.8137 45.562 19.4569 45.562C20.0287 45.562 20.5647 45.705 20.9935 46.0266C21.4223 46.3482 21.744 46.7413 21.8869 47.2416H16.9554ZM30.5348 43.668C30.106 43.668 29.6772 43.7395 29.2484 43.9182C28.8195 44.0969 28.355 44.3827 27.8547 44.8116V43.8825H25.5676V52.852H27.8547V49.2427C27.8547 48.3136 27.8904 47.7061 27.9619 47.4202C28.1048 46.8842 28.3192 46.4554 28.6409 46.1695C28.9625 45.8479 29.3556 45.705 29.8201 45.705C30.1775 45.705 30.4634 45.8122 30.7135 45.9908C30.9637 46.1695 31.1066 46.4554 31.2138 46.777C31.321 47.1344 31.3567 47.8491 31.3567 48.9211V52.852H33.6438V46.9199C33.6438 45.8836 33.3936 45.0975 32.8576 44.5972C32.2144 43.9539 31.4282 43.668 30.5348 43.668ZM39.6473 43.668C38.2894 43.668 37.1816 44.1326 36.2882 45.026C35.3948 45.9194 34.966 47.0629 34.966 48.4208C34.966 49.743 35.4306 50.8508 36.3239 51.7442C37.2173 52.6376 38.3608 53.0664 39.7902 53.0664C40.7194 53.0664 41.5055 52.8877 42.1488 52.6018C42.8277 52.2802 43.3995 51.7799 43.8641 51.101L41.9344 50.2076C41.3269 50.8151 40.5764 51.101 39.7545 51.101C39.0398 51.101 38.468 50.9223 38.0035 50.5292C37.5389 50.1361 37.253 49.6358 37.1458 48.9926H44.4716V48.5638C44.4716 47.0986 44.007 45.8836 43.1136 44.9902C42.2202 44.0969 41.0767 43.668 39.6473 43.668ZM37.253 47.2416C37.5032 46.7055 37.7891 46.3125 38.075 46.098C38.5395 45.7407 39.1113 45.562 39.7545 45.562C40.3263 45.562 40.8623 45.705 41.2911 46.0266C41.72 46.3482 42.0416 46.7413 42.1845 47.2416H37.253ZM48.1523 43.9897C47.7949 44.2041 47.5448 44.5614 47.3304 44.9902V43.8467H45.3292V52.852H47.6163V48.8139C47.6163 47.5632 47.7235 46.7055 47.9736 46.3125C48.2238 45.8836 48.5096 45.6692 48.8313 45.6692C49.0099 45.6692 49.2243 45.7407 49.4745 45.8479L50.1535 43.9182C49.8318 43.7753 49.546 43.7038 49.2601 43.7038C48.867 43.668 48.5096 43.7752 48.1523 43.9897ZM57.6221 44.8473C57.229 44.4542 56.7645 44.1326 56.2999 43.9539C55.8354 43.7395 55.2993 43.668 54.7633 43.668C53.584 43.668 52.5477 44.0969 51.7258 44.9902C50.9039 45.8836 50.4751 46.9914 50.4751 48.3851C50.4751 49.7073 50.9039 50.8508 51.7615 51.7442C52.6192 52.6376 53.6555 53.1021 54.8348 53.1021C55.3708 53.1021 55.8354 52.9949 56.2999 52.8163C56.7645 52.6376 57.1933 52.316 57.6579 51.9229V52.8877H59.9449V43.9182H57.6579V44.8473H57.6221ZM57.0146 50.2791C56.5501 50.7794 55.9426 51.0295 55.2279 51.0295C54.5132 51.0295 53.9414 50.7794 53.4768 50.2791C53.0123 49.7788 52.7621 49.1355 52.7621 48.3494C52.7621 47.5632 52.9765 46.9557 53.4768 46.4554C53.9414 45.9551 54.5489 45.705 55.2279 45.705C55.9426 45.705 56.5501 45.9551 57.0146 46.4197C57.4792 46.92 57.7293 47.5274 57.7293 48.3136C57.7293 49.1355 57.5149 49.7788 57.0146 50.2791ZM61.4815 52.852H63.7686V40.4161H61.4815V52.852ZM67.9139 31.1965C67.5208 30.8034 67.0919 30.5175 66.5917 30.3031C66.1271 30.0887 65.6268 30.0172 65.0908 30.0172C63.9115 30.0172 62.9467 30.446 62.1248 31.3037C61.3028 32.1613 60.9098 33.3048 60.9098 34.6628C60.9098 35.985 61.3386 37.057 62.1605 37.9504C63.0181 38.8438 64.0187 39.2726 65.1622 39.2726C65.6625 39.2726 66.1628 39.1654 66.5917 38.9867C67.0205 38.8081 67.485 38.5222 67.9139 38.0934V39.0225H70.1294V30.1959H67.9139V31.1965ZM67.3064 36.521C66.8418 36.9856 66.27 37.2357 65.5553 37.2357C64.8764 37.2357 64.3046 36.9856 63.84 36.4853C63.3755 35.985 63.1253 35.3775 63.1253 34.5913C63.1253 33.8409 63.3397 33.1976 63.8043 32.7331C64.2689 32.2328 64.8406 32.0184 65.5553 32.0184C66.27 32.0184 66.8418 32.2685 67.3064 32.7331C67.7709 33.1976 68.0211 33.8409 68.0211 34.5913C68.0211 35.4132 67.8067 36.0207 67.3064 36.521ZM78.9918 31.1965C78.5272 30.7676 78.0627 30.4818 77.5981 30.2673C77.1335 30.0887 76.669 29.9815 76.133 29.9815C75.0252 29.9815 74.096 30.3745 73.2741 31.125C72.3808 31.9826 71.9519 33.0904 71.9519 34.4841C71.9519 35.8063 72.3808 36.8784 73.2027 37.736C74.0246 38.5936 75.0252 39.0225 76.2402 39.0225C76.7762 39.0225 77.2765 38.951 77.7053 38.7723C78.1341 38.5936 78.563 38.3078 78.956 37.9147C78.956 38.6294 78.8846 39.1654 78.7416 39.4513C78.5987 39.7372 78.3485 39.9873 77.9555 40.166C77.5981 40.3447 77.0978 40.4519 76.4903 40.4519C76.0257 40.4519 75.5969 40.3804 75.2753 40.2375C74.918 40.0945 74.6321 39.9158 74.4177 39.6657H71.9519C72.1306 40.2732 72.4522 40.7735 72.8453 41.2023C73.2384 41.6311 73.7387 41.9528 74.3462 42.1672C74.9537 42.3816 75.6684 42.4888 76.5618 42.4888C78.2056 42.4888 79.4206 42.0242 80.2425 41.0594C80.85 40.3447 81.1359 39.2726 81.1359 37.7717V30.2316H78.9203V31.1965H78.9918ZM78.42 36.3423C77.9555 36.8069 77.3837 37.0213 76.7047 37.0213C75.99 37.0213 75.4183 36.7711 74.918 36.3066C74.4534 35.842 74.2033 35.2345 74.2033 34.5198C74.2033 33.8051 74.4177 33.2334 74.8822 32.7688C75.3468 32.3042 75.9185 32.0541 76.6333 32.0541C77.348 32.0541 77.9197 32.2685 78.3843 32.7331C78.8488 33.1976 79.0632 33.7694 79.0632 34.5198C79.099 35.2703 78.8846 35.8778 78.42 36.3423ZM92.3567 34.8414C92.3567 33.3763 91.9279 32.2328 91.0345 31.3394C90.1412 30.446 89.0334 30.0172 87.604 30.0172C86.2818 30.0172 85.174 30.446 84.3163 31.3394C83.4229 32.2328 82.9941 33.3406 82.9941 34.6985C82.9941 36.0207 83.4229 37.0928 84.3163 37.9861C85.2097 38.8438 86.3175 39.3083 87.7112 39.3083C88.6045 39.3083 89.3907 39.1297 90.034 38.8438C90.6772 38.5222 91.249 38.0219 91.7135 37.3786L89.8195 36.521C89.212 37.0928 88.4973 37.3786 87.6754 37.3786C86.9965 37.3786 86.389 37.2 85.9601 36.8069C85.4956 36.4495 85.2454 35.9492 85.1382 35.306H92.321L92.3567 34.8414ZM85.2454 33.555C85.4956 33.019 85.7815 32.6259 86.0673 32.4115C86.5319 32.0541 87.1037 31.8754 87.7112 31.8754C88.2829 31.8754 88.7832 32.0184 89.212 32.34C89.6409 32.6616 89.9268 33.0547 90.0697 33.555H85.2454ZM5.01989 36.1994H9.77267L10.8805 39.0225H13.2747L8.66488 27.1226H6.34209L1.69651 39.0582H3.84063L5.01989 36.1994ZM7.52135 30.3031L8.9865 34.091H5.949L7.52135 30.3031ZM18.635 39.2726C19.171 39.2726 19.6356 39.1654 20.0644 38.9867C20.4932 38.8081 20.9578 38.5222 21.3866 38.0934V39.0225H23.6022V26.801H21.3866V31.1965C21.2437 31.0535 21.1007 30.9106 20.9221 30.8034C20.6719 30.589 20.386 30.446 20.0644 30.3031C19.5999 30.0887 19.0996 30.0172 18.5635 30.0172C17.3843 30.0172 16.4194 30.446 15.5975 31.3037C14.7756 32.1613 14.3825 33.2691 14.3825 34.6628C14.3825 35.985 14.8113 37.057 15.6332 37.9504C16.4909 38.8438 17.4915 39.2726 18.635 39.2726ZM17.2771 32.7688C17.7416 32.2685 18.3134 32.0541 19.0281 32.0541C19.7428 32.0541 20.3503 32.3042 20.7791 32.7688C21.2437 33.2334 21.4938 33.8766 21.4938 34.627C21.4938 35.4132 21.2437 36.0564 20.7791 36.521C20.3146 37.0213 19.7428 37.2357 19.0281 37.2357C18.3491 37.2357 17.7774 36.9856 17.2771 36.4853C16.8125 35.985 16.5624 35.3775 16.5624 34.5913C16.5981 33.8766 16.8482 33.2334 17.2771 32.7688ZM29.427 35.4132L27.1757 30.1959H24.8887L28.6766 39.0225H30.106L33.9297 30.1959H31.6784L29.427 35.4132ZM39.0755 39.2726C39.5758 39.2726 40.0761 39.1654 40.505 38.9867C40.9338 38.8081 41.3983 38.5222 41.8272 38.0934V39.0225H44.0427V30.1959H41.8272V31.1607C41.4341 30.7676 41.0052 30.4818 40.505 30.2673C40.0404 30.0529 39.5401 29.9815 39.0041 29.9815C37.8248 29.9815 36.86 30.4103 36.0381 31.2679C35.7879 31.5538 35.5735 31.8397 35.3948 32.1613C35.0017 32.876 34.8231 33.6622 34.8231 34.5913C34.8231 35.9135 35.2519 36.9856 36.0738 37.8789C36.8957 38.8438 37.8963 39.2726 39.0755 39.2726ZM37.7176 32.7688C37.932 32.5187 38.2179 32.34 38.5038 32.2328C38.7897 32.1256 39.1113 32.0541 39.4686 32.0541C39.826 32.0541 40.1476 32.1256 40.4692 32.2328C40.7551 32.34 41.0052 32.5187 41.2554 32.7688C41.72 33.2334 41.9701 33.8766 41.9701 34.627C41.9701 35.4132 41.72 36.0564 41.2554 36.521C40.7908 37.0213 40.2191 37.2357 39.5044 37.2357C38.8254 37.2357 38.2536 36.9856 37.7891 36.4853C37.3245 35.985 37.0744 35.3775 37.0744 34.5913C37.0386 33.8766 37.253 33.2334 37.7176 32.7688ZM51.297 32.3042C51.5471 32.4829 51.6901 32.7331 51.7973 33.0904C51.9045 33.4478 51.9402 34.1267 51.9402 35.1988V39.0582H54.1558V33.2334C54.1558 32.876 54.1201 32.5187 54.0486 32.2328C53.9414 31.6968 53.6912 31.2679 53.3696 30.9463C52.7621 30.3388 52.0117 30.0172 51.1183 30.0172C50.6895 30.0172 50.2607 30.0887 49.8676 30.2673C49.4745 30.446 49.0099 30.7319 48.4739 31.1607V30.2673H46.2583V39.0939H48.4739V35.5562C48.4739 34.627 48.5096 34.0553 48.5811 33.7694C48.7241 33.2334 48.9385 32.8403 49.2601 32.5187C49.3673 32.4115 49.5102 32.3042 49.6532 32.2685C49.9033 32.1613 50.1535 32.0898 50.4393 32.0898C50.7252 32.0898 50.9754 32.1613 51.1898 32.2685C51.2255 32.2328 51.2612 32.2685 51.297 32.3042ZM58.8014 26.9797H56.5858V30.2316H55.4423V32.1256H56.5858V39.0582H58.8014V32.1256H60.1236V30.2316H58.8014V26.9797Z" fill="#353B40"/>
<path d="M2.9834 65.3895H3.51943V68.6057H2.9834V65.3895ZM4.94884 65.3895H5.48486L6.7356 67.4979V65.3895H7.30736V68.57H6.77133L5.5206 66.4616V68.57H4.94884V65.3895Z" fill="#353B40"/>
<path d="M10.3092 65.8181L9.8804 66.2112C9.73746 65.9967 9.59452 65.8895 9.45158 65.8895C9.38011 65.8895 9.30864 65.9253 9.2729 65.961C9.23717 65.9968 9.20143 66.0682 9.20143 66.104C9.20143 66.1397 9.20143 66.2112 9.23717 66.2469C9.2729 66.3184 9.41584 66.4613 9.63025 66.6757C9.84466 66.8544 9.9876 66.9973 10.0233 67.0331C10.1305 67.1403 10.202 67.2832 10.2735 67.3904C10.3092 67.4976 10.345 67.6406 10.345 67.7478C10.345 67.9979 10.2735 68.2123 10.0948 68.391C9.91613 68.5697 9.70172 68.6412 9.45158 68.6412C9.23717 68.6412 9.05849 68.6054 8.91555 68.4625C8.77261 68.3553 8.62967 68.1766 8.52246 67.9265L8.98702 67.6048C9.12996 67.8907 9.2729 68.0337 9.48731 68.0337C9.59452 68.0337 9.66599 67.9979 9.73746 67.9622C9.80893 67.8907 9.84466 67.8192 9.84466 67.7478C9.84466 67.6763 9.80893 67.6048 9.77319 67.5334C9.73746 67.4619 9.63025 67.3547 9.45158 67.2117C9.12996 66.9259 8.91555 66.7115 8.84408 66.5685C8.73687 66.4256 8.70114 66.2469 8.70114 66.104C8.70114 65.8895 8.77261 65.6751 8.91555 65.5322C9.05849 65.3893 9.2729 65.282 9.48731 65.282C9.63025 65.282 9.77319 65.3178 9.91613 65.3893C9.9876 65.4965 10.1305 65.6037 10.3092 65.8181Z" fill="#353B40"/>
<path d="M11.667 65.3895H12.203V67.4622C12.203 67.6408 12.203 67.7838 12.2388 67.8553C12.2745 67.9267 12.3102 67.9982 12.3817 68.0339C12.4532 68.0697 12.5246 68.1054 12.6318 68.1054C12.739 68.1054 12.8105 68.0697 12.882 68.0339C12.9535 67.9982 12.9892 67.9267 13.0249 67.8553C13.0607 67.7838 13.0607 67.6408 13.0607 67.4264V65.4253H13.5967V67.3192C13.5967 67.6408 13.5967 67.8553 13.561 67.9982C13.5252 68.1411 13.4538 68.2483 13.3823 68.3556C13.2751 68.4628 13.1679 68.57 13.0607 68.6057C12.9535 68.6414 12.8105 68.6772 12.6318 68.6772C12.4174 68.6772 12.2388 68.6414 12.0958 68.5342C11.9529 68.427 11.8457 68.2841 11.7742 68.1411C11.7027 67.9982 11.667 67.7123 11.667 67.3192V65.3895Z" fill="#353B40"/>
<path d="M15.133 65.3895H15.7048C16.0264 65.3895 16.2408 65.4253 16.3837 65.4967C16.5267 65.5682 16.6339 65.6754 16.7053 65.8183C16.7768 65.9613 16.8125 66.14 16.8125 66.3186C16.8125 66.5331 16.7768 66.7117 16.6696 66.8547C16.5624 66.9976 16.4195 67.1048 16.2408 67.1763L16.9198 68.6057H16.3123L15.669 67.2478H15.5976V68.6057H15.0615V65.3895H15.133ZM15.669 66.6403H15.8477C16.0264 66.6403 16.1693 66.6045 16.2051 66.5688C16.2765 66.5331 16.3123 66.4258 16.3123 66.3186C16.3123 66.2472 16.3123 66.1757 16.2765 66.14C16.2408 66.1042 16.2051 66.0685 16.1336 66.0328C16.0621 65.997 15.9549 65.997 15.812 65.997H15.669V66.6403Z" fill="#353B40"/>
<path d="M19.1361 65.3895H19.7079L20.8157 68.6057H20.2439L20.0295 67.9267H18.8502L18.6001 68.6057H18.0283L19.1361 65.3895ZM19.422 66.2114L19.0289 67.3192H19.8151L19.422 66.2114ZM22.0664 65.3895H22.5667L23.8532 67.4979V65.3895H24.3892V68.57H23.8532L22.6024 66.4616V68.57H22.0664V65.3895Z" fill="#353B40"/>
<path d="M28.534 65.9255L28.1409 66.3186C27.8908 65.997 27.5692 65.854 27.2476 65.854C26.9617 65.854 26.7473 65.9612 26.5328 66.1756C26.3542 66.39 26.247 66.6402 26.247 66.9618C26.247 67.1762 26.2827 67.3549 26.3899 67.5336C26.4614 67.7123 26.6043 67.8195 26.7473 67.9267C26.8902 68.0339 27.0689 68.0696 27.2476 68.0696C27.3905 68.0696 27.5692 68.0339 27.6764 67.9624C27.8193 67.8909 27.9623 67.7837 28.1052 67.605L28.4983 68.0339C28.2839 68.2483 28.0695 68.427 27.8908 68.5342C27.7121 68.6414 27.462 68.6771 27.2476 68.6771C26.783 68.6771 26.4256 68.5342 26.1398 68.2125C25.8539 67.8909 25.7109 67.4978 25.7109 66.9975C25.7109 66.6759 25.7824 66.3901 25.9253 66.1399C26.0683 65.8898 26.247 65.7111 26.4971 65.5324C26.7473 65.3895 26.9974 65.318 27.2833 65.318C27.5334 65.318 27.7478 65.3895 27.9623 65.4967C28.2124 65.5681 28.3911 65.7468 28.534 65.9255Z" fill="#353B40"/>
<path d="M29.8203 65.3895H31.4284V65.9613H30.3921V66.5331H31.4284V67.1406H30.3921V67.9982H31.4284V68.57H29.8203V65.3895Z" fill="#353B40"/>
<path d="M37.3963 65.9255L37.0032 66.3186C36.7531 65.997 36.4315 65.854 36.1099 65.854C35.824 65.854 35.6096 65.9612 35.3952 66.1756C35.2165 66.39 35.1093 66.6402 35.1093 66.9618C35.1093 67.1762 35.145 67.3549 35.2522 67.5336C35.3237 67.7123 35.4666 67.8195 35.6096 67.9267C35.7525 68.0339 35.9312 68.0696 36.1099 68.0696C36.2885 68.0696 36.4315 68.0339 36.5387 67.9624C36.6816 67.8909 36.8246 67.7837 36.9675 67.605L37.3606 68.0339C37.1462 68.2483 36.9318 68.427 36.7531 68.5342C36.5744 68.6414 36.36 68.6771 36.1099 68.6771C35.6453 68.6771 35.2879 68.5342 35.0021 68.2125C34.7162 67.8909 34.5732 67.4978 34.5732 66.9975C34.5732 66.6759 34.6447 66.3901 34.7877 66.1399C34.9306 65.8898 35.1093 65.7111 35.3594 65.5324C35.6096 65.3895 35.8597 65.318 36.1456 65.318C36.3957 65.318 36.6101 65.3895 36.8246 65.4967C37.039 65.5681 37.2176 65.7468 37.3963 65.9255Z" fill="#353B40"/>
<path d="M40.0409 65.282C40.4697 65.282 40.7914 65.4607 41.113 65.7823C41.3989 66.104 41.5418 66.497 41.5418 66.9973C41.5418 67.4619 41.3989 67.855 41.113 68.1766C40.8271 68.4982 40.4697 68.6769 40.0409 68.6769C39.6121 68.6769 39.2547 68.4982 38.9689 68.1766C38.683 67.855 38.54 67.4619 38.54 66.9973C38.54 66.6757 38.6115 66.4256 38.7544 66.1397C38.8974 65.8895 39.0761 65.6751 39.3262 65.5322C39.5049 65.3535 39.7908 65.282 40.0409 65.282ZM40.0409 65.8895C39.755 65.8895 39.5406 65.9967 39.3619 66.2112C39.1833 66.4256 39.0761 66.6757 39.0761 66.9973C39.0761 67.3547 39.1833 67.6406 39.4334 67.855C39.6121 67.9979 39.8265 68.1051 40.0409 68.1051C40.2911 68.1051 40.5412 67.9979 40.7199 67.7835C40.8986 67.5691 41.0058 67.319 41.0058 66.9973C41.0058 66.6757 40.8986 66.4256 40.7199 66.2112C40.5412 65.9967 40.2911 65.8895 40.0409 65.8895Z" fill="#353B40"/>
<path d="M43.1858 65.3895H43.7219L44.4008 67.6051L45.0798 65.3895H45.6158L46.0804 68.57H45.5444L45.2585 66.5688L44.6152 68.57H44.1507L43.5432 66.5688L43.2216 68.57H42.6855L43.1858 65.3895Z" fill="#353B40"/>
<path d="M47.3311 65.3895H47.9386C48.2602 65.3895 48.4746 65.4253 48.6175 65.4967C48.7605 65.5682 48.8677 65.6754 48.9391 65.8183C49.0106 65.9613 49.0463 66.14 49.0463 66.3186C49.0463 66.5331 48.9749 66.7117 48.8677 66.8904C48.7605 67.0333 48.6175 67.1406 48.4388 67.212C48.3316 67.2478 48.1172 67.2478 47.8671 67.2478V68.6057H47.3311V65.3895ZM47.9028 66.6403H48.0815C48.2244 66.6403 48.3316 66.6403 48.3674 66.6045C48.4388 66.5688 48.4746 66.5331 48.5103 66.4973C48.5461 66.4616 48.546 66.3901 48.546 66.3186C48.546 66.2114 48.5103 66.1042 48.4031 66.0328C48.3316 65.997 48.2244 65.9613 48.0458 65.9613H47.9028V66.6403Z" fill="#353B40"/>
<path d="M51.2972 65.3894H51.869L52.9768 68.6056H52.405L52.1906 67.9266H51.0114L50.7612 68.6056H50.1895L51.2972 65.3894ZM51.5831 66.2113L51.19 67.3191H51.9762L51.5831 66.2113ZM54.2275 65.3894H54.7278L56.0143 67.4978V65.3894H56.5503V68.5698H56.05L54.7636 66.4615V68.5698H54.2275V65.3894ZM57.8368 65.3894H58.4086L58.9446 66.4972L59.4806 65.3894H60.0881L59.2305 67.1762V68.5698H58.6944V67.1762L57.8368 65.3894ZM63.3043 65.3894H63.5902V68.284H64.7337V68.5698H63.3043V65.3894ZM66.0559 65.2465C66.1274 65.2465 66.1631 65.2822 66.2346 65.3179C66.2703 65.3537 66.306 65.4251 66.306 65.4966C66.306 65.5681 66.2703 65.6038 66.2346 65.6753C66.1988 65.711 66.1274 65.7468 66.0559 65.7468C65.9844 65.7468 65.9487 65.711 65.8772 65.6753C65.8415 65.6395 65.8057 65.5681 65.8057 65.4966C65.8057 65.4251 65.8415 65.3537 65.8772 65.3179C65.9487 65.2465 65.9844 65.2465 66.0559 65.2465ZM65.9129 66.2113H66.1988V68.5698H65.9129V66.2113ZM67.5568 66.2113H67.8426V66.6401C67.9499 66.4972 68.0213 66.39 68.1285 66.3185C68.2715 66.2113 68.4144 66.1756 68.5574 66.1756C68.6646 66.1756 68.7718 66.2113 68.8432 66.247C68.9504 66.2828 69.0219 66.3543 69.0576 66.4257C69.1291 66.4972 69.1648 66.6044 69.2006 66.7473C69.3078 66.5687 69.415 66.4257 69.5579 66.3185C69.7009 66.2113 69.8438 66.1756 69.9868 66.1756C70.1297 66.1756 70.2726 66.2113 70.3798 66.2828C70.4871 66.3542 70.5943 66.4972 70.63 66.6401C70.6657 66.7831 70.7015 66.9975 70.7015 67.3191V68.6056H70.4156V67.3191C70.4156 67.069 70.4156 66.8903 70.3798 66.7831C70.3441 66.6759 70.2726 66.6044 70.2012 66.5329C70.1297 66.4615 70.0225 66.4615 69.9153 66.4615C69.7723 66.4615 69.6651 66.4972 69.5579 66.6044C69.4507 66.6759 69.3793 66.8188 69.3078 66.9618C69.2363 67.1047 69.2363 67.3548 69.2363 67.6765V68.6056H68.9504V67.3906C68.9504 67.1047 68.9504 66.926 68.9147 66.8188C68.879 66.7116 68.8432 66.6401 68.736 66.5687C68.6646 66.4972 68.5574 66.4615 68.4501 66.4615C68.3072 66.4615 68.2 66.4972 68.0928 66.6044C67.9856 66.6759 67.9141 66.7831 67.8426 66.9618C67.7712 67.1047 67.7712 67.3191 67.7712 67.6407V68.6413H67.4853V66.2113H67.5568ZM72.3095 65.2465C72.381 65.2465 72.4168 65.2822 72.4882 65.3179C72.524 65.3537 72.5597 65.4251 72.5597 65.4966C72.5597 65.5681 72.524 65.6038 72.4882 65.6753C72.4525 65.711 72.381 65.7468 72.3095 65.7468C72.2381 65.7468 72.2023 65.711 72.1309 65.6753C72.0951 65.6395 72.0594 65.5681 72.0594 65.4966C72.0594 65.4251 72.0951 65.3537 72.1309 65.3179C72.1666 65.2465 72.2381 65.2465 72.3095 65.2465ZM72.1666 66.2113H72.4525V68.5698H72.1666V66.2113Z" fill="#353B40"/>
<path d="M74.0611 65.3178H74.3469V66.2112H74.7758V66.4613H74.3469V68.5697H74.0611V66.4613H73.668V66.2112H74.0611V65.3178ZM77.8133 67.8192L78.0634 67.9622C77.9919 68.1409 77.8847 68.2481 77.8133 68.3553C77.706 68.4625 77.5988 68.534 77.4916 68.5697C77.3844 68.6412 77.2058 68.6412 77.0628 68.6412C76.7055 68.6412 76.4196 68.5339 76.2409 68.2481C76.0265 67.9979 75.955 67.712 75.955 67.3904C75.955 67.1045 76.0265 66.8187 76.2052 66.5685C76.4196 66.2826 76.7055 66.1397 77.0628 66.1397C77.4202 66.1397 77.7418 66.2826 77.9562 66.6043C78.0991 66.8187 78.2063 67.1045 78.2063 67.4262H76.2409C76.2409 67.712 76.3124 67.9265 76.4911 68.1051C76.634 68.2838 76.8484 68.3553 77.0628 68.3553C77.17 68.3553 77.2772 68.3195 77.3844 68.2838C77.4916 68.2481 77.5631 68.1766 77.6703 68.1051C77.6346 68.0694 77.7418 67.9622 77.8133 67.8192ZM77.8133 67.1403C77.7775 66.9973 77.706 66.8544 77.6346 66.7472C77.5631 66.64 77.4559 66.5685 77.3487 66.497C77.2415 66.4256 77.0986 66.3898 76.9913 66.3898C76.7769 66.3898 76.5983 66.4613 76.4553 66.6043C76.3481 66.7115 76.2409 66.8901 76.2052 67.1045H77.8133V67.1403ZM81.5655 65.282V68.5697H81.2796V68.1766C81.1724 68.3195 81.0294 68.4625 80.8865 68.5339C80.7435 68.6054 80.5649 68.6412 80.4219 68.6412C80.136 68.6412 79.8502 68.534 79.6357 68.2838C79.4213 68.0337 79.3141 67.7478 79.3141 67.3904C79.3141 67.0331 79.4213 66.7472 79.6357 66.5328C79.8502 66.2826 80.1003 66.1754 80.4219 66.1754C80.6006 66.1754 80.7435 66.2112 80.8865 66.2826C81.0294 66.3541 81.1366 66.497 81.2796 66.64V65.282H81.5655ZM80.4577 66.4256C80.3147 66.4256 80.1718 66.4613 80.0288 66.5685C79.8859 66.64 79.8144 66.7829 79.7072 66.9259C79.6358 67.0688 79.6 67.2475 79.6 67.3904C79.6 67.5334 79.6358 67.712 79.7072 67.855C79.7787 67.9979 79.8859 68.1409 80.0288 68.2123C80.1718 68.2838 80.3147 68.3553 80.4577 68.3553C80.6006 68.3553 80.7435 68.3195 80.8865 68.2123C81.0294 68.1409 81.1366 67.9979 81.2081 67.855C81.2796 67.712 81.3153 67.5334 81.3153 67.3547C81.3153 67.0688 81.2438 66.8544 81.0652 66.6757C80.9222 66.5328 80.7078 66.4256 80.4577 66.4256Z" fill="#353B40"/>
<defs>
<filter id="filter0_i_2720_17990" x="7.45508" y="7.21588" width="63.9561" height="16.045" filterUnits="userSpaceOnUse" color-interpolation-filters="sRGB">
<feFlood flood-opacity="0" result="BackgroundImageFix"/>
<feBlend mode="normal" in="SourceGraphic" in2="BackgroundImageFix" result="shape"/>
<feColorMatrix in="SourceAlpha" type="matrix" values="0 0 0 0 0 0 0 0 0 0 0 0 0 0 0 0 0 0 127 0" result="hardAlpha"/>
<feOffset dy="0.673217"/>
<feGaussianBlur stdDeviation="0.561014"/>
<feComposite in2="hardAlpha" operator="arithmetic" k2="-1" k3="1"/>
<feColorMatrix type="matrix" values="0 0 0 0 1 0 0 0 0 0.831373 0 0 0 0 0.231373 0 0 0 0.2 0"/>
<feBlend mode="normal" in2="shape" result="effect1_innerShadow_2720_17990"/>
</filter>
<radialGradient id="paint0_radial_2720_17990" cx="0" cy="0" r="1" gradientUnits="userSpaceOnUse" gradientTransform="translate(37.4384 15.2933) rotate(-90.1874) scale(16.9966 47.8823)">
<stop stop-color="#FFD645"/>
<stop offset="1" stop-color="#FFC700"/>
</radialGradient>
<radialGradient id="paint1_radial_2720_17990" cx="0" cy="0" r="1" gradientUnits="userSpaceOnUse" gradientTransform="translate(37.5257 14.3413) rotate(90) scale(2.81011 3.64327)">
<stop stop-color="#FFD542"/>
<stop offset="1" stop-color="white"/>
</radialGradient>
<clipPath id="clip0_2720_17990">
<rect width="72.8998" height="22.5132" fill="white" transform="translate(0.838867)"/>
</clipPath>
<clipPath id="clip1_2720_17990">
<rect width="66.6485" height="66.6485" fill="white" transform="translate(6.19922 -19.2855)"/>
</clipPath>
</defs>
</svg>
