<svg viewBox="0 0 65 52" fill="none" xmlns="http://www.w3.org/2000/svg">
<g clip-path="url(#clip0_2421_14242)">
<g clip-path="url(#clip1_2421_14242)">
<mask id="mask0_2421_14242" style="mask-type:alpha" maskUnits="userSpaceOnUse" x="3" y="-3" width="48" height="19">
<rect x="3.71484" y="-2.26941" width="46.9817" height="18.1916" fill="#C4C4C4"/>
</mask>
<g mask="url(#mask0_2421_14242)">
<path fill-rule="evenodd" clip-rule="evenodd" d="M27.5428 -0.0550537L26.7974 7.13055L28.9009 3.67578L27.4609 7.4999L32.1097 2.555L28.0592 7.99508C28.294 7.89164 28.6003 7.75028 28.946 7.57745C29.3588 7.37102 29.6101 7.22924 29.8065 7.11837C29.9864 7.01684 30.1204 6.94122 30.2906 6.86561C30.4939 6.77521 30.8006 6.52986 31.1442 6.25499L31.1442 6.25497L31.1443 6.2549C31.402 6.04878 31.6804 5.82606 31.9515 5.63965C32.5843 5.20464 32.782 5.04645 33.217 4.69053C33.652 4.33461 33.8498 4.4137 33.9289 4.49279C33.9511 4.515 33.9795 4.54033 34.0124 4.56964C34.0968 4.64474 34.2106 4.74605 34.3243 4.88826C34.4825 5.086 35.1153 5.63965 35.5107 5.83739C35.7236 5.94383 35.799 6.00443 35.8787 6.06855C35.9471 6.12354 36.0187 6.18111 36.183 6.2724C36.539 6.47014 36.5785 6.50968 36.6576 6.74697C36.7034 6.88448 36.7891 6.96886 36.9147 7.09249C37.0057 7.18218 37.1178 7.29253 37.2508 7.45881C37.4293 7.6819 37.5448 7.77915 37.6542 7.87123C37.7388 7.94238 37.8197 8.01044 37.9231 8.13111C38.1604 8.4079 38.4371 8.6847 38.9116 9.15917L38.9117 9.15924L38.9118 9.15932C39.0926 9.34013 39.193 9.50371 39.2721 9.63257C39.4007 9.84195 39.473 9.95968 39.7423 9.91072C40.1488 9.83679 40.2445 9.93559 40.3198 10.0134L40.3355 10.0294C40.4146 10.1084 40.81 10.4644 41.1659 10.7412C41.5219 11.018 41.7987 11.1762 42.1151 11.3344C42.4314 11.4926 42.8269 11.4135 43.2224 11.2553C43.6179 11.0971 43.8551 11.1762 43.9738 11.2949C44.0367 11.3578 44.0774 11.3874 44.1372 11.4308C44.1901 11.4692 44.2579 11.5184 44.3692 11.6112C44.4878 11.71 44.5866 11.8089 44.6706 11.8929L44.6708 11.893L44.6708 11.893C44.7548 11.977 44.824 12.0462 44.8834 12.0858C44.9783 12.1491 45.1744 12.3136 45.3706 12.4781C45.4196 12.5192 45.4686 12.5604 45.5161 12.5999C45.5842 12.6566 45.6555 12.7134 45.7245 12.7683C45.896 12.9046 46.0529 13.0294 46.1093 13.114C46.1712 13.2069 46.2817 13.2756 46.3836 13.3389C46.4119 13.3565 46.4395 13.3737 46.4652 13.3908C46.5839 13.4699 47.2957 14.0236 47.8889 14.4982C48.4821 14.9727 49.1149 15.21 49.5499 15.2891C49.8095 15.3363 49.8578 15.4398 49.905 15.5408C49.9369 15.6091 49.9683 15.6763 50.064 15.7241C50.1097 15.747 50.1594 15.7779 50.2099 15.8132C50.3719 15.9263 50.288 16.1591 50.0905 16.1591C50.0065 16.1591 49.9248 16.1074 49.8631 16.0505C49.8056 15.9975 49.7424 15.97 49.7081 15.9614C49.6875 15.9542 49.6435 15.9433 49.6044 15.9341C49.5682 15.9257 49.5311 15.922 49.494 15.9222L4.60867 16.2361C4.46378 16.2371 4.36286 16.0926 4.41374 15.9569C4.42244 15.9337 4.42651 15.9091 4.42992 15.8845C4.43451 15.8516 4.44506 15.8064 4.46644 15.7637C4.50599 15.6846 4.62463 15.6055 5.25738 15.3286C5.6366 15.1627 5.68911 15.0963 5.76396 15.0015C5.81399 14.9382 5.87401 14.8622 6.04832 14.7354C6.37528 14.4976 6.43415 14.4833 6.67832 14.4236C6.759 14.4039 6.85993 14.3793 6.99744 14.34C7.20141 14.2817 7.37853 14.2771 7.54465 14.2728C7.82944 14.2654 8.08185 14.2588 8.38158 13.984C8.455 13.9167 8.51706 13.8589 8.57069 13.8089L8.57085 13.8088L8.57089 13.8087C8.86374 13.5358 8.90515 13.4972 9.17252 13.4304C9.37243 13.3804 9.39865 13.362 9.55051 13.2555C9.63898 13.1934 9.77008 13.1014 10.003 12.9558C10.3943 12.7113 10.5134 12.5121 10.6221 12.3302C10.6892 12.218 10.7523 12.1123 10.873 12.0067C11.0722 11.8324 11.2244 11.7992 11.4085 11.759C11.5168 11.7354 11.6361 11.7094 11.7826 11.6508C11.9596 11.58 12.0574 11.4774 12.1753 11.3539C12.3207 11.2014 12.4967 11.0169 12.8899 10.8203C13.3525 10.589 13.6147 10.4913 13.9261 10.3753C14.0939 10.3128 14.2759 10.2449 14.5113 10.148C14.9118 9.9831 14.9755 9.87433 15.1287 9.61274C15.2327 9.43516 15.3779 9.18717 15.6978 8.8034C16.4887 7.85428 16.6469 7.69609 17.1214 7.45881C17.3851 7.32699 17.4656 7.25619 17.5462 7.1854C17.6107 7.12876 17.6751 7.07213 17.8333 6.98425C17.9981 6.89269 18.0696 6.83505 18.1186 6.79562C18.1753 6.74989 18.2017 6.72865 18.3078 6.70742C18.4579 6.6774 18.5397 6.73852 18.7433 6.89077C18.8079 6.93911 18.8848 6.99663 18.9801 7.06334L19.1185 7.15995C19.4365 7.38172 19.666 7.54179 20.0479 7.85428C20.3979 8.1406 20.5943 8.24777 21.0283 8.48461L21.0285 8.48476L21.0291 8.48506C21.1344 8.54253 21.2537 8.60763 21.3925 8.68476C21.4828 8.73494 21.5636 8.78512 21.6364 8.83514L23.838 8.91042L20.8389 6.94463L24.0512 8.25878L17.2401 0.854408L24.5604 7.65874L21.5507 0.69623L25.2622 7.24409L25.1495 5.04649L25.9356 7.07901L27.5428 -0.0550537ZM22.2303 9.42756L23.4564 9.61005L22.5591 9.85759C22.5394 9.83651 22.5196 9.8147 22.4998 9.79207C22.4266 9.7084 22.3645 9.6192 22.2995 9.52593C22.277 9.49361 22.2541 9.4608 22.2303 9.42756ZM23.0436 10.3995C23.05 10.4208 23.0535 10.4424 23.0535 10.4644C23.0535 10.4872 23.0562 10.5097 23.0611 10.5318C23.0795 10.6144 23.133 10.6655 23.2022 10.6901L23.6284 10.3309L23.0436 10.3995Z" fill="url(#paint0_radial_2421_14242)"/>
</g>
<g filter="url(#filter0_i_2421_14242)">
<path d="M49.1147 15.9224H4.66406C4.84861 15.896 5.30472 15.8196 5.65273 15.7247C6.08775 15.606 6.28548 15.2501 6.79959 15.0524C7.3137 14.8546 7.86736 15.0524 8.46056 14.6964C9.05377 14.3405 9.8447 13.5891 10.2797 13.3518C10.496 13.2339 10.7234 13.1709 10.8995 13.1401C11.0365 13.1162 11.1488 13.0012 11.17 12.8637C11.1953 12.7 11.2478 12.522 11.3475 12.4423C11.5452 12.2841 11.7034 12.1259 11.9011 12.0468C12.0989 11.9677 12.5339 11.8886 12.6921 11.7304C12.8503 11.5722 12.9689 11.414 13.0875 11.335C13.2062 11.2559 13.6412 11.2559 14.0762 11.0581C14.5112 10.8604 14.6299 10.7813 14.9858 10.544C15.3417 10.3067 15.579 9.87172 15.7767 9.59489C15.9745 9.31806 16.3699 8.96214 16.6072 8.68531C16.8445 8.40849 17.24 7.93392 17.3982 7.81528C17.5563 7.69664 17.7145 7.45936 18.0309 7.45936C18.3473 7.45936 18.7427 7.77574 18.9405 7.97347C19.1382 8.1712 19.2569 8.32939 19.4546 8.32939C19.6523 8.32939 19.9687 8.56667 20.0873 8.68531C20.206 8.80395 20.3642 8.96214 20.6805 8.96214C20.9969 8.96214 21.1947 9.04124 21.6297 9.59489C22.0647 10.1485 22.1833 10.4254 22.4997 10.7418L22.4997 10.7418C22.8161 11.0581 22.9743 11.2163 23.2511 11.3745C23.5279 11.5327 23.607 11.4536 24.042 11.2163C24.1754 11.1436 24.2976 11.0931 24.4109 11.065C24.5974 11.0187 24.6557 11.2313 24.5116 11.3585L23.4046 12.335C23.1787 12.5344 23.4298 12.8903 23.6934 12.7443L25.9511 11.4931C26.0235 11.4585 26.0989 11.4071 26.1776 11.335C26.6521 10.8999 26.9685 11.1768 27.0476 10.6231C27.1267 10.0695 27.9176 10.4254 28.1945 10.2276C28.4713 10.0299 28.4317 10.0299 28.5108 9.59489C28.5899 9.15988 28.7877 8.88305 29.4204 8.32939C30.0532 7.77574 32.1491 6.27295 32.3469 6.03567C32.5446 5.79839 33.3355 5.08655 33.5728 5.08655C33.8101 5.08655 34.2451 5.60066 34.4824 5.67975C34.67 5.74228 34.9965 5.99613 35.2338 6.19386C35.3706 6.30784 35.4188 6.44836 35.5106 6.51024C35.5781 6.5557 35.7084 6.54978 35.827 6.62888C35.9915 6.73856 36.0643 6.9848 36.2225 7.06389C36.3807 7.14299 36.5388 7.18253 36.697 7.41981C36.8552 7.65709 37.2902 8.1712 37.4484 8.40849C37.6066 8.64577 37.9625 8.88305 38.0416 9.04124C38.1207 9.19942 38.3185 9.5158 38.4371 9.59489C38.5557 9.67399 38.5953 9.79263 38.5162 9.95081C38.4371 10.109 38.1603 10.2672 38.0416 10.3858C37.923 10.5045 37.7253 10.7418 37.5275 10.9395C37.4482 11.0188 37.2737 11.2442 37.0827 11.4961C36.9195 11.7113 37.1934 12.0666 37.4152 11.9125C37.4268 11.9045 37.4379 11.8965 37.4484 11.8886C37.7648 11.6513 38.5162 11.2559 38.8721 11.0581C39.228 10.8604 39.4652 10.7418 39.6234 10.6627L39.6235 10.6627C39.7817 10.5836 40.0585 10.4649 40.454 10.7418C40.8495 11.0186 41.0472 11.4931 41.324 11.7304C41.6008 11.9677 41.7195 12.1259 42.0754 12.1259C42.4313 12.1259 42.6291 11.8886 42.8268 11.8095C43.0245 11.7304 43.2618 11.5722 43.7364 11.8886C44.2109 12.205 44.8832 12.7191 45.4764 13.2332C46.0696 13.7473 46.3465 13.945 46.6628 14.2219C46.9792 14.4987 46.9397 14.5778 47.177 14.6964C47.4142 14.8151 47.612 14.9337 47.9283 15.0919C48.2447 15.2501 48.8379 15.5269 49.7475 15.9224H49.1147Z" fill="#002F70"/>
</g>
<path d="M25.4071 10.607L20.4842 11.5111L25.3898 10.4578L20.4121 9.82658L25.4924 10.3171C25.5565 10.2118 25.6824 10.1287 25.8367 10.1035C25.9964 10.0773 26.147 10.1196 26.2409 10.2046L30.9615 8.32928L26.4866 10.2638L31.3099 9.55183L26.362 10.4344L31.3183 11.2694L26.3481 10.5843L30.8126 12.8726L26.2819 10.7188L29.8479 14.2471L26.1765 10.8263L28.5018 15.2732L26.0321 10.876L26.8157 15.858L25.8878 10.9234L25.1173 15.8856L25.6818 10.9604L23.0982 15.1941L25.536 10.9056L22.0913 14.4259L25.4997 10.7278L21.0391 13.0514L25.4071 10.607Z" fill="url(#paint1_radial_2421_14242)"/>
</g>
</g>
<path d="M4.68541 32.8986V34.4352H7.17926C6.92736 34.939 6.62507 35.2917 6.22203 35.5436C5.84417 35.7703 5.34036 35.8963 4.78617 35.8963C3.90451 35.8963 3.17399 35.6192 2.56942 35.0398C2.46866 34.939 2.3679 34.8383 2.29233 34.7123L2.14118 34.4856V34.4604C2.0908 34.3848 2.06561 34.3093 2.01523 34.2337L1.99004 34.2085C1.96485 34.1329 1.91447 34.0826 1.88928 34.007C1.88928 33.9818 1.86409 33.9566 1.86409 33.9566C1.8389 33.881 1.81371 33.8307 1.78852 33.7551C1.78852 33.7299 1.76333 33.7047 1.76333 33.6543C1.73814 33.6039 1.73814 33.5284 1.71295 33.478C1.71295 33.4276 1.71295 33.3772 1.68776 33.3269C1.68776 33.2765 1.66257 33.2513 1.66257 33.2009C1.66257 33.1001 1.63738 32.9994 1.63738 32.8986C1.63738 32.0925 1.91447 31.4124 2.49385 30.8582C3.07323 30.304 3.77856 30.0269 4.63503 30.0269C5.61746 30.0269 6.47393 30.4048 7.20445 31.1857L8.36321 30.0521C7.83421 29.4979 7.28002 29.0949 6.75102 28.8682C6.09607 28.5911 5.39074 28.4651 4.63503 28.4651C3.19918 28.4651 2.04042 28.9689 1.13357 29.9513C0.377856 30.7826 0 31.765 0 32.8986C0 33.7299 0.201523 34.4856 0.604569 35.2161C0.68014 35.3421 0.755712 35.4428 0.831283 35.5436C0.831283 35.5688 0.856473 35.594 0.881664 35.6192L1.10838 35.9215C1.43585 36.2993 1.8389 36.6268 2.26713 36.8787C2.97247 37.2566 3.77856 37.4581 4.66022 37.4581C5.4915 37.4581 6.22203 37.2817 6.85179 36.9291C7.48154 36.5764 7.98535 36.0726 8.36321 35.3925C8.76625 34.7123 8.94259 34.007 8.94259 33.2765V32.8986H4.68541ZM13.0486 30.7826C12.0914 30.7826 11.3105 31.1101 10.6807 31.7399C10.051 32.3696 9.72349 33.1757 9.72349 34.1329C9.72349 35.065 10.051 35.8459 10.6807 36.4756C11.3105 37.1054 12.1418 37.4077 13.1242 37.4077C13.7791 37.4077 14.3333 37.2817 14.7868 37.0802C15.2654 36.8535 15.6684 36.5008 15.9959 36.0222L14.6356 35.3925C14.2074 35.8207 13.6784 36.0222 13.099 36.0222C12.5952 36.0222 12.1921 35.8963 11.8647 35.6192C11.5372 35.3421 11.3357 34.9894 11.2601 34.536H16.4493V34.2337C16.4493 33.2009 16.1218 32.3444 15.4921 31.7147C14.8875 31.0849 14.0562 30.7826 13.0486 30.7826ZM11.3609 33.3017C11.5372 32.9238 11.7387 32.6467 11.9402 32.4956C12.2929 32.2437 12.6708 32.1177 13.1242 32.1177C13.5272 32.1177 13.9051 32.2185 14.2074 32.4452C14.5097 32.6719 14.7364 32.949 14.8371 33.3017H11.3609ZM20.9332 30.7826C20.6309 30.7826 20.3286 30.833 20.0264 30.959C19.7241 31.0849 19.3966 31.2864 19.0439 31.5887V30.9338H17.4317V37.2566H19.0439V34.7123C19.0439 34.0574 19.0691 33.6291 19.1195 33.4276C19.2203 33.0498 19.3714 32.7475 19.5981 32.546C19.8248 32.3192 20.1019 32.2185 20.4294 32.2185C20.6813 32.2185 20.8828 32.294 21.0592 32.42C21.2355 32.546 21.3363 32.7475 21.4118 32.9742C21.4874 33.2261 21.5126 33.7299 21.5126 34.4856V37.2566H23.1248V33.0749C23.1248 32.3444 22.9484 31.7902 22.5706 31.4376C22.1172 30.9841 21.563 30.7826 20.9332 30.7826ZM27.3568 30.7826C26.3995 30.7826 25.6186 31.1101 24.9889 31.7399C24.3591 32.3696 24.0568 33.1757 24.0568 34.1329C24.0568 35.065 24.3843 35.8459 25.0141 36.4756C25.6438 37.1054 26.4499 37.4077 27.4575 37.4077C28.1125 37.4077 28.6667 37.2817 29.1201 37.0802C29.5987 36.8535 30.0018 36.5008 30.3292 36.0222L28.9689 35.3925C28.5407 35.8207 28.0117 36.0222 27.4323 36.0222C26.9285 36.0222 26.5255 35.8963 26.198 35.6192C25.8705 35.3421 25.669 34.9894 25.5934 34.536H30.7575V34.2337C30.7575 33.2009 30.43 32.3444 29.8002 31.7147C29.1705 31.0849 28.3644 30.7826 27.3568 30.7826ZM25.669 33.3017C25.8453 32.9238 26.0469 32.6467 26.2484 32.4956C26.5759 32.2437 26.9789 32.1177 27.4323 32.1177C27.8354 32.1177 28.2132 32.2185 28.5155 32.4452C28.8178 32.6719 29.0445 32.949 29.1453 33.3017H25.669ZM33.3521 31.0093C33.1002 31.1605 32.9238 31.4124 32.7727 31.7147V30.9086H31.362V37.2566H32.9742V34.41C32.9742 33.5284 33.0498 32.9238 33.2261 32.6467C33.4025 32.3444 33.604 32.1933 33.8307 32.1933C33.9566 32.1933 34.1078 32.2437 34.2841 32.3192L34.7627 30.959C34.536 30.8582 34.3345 30.8078 34.133 30.8078C33.8559 30.7826 33.604 30.8582 33.3521 31.0093ZM40.0275 31.6139C39.7504 31.3368 39.423 31.1101 39.0955 30.9841C38.768 30.833 38.3902 30.7826 38.0123 30.7826C37.181 30.7826 36.4505 31.0849 35.8711 31.7147C35.2917 32.3444 34.9894 33.1253 34.9894 34.1078C34.9894 35.0398 35.2917 35.8459 35.8963 36.4756C36.5009 37.1054 37.2314 37.4329 38.0627 37.4329C38.4405 37.4329 38.768 37.3573 39.0955 37.2314C39.423 37.1054 39.7252 36.8787 40.0527 36.6016V37.2817H41.6649V30.959H40.0527V31.6139H40.0275ZM39.5993 35.4428C39.2718 35.7955 38.8436 35.9718 38.3398 35.9718C37.836 35.9718 37.4329 35.7955 37.1054 35.4428C36.778 35.0902 36.6016 34.6368 36.6016 34.0826C36.6016 33.5284 36.7528 33.1001 37.1054 32.7475C37.4329 32.3948 37.8611 32.2185 38.3398 32.2185C38.8436 32.2185 39.2718 32.3948 39.5993 32.7223C39.9268 33.0749 40.1031 33.5032 40.1031 34.0574C40.1031 34.6368 39.952 35.0902 39.5993 35.4428ZM42.7481 37.2566H44.3603V28.4903H42.7481V37.2566ZM47.2824 21.9912C47.0053 21.7141 46.703 21.5126 46.3503 21.3614C46.0228 21.2103 45.6702 21.1599 45.2923 21.1599C44.461 21.1599 43.7809 21.4622 43.2015 22.0667C42.6221 22.6713 42.345 23.4774 42.345 24.4346C42.345 25.3667 42.6473 26.1224 43.2267 26.7522C43.8313 27.3819 44.5366 27.6842 45.3427 27.6842C45.6954 27.6842 46.048 27.6086 46.3503 27.4827C46.6526 27.3567 46.9801 27.1552 47.2824 26.8529V27.5079H48.8442V21.2858H47.2824V21.9912ZM46.8541 25.7445C46.5266 26.072 46.1236 26.2484 45.6198 26.2484C45.1412 26.2484 44.7381 26.072 44.4107 25.7194C44.0832 25.3667 43.9068 24.9385 43.9068 24.3843C43.9068 23.8553 44.058 23.4018 44.3855 23.0744C44.7129 22.7217 45.116 22.5706 45.6198 22.5706C46.1236 22.5706 46.5266 22.7469 46.8541 23.0744C47.1816 23.4018 47.3579 23.8553 47.3579 24.3843C47.3579 24.9636 47.2068 25.3919 46.8541 25.7445ZM55.0914 21.9912C54.7639 21.6889 54.4364 21.4874 54.109 21.3362C53.7815 21.2103 53.454 21.1347 53.0761 21.1347C52.2952 21.1347 51.6403 21.4118 51.0609 21.9408C50.4312 22.5454 50.1289 23.3263 50.1289 24.3087C50.1289 25.2407 50.4312 25.9964 51.0105 26.601C51.5899 27.2056 52.2952 27.5079 53.1517 27.5079C53.5296 27.5079 53.8822 27.4575 54.1845 27.3315C54.4868 27.2056 54.7891 27.0041 55.0662 26.727C55.0662 27.2308 55.0158 27.6086 54.915 27.8102C54.8143 28.0117 54.6379 28.188 54.3609 28.314C54.109 28.4399 53.7563 28.5155 53.328 28.5155C53.0006 28.5155 52.6983 28.4651 52.4716 28.3643C52.2197 28.2636 52.0182 28.1376 51.867 27.9613H50.1289C50.2548 28.3895 50.4815 28.7422 50.7586 29.0445C51.0357 29.3468 51.3884 29.5735 51.8166 29.7246C52.2449 29.8758 52.7487 29.9513 53.3784 29.9513C54.5372 29.9513 55.3937 29.6239 55.973 28.9437C56.4013 28.4399 56.6028 27.6842 56.6028 26.6262V21.311H55.041V21.9912H55.0914ZM54.6883 25.6186C54.3609 25.9461 53.9578 26.0972 53.4792 26.0972C52.9754 26.0972 52.5723 25.9209 52.2197 25.5934C51.8922 25.2659 51.7159 24.8377 51.7159 24.3339C51.7159 23.8301 51.867 23.427 52.1945 23.0996C52.522 22.7721 52.925 22.5957 53.4288 22.5957C53.9326 22.5957 54.3357 22.7469 54.6631 23.0744C54.9906 23.4018 55.1418 23.8049 55.1418 24.3339C55.1669 24.8629 55.0158 25.2911 54.6883 25.6186ZM64.5126 24.5606C64.5126 23.5278 64.2103 22.7217 63.5805 22.0919C62.9508 21.4622 62.1699 21.1599 61.1623 21.1599C60.2302 21.1599 59.4493 21.4622 58.8447 22.0919C58.215 22.7217 57.9127 23.5026 57.9127 24.4598C57.9127 25.3919 58.215 26.1476 58.8447 26.7774C59.4745 27.3819 60.2554 27.7094 61.2378 27.7094C61.8676 27.7094 62.4218 27.5834 62.8752 27.3819C63.3286 27.1552 63.7317 26.8025 64.0592 26.3491L62.7241 25.7445C62.2958 26.1476 61.792 26.3491 61.2126 26.3491C60.734 26.3491 60.3058 26.2232 60.0035 25.9461C59.676 25.6942 59.4997 25.3415 59.4241 24.8881H64.4874L64.5126 24.5606ZM59.4997 23.6537C59.676 23.2759 59.8775 22.9988 60.0791 22.8477C60.4065 22.5957 60.8096 22.4698 61.2378 22.4698C61.6409 22.4698 61.9935 22.5706 62.2958 22.7973C62.5981 23.024 62.7996 23.3011 62.9004 23.6537H59.4997ZM2.94728 25.5178H6.2976L7.0785 27.5079H8.76625L5.5167 19.1195H3.87932L0.604569 27.5331H2.11599L2.94728 25.5178ZM4.7106 21.3614L5.74341 24.0316H3.60223L4.7106 21.3614ZM12.5448 27.6842C12.9227 27.6842 13.2501 27.6086 13.5524 27.4827C13.8547 27.3567 14.1822 27.1552 14.4845 26.8529V27.5079H16.0463V18.8928H14.4845V21.9912C14.3837 21.8904 14.2829 21.7897 14.157 21.7141C13.9807 21.5629 13.7791 21.4622 13.5524 21.3614C13.225 21.2103 12.8723 21.1599 12.4944 21.1599C11.6631 21.1599 10.983 21.4622 10.4036 22.0667C9.82425 22.6713 9.54716 23.4522 9.54716 24.4346C9.54716 25.3667 9.84944 26.1224 10.4288 26.7522C11.0334 27.3819 11.7387 27.6842 12.5448 27.6842ZM11.5876 23.0996C11.9151 22.7469 12.3181 22.5957 12.8219 22.5957C13.3257 22.5957 13.754 22.7721 14.0562 23.0996C14.3837 23.427 14.56 23.8805 14.56 24.4095C14.56 24.9636 14.3837 25.4171 14.0562 25.7445C13.7288 26.0972 13.3257 26.2484 12.8219 26.2484C12.3433 26.2484 11.9402 26.072 11.5876 25.7194C11.2601 25.3667 11.0838 24.9385 11.0838 24.3843C11.109 23.8805 11.2853 23.427 11.5876 23.0996ZM20.1523 24.9636L18.5653 21.2858H16.9531L19.6233 27.5079H20.6309L23.3263 21.2858H21.7393L20.1523 24.9636ZM26.9537 27.6842C27.3064 27.6842 27.659 27.6086 27.9613 27.4827C28.2636 27.3567 28.5911 27.1552 28.8934 26.8529V27.5079H30.4552V21.2858H28.8934V21.966C28.6163 21.6889 28.314 21.4874 27.9613 21.3362C27.6339 21.1851 27.2812 21.1347 26.9033 21.1347C26.0721 21.1347 25.3919 21.437 24.8125 22.0416C24.6362 22.2431 24.4851 22.4446 24.3591 22.6713C24.082 23.1751 23.9561 23.7293 23.9561 24.3843C23.9561 25.3163 24.2583 26.072 24.8377 26.7018C25.4171 27.3819 26.1224 27.6842 26.9537 27.6842ZM25.9965 23.0996C26.1476 22.9232 26.3491 22.7973 26.5507 22.7217C26.7522 22.6461 26.9789 22.5957 27.2308 22.5957C27.4827 22.5957 27.7094 22.6461 27.9361 22.7217C28.1377 22.7973 28.314 22.9232 28.4903 23.0996C28.8178 23.427 28.9941 23.8805 28.9941 24.4095C28.9941 24.9636 28.8178 25.4171 28.4903 25.7445C28.1629 26.0972 27.7598 26.2484 27.256 26.2484C26.7774 26.2484 26.3743 26.072 26.0469 25.7194C25.7194 25.3667 25.5431 24.9385 25.5431 24.3843C25.5179 23.8805 25.669 23.427 25.9965 23.0996ZM35.5688 22.7721C35.7452 22.898 35.8459 23.0744 35.9215 23.3263C35.9971 23.5782 36.0223 24.0568 36.0223 24.8125V27.5331H37.5841V23.427C37.5841 23.1751 37.5589 22.9232 37.5085 22.7217C37.4329 22.3438 37.2566 22.0416 37.0299 21.8148C36.6016 21.3866 36.0726 21.1599 35.4429 21.1599C35.1406 21.1599 34.8383 21.2103 34.5612 21.3362C34.2841 21.4622 33.9566 21.6637 33.5788 21.966V21.3362H32.017V27.5583H33.5788V25.0644C33.5788 24.4095 33.604 24.0064 33.6544 23.8049C33.7551 23.427 33.9063 23.1499 34.133 22.9232C34.2085 22.8477 34.3093 22.7721 34.4101 22.7469C34.5864 22.6713 34.7627 22.6209 34.9643 22.6209C35.1658 22.6209 35.3421 22.6713 35.4933 22.7469C35.5184 22.7217 35.5436 22.7469 35.5688 22.7721ZM40.8588 19.0187H39.297V21.311H38.4909V22.6461H39.297V27.5331H40.8588V22.6461H41.7909V21.311H40.8588V19.0187Z" fill="#353B40"/>
<path d="M1.51172 49.558H1.88957V51.8252H1.51172V49.558ZM2.89719 49.558H3.27505L4.15671 51.0443V49.558H4.55976V51.8H4.1819L3.30024 50.3138V51.8H2.89719V49.558Z" fill="#353B40"/>
<path d="M6.67553 49.8602L6.37325 50.1373C6.27249 49.9861 6.17173 49.9105 6.07097 49.9105C6.02059 49.9105 5.9702 49.9357 5.94501 49.9609C5.91982 49.9861 5.89463 50.0365 5.89463 50.0617C5.89463 50.0869 5.89463 50.1373 5.91982 50.1624C5.94501 50.2128 6.04578 50.3136 6.19692 50.4647C6.34806 50.5907 6.44882 50.6914 6.47401 50.7166C6.54958 50.7922 6.59996 50.893 6.65034 50.9685C6.67553 51.0441 6.70073 51.1449 6.70073 51.2204C6.70073 51.3968 6.65034 51.5479 6.52439 51.6739C6.39844 51.7998 6.2473 51.8502 6.07097 51.8502C5.91982 51.8502 5.79387 51.825 5.69311 51.7242C5.59235 51.6487 5.49159 51.5227 5.41602 51.3464L5.74349 51.1197C5.84425 51.3212 5.94501 51.422 6.09616 51.422C6.17173 51.422 6.22211 51.3968 6.27249 51.3716C6.32287 51.3212 6.34806 51.2708 6.34806 51.2204C6.34806 51.1701 6.32287 51.1197 6.29768 51.0693C6.27249 51.0189 6.19692 50.9433 6.07097 50.8426C5.84425 50.6411 5.69311 50.4899 5.64273 50.3892C5.56716 50.2884 5.54197 50.1624 5.54197 50.0617C5.54197 49.9105 5.59235 49.7594 5.69311 49.6586C5.79387 49.5579 5.94501 49.4823 6.09616 49.4823C6.19692 49.4823 6.29768 49.5075 6.39844 49.5579C6.44882 49.6334 6.54958 49.709 6.67553 49.8602Z" fill="#353B40"/>
<path d="M7.63281 49.558H8.01067V51.0191C8.01067 51.145 8.01067 51.2458 8.03586 51.2962C8.06105 51.3466 8.08624 51.3969 8.13662 51.4221C8.187 51.4473 8.23738 51.4725 8.31295 51.4725C8.38852 51.4725 8.4389 51.4473 8.48929 51.4221C8.53967 51.3969 8.56486 51.3466 8.59005 51.2962C8.61524 51.2458 8.61524 51.145 8.61524 50.9939V49.5832H8.99309V50.9183C8.99309 51.145 8.99309 51.2962 8.9679 51.3969C8.94271 51.4977 8.89233 51.5733 8.84195 51.6488C8.76638 51.7244 8.69081 51.8 8.61524 51.8252C8.53967 51.8504 8.43891 51.8756 8.31295 51.8756C8.16181 51.8756 8.03586 51.8504 7.9351 51.7748C7.83434 51.6992 7.75876 51.5985 7.70838 51.4977C7.658 51.3969 7.63281 51.1954 7.63281 50.9183V49.558Z" fill="#353B40"/>
<path d="M10.0767 49.558H10.4798C10.7065 49.558 10.8577 49.5832 10.9584 49.6336C11.0592 49.684 11.1347 49.7596 11.1851 49.8603C11.2355 49.9611 11.2607 50.087 11.2607 50.213C11.2607 50.3641 11.2355 50.4901 11.1599 50.5909C11.0844 50.6916 10.9836 50.7672 10.8576 50.8176L11.3363 51.8252H10.908L10.4546 50.8679H10.4042V51.8252H10.0264V49.558H10.0767ZM10.4546 50.4397H10.5806C10.7065 50.4397 10.8073 50.4145 10.8325 50.3893C10.8828 50.3641 10.908 50.2886 10.908 50.213C10.908 50.1626 10.908 50.1122 10.8828 50.087C10.8576 50.0619 10.8325 50.0367 10.7821 50.0115C10.7317 49.9863 10.6561 49.9863 10.5554 49.9863H10.4546V50.4397Z" fill="#353B40"/>
<path d="M12.8981 49.558H13.3011L14.082 51.8252H13.679L13.5278 51.3466H12.6966L12.5202 51.8252H12.1172L12.8981 49.558ZM13.0996 50.1374L12.8225 50.9183H13.3767L13.0996 50.1374ZM14.9637 49.558H15.3164L16.2232 51.0443V49.558H16.6011V51.8H16.2232L15.3416 50.3138V51.8H14.9637V49.558Z" fill="#353B40"/>
<path d="M19.5232 49.9359L19.2462 50.213C19.0698 49.9862 18.8431 49.8855 18.6164 49.8855C18.4149 49.8855 18.2637 49.9611 18.1126 50.1122C17.9866 50.2633 17.9111 50.4397 17.9111 50.6664C17.9111 50.8175 17.9362 50.9435 18.0118 51.0694C18.0622 51.1954 18.163 51.271 18.2637 51.3465C18.3645 51.4221 18.4904 51.4473 18.6164 51.4473C18.7172 51.4473 18.8431 51.4221 18.9187 51.3717C19.0194 51.3213 19.1202 51.2458 19.221 51.1198L19.4981 51.4221C19.3469 51.5732 19.1958 51.6992 19.0698 51.7748C18.9439 51.8503 18.7675 51.8755 18.6164 51.8755C18.2889 51.8755 18.037 51.7748 17.8355 51.5481C17.634 51.3213 17.5332 51.0442 17.5332 50.6916C17.5332 50.4649 17.5836 50.2633 17.6843 50.087C17.7851 49.9107 17.9111 49.7847 18.0874 49.6588C18.2637 49.558 18.4401 49.5076 18.6416 49.5076C18.8179 49.5076 18.9691 49.558 19.1202 49.6336C19.2965 49.684 19.4225 49.8099 19.5232 49.9359Z" fill="#353B40"/>
<path d="M20.4297 49.558H21.5633V49.9611H20.8327V50.3641H21.5633V50.7924H20.8327V51.3969H21.5633V51.8H20.4297V49.558Z" fill="#353B40"/>
<path d="M25.7703 49.9359L25.4932 50.213C25.3169 49.9862 25.0902 49.8855 24.8635 49.8855C24.6619 49.8855 24.5108 49.9611 24.3597 50.1122C24.2337 50.2633 24.1581 50.4397 24.1581 50.6664C24.1581 50.8175 24.1833 50.9435 24.2589 51.0694C24.3093 51.1954 24.41 51.271 24.5108 51.3465C24.6116 51.4221 24.7375 51.4473 24.8635 51.4473C24.9894 51.4473 25.0902 51.4221 25.1657 51.3717C25.2665 51.3213 25.3673 51.2458 25.468 51.1198L25.7451 51.4221C25.594 51.5732 25.4428 51.6992 25.3169 51.7748C25.1909 51.8503 25.0398 51.8755 24.8635 51.8755C24.536 51.8755 24.2841 51.7748 24.0826 51.5481C23.881 51.3213 23.7803 51.0442 23.7803 50.6916C23.7803 50.4649 23.8307 50.2633 23.9314 50.087C24.0322 49.9107 24.1581 49.7847 24.3345 49.6588C24.5108 49.558 24.6871 49.5076 24.8886 49.5076C25.065 49.5076 25.2161 49.558 25.3673 49.6336C25.5184 49.684 25.6444 49.8099 25.7703 49.9359Z" fill="#353B40"/>
<path d="M27.6342 49.4823C27.9365 49.4823 28.1632 49.6083 28.3899 49.835C28.5914 50.0617 28.6922 50.3388 28.6922 50.6914C28.6922 51.0189 28.5914 51.296 28.3899 51.5227C28.1884 51.7494 27.9365 51.8754 27.6342 51.8754C27.3319 51.8754 27.08 51.7494 26.8785 51.5227C26.6769 51.296 26.5762 51.0189 26.5762 50.6914C26.5762 50.4647 26.6266 50.2884 26.7273 50.0869C26.8281 49.9105 26.954 49.7594 27.1304 49.6586C27.2563 49.5327 27.4578 49.4823 27.6342 49.4823ZM27.6342 49.9105C27.4326 49.9105 27.2815 49.9861 27.1555 50.1373C27.0296 50.2884 26.954 50.4647 26.954 50.6914C26.954 50.9433 27.0296 51.1449 27.2059 51.296C27.3319 51.3968 27.483 51.4723 27.6342 51.4723C27.8105 51.4723 27.9868 51.3968 28.1128 51.2456C28.2387 51.0945 28.3143 50.9182 28.3143 50.6914C28.3143 50.4647 28.2387 50.2884 28.1128 50.1373C27.9868 49.9861 27.8105 49.9105 27.6342 49.9105Z" fill="#353B40"/>
<path d="M29.8507 49.558H30.2286L30.7072 51.1198L31.1858 49.558H31.5637L31.8911 51.8H31.5133L31.3118 50.3893L30.8583 51.8H30.5309L30.1026 50.3893L29.8759 51.8H29.498L29.8507 49.558Z" fill="#353B40"/>
<path d="M32.7734 49.5579H33.2017C33.4284 49.5579 33.5795 49.5831 33.6803 49.6335C33.7811 49.6839 33.8566 49.7594 33.907 49.8602C33.9574 49.961 33.9826 50.0869 33.9826 50.2129C33.9826 50.364 33.9322 50.49 33.8566 50.6159C33.7811 50.7167 33.6803 50.7923 33.5543 50.8426C33.4788 50.8678 33.3276 50.8678 33.1513 50.8678V51.8251H32.7734V49.5579ZM33.1765 50.4396H33.3024C33.4032 50.4396 33.4788 50.4396 33.504 50.4144C33.5543 50.3892 33.5795 50.364 33.6047 50.3388C33.6299 50.3136 33.6299 50.2633 33.6299 50.2129C33.6299 50.1373 33.6047 50.0617 33.5291 50.0114C33.4788 49.9862 33.4032 49.961 33.2772 49.961H33.1765V50.4396Z" fill="#353B40"/>
<path d="M35.569 49.558H35.972L36.7529 51.8251H36.3499L36.1987 51.3465H35.3675L35.1911 51.8251H34.7881L35.569 49.558ZM35.7705 50.1374L35.4934 50.9183H36.0476L35.7705 50.1374ZM37.6346 49.558H37.9873L38.8941 51.0442V49.558H39.272V51.7999H38.9193L38.0125 50.3137V51.7999H37.6346V49.558ZM40.1788 49.558H40.5819L40.9597 50.3389L41.3376 49.558H41.7658L41.1613 50.8175V51.7999H40.7834V50.8175L40.1788 49.558ZM44.033 49.558H44.2345V51.5984H45.0406V51.7999H44.033V49.558ZM45.9726 49.4572C46.023 49.4572 46.0482 49.4824 46.0986 49.5076C46.1238 49.5328 46.149 49.5832 46.149 49.6335C46.149 49.6839 46.1238 49.7091 46.0986 49.7595C46.0734 49.7847 46.023 49.8099 45.9726 49.8099C45.9222 49.8099 45.897 49.7847 45.8467 49.7595C45.8215 49.7343 45.7963 49.6839 45.7963 49.6335C45.7963 49.5832 45.8215 49.5328 45.8467 49.5076C45.897 49.4572 45.9222 49.4572 45.9726 49.4572ZM45.8719 50.1374H46.0734V51.7999H45.8719V50.1374ZM47.0306 50.1374H47.2321V50.4396C47.3077 50.3389 47.3581 50.2633 47.4337 50.2129C47.5344 50.1374 47.6352 50.1122 47.7359 50.1122C47.8115 50.1122 47.8871 50.1374 47.9375 50.1625C48.013 50.1877 48.0634 50.2381 48.0886 50.2885C48.139 50.3389 48.1642 50.4144 48.1894 50.5152C48.2649 50.3893 48.3405 50.2885 48.4413 50.2129C48.542 50.1374 48.6428 50.1122 48.7436 50.1122C48.8443 50.1122 48.9451 50.1374 49.0207 50.1877C49.0962 50.2381 49.1718 50.3389 49.197 50.4396C49.2222 50.5404 49.2474 50.6915 49.2474 50.9183V51.8251H49.0458V50.9183C49.0458 50.7419 49.0458 50.616 49.0207 50.5404C48.9955 50.4648 48.9451 50.4144 48.8947 50.3641C48.8443 50.3137 48.7687 50.3137 48.6932 50.3137C48.5924 50.3137 48.5168 50.3389 48.4413 50.4144C48.3657 50.4648 48.3153 50.5656 48.2649 50.6664C48.2146 50.7671 48.2146 50.9434 48.2146 51.1702V51.8251H48.013V50.9686C48.013 50.7671 48.013 50.6412 47.9878 50.5656C47.9627 50.49 47.9375 50.4396 47.8619 50.3893C47.8115 50.3389 47.7359 50.3137 47.6604 50.3137C47.5596 50.3137 47.484 50.3389 47.4085 50.4144C47.3329 50.4648 47.2825 50.5404 47.2321 50.6664C47.1818 50.7671 47.1818 50.9183 47.1818 51.145V51.8503H46.9802V50.1374H47.0306ZM50.3809 49.4572C50.4313 49.4572 50.4565 49.4824 50.5069 49.5076C50.5321 49.5328 50.5573 49.5832 50.5573 49.6335C50.5573 49.6839 50.5321 49.7091 50.5069 49.7595C50.4817 49.7847 50.4313 49.8099 50.3809 49.8099C50.3306 49.8099 50.3054 49.7847 50.255 49.7595C50.2298 49.7343 50.2046 49.6839 50.2046 49.6335C50.2046 49.5832 50.2298 49.5328 50.255 49.5076C50.2802 49.4572 50.3306 49.4572 50.3809 49.4572ZM50.2802 50.1374H50.4817V51.7999H50.2802V50.1374Z" fill="#353B40"/>
<path d="M51.615 49.5075H51.8165V50.1373H52.1188V50.3136H51.8165V51.7998H51.615V50.3136H51.3379V50.1373H51.615V49.5075ZM54.26 51.2708L54.4363 51.3716C54.3859 51.4975 54.3104 51.5731 54.26 51.6487C54.1844 51.7242 54.1088 51.7746 54.0333 51.7998C53.9577 51.8502 53.8317 51.8502 53.731 51.8502C53.4791 51.8502 53.2775 51.7746 53.1516 51.5731C53.0005 51.3968 52.9501 51.1952 52.9501 50.9685C52.9501 50.767 53.0005 50.5655 53.1264 50.3892C53.2776 50.1876 53.4791 50.0869 53.731 50.0869C53.9829 50.0869 54.2096 50.1876 54.3607 50.4143C54.4615 50.5655 54.5371 50.767 54.5371 50.9937H53.1516C53.1516 51.1952 53.202 51.3464 53.3279 51.4723C53.4287 51.5983 53.5798 51.6487 53.731 51.6487C53.8065 51.6487 53.8821 51.6235 53.9577 51.5983C54.0333 51.5731 54.0836 51.5227 54.1592 51.4723C54.134 51.4472 54.2096 51.3716 54.26 51.2708ZM54.26 50.7922C54.2348 50.6914 54.1844 50.5907 54.134 50.5151C54.0836 50.4395 54.0081 50.3892 53.9325 50.3388C53.8569 50.2884 53.7562 50.2632 53.6806 50.2632C53.5295 50.2632 53.4035 50.3136 53.3027 50.4143C53.2272 50.4899 53.1516 50.6159 53.1264 50.767H54.26V50.7922ZM56.905 49.4823V51.7998H56.7034V51.5227C56.6279 51.6235 56.5271 51.7242 56.4263 51.7746C56.3256 51.825 56.1996 51.8502 56.0989 51.8502C55.8974 51.8502 55.6958 51.7746 55.5447 51.5983C55.3935 51.422 55.318 51.2204 55.318 50.9685C55.318 50.7166 55.3935 50.5151 55.5447 50.364C55.6958 50.1876 55.8722 50.1121 56.0989 50.1121C56.2248 50.1121 56.3256 50.1373 56.4263 50.1876C56.5271 50.238 56.6027 50.3388 56.7034 50.4395V49.4823H56.905ZM56.1241 50.2884C56.0233 50.2884 55.9225 50.3136 55.8218 50.3892C55.721 50.4395 55.6706 50.5403 55.5951 50.6411C55.5447 50.7418 55.5195 50.8678 55.5195 50.9685C55.5195 51.0693 55.5447 51.1952 55.5951 51.296C55.6454 51.3968 55.721 51.4975 55.8218 51.5479C55.9225 51.5983 56.0233 51.6487 56.1241 51.6487C56.2248 51.6487 56.3256 51.6235 56.4263 51.5479C56.5271 51.4975 56.6027 51.3968 56.6531 51.296C56.7034 51.1952 56.7286 51.0693 56.7286 50.9433C56.7286 50.7418 56.6783 50.5907 56.5523 50.4647C56.4515 50.364 56.3004 50.2884 56.1241 50.2884Z" fill="#353B40"/>
<defs>
<filter id="filter0_i_2421_14242" x="4.66406" y="5.08655" width="45.083" height="11.3104" filterUnits="userSpaceOnUse" color-interpolation-filters="sRGB">
<feFlood flood-opacity="0" result="BackgroundImageFix"/>
<feBlend mode="normal" in="SourceGraphic" in2="BackgroundImageFix" result="shape"/>
<feColorMatrix in="SourceAlpha" type="matrix" values="0 0 0 0 0 0 0 0 0 0 0 0 0 0 0 0 0 0 127 0" result="hardAlpha"/>
<feOffset dy="0.474562"/>
<feGaussianBlur stdDeviation="0.395469"/>
<feComposite in2="hardAlpha" operator="arithmetic" k2="-1" k3="1"/>
<feColorMatrix type="matrix" values="0 0 0 0 1 0 0 0 0 0.831373 0 0 0 0 0.231373 0 0 0 0.2 0"/>
<feBlend mode="normal" in2="shape" result="effect1_innerShadow_2421_14242"/>
</filter>
<radialGradient id="paint0_radial_2421_14242" cx="0" cy="0" r="1" gradientUnits="userSpaceOnUse" gradientTransform="translate(25.7998 10.7794) rotate(-90.1874) scale(11.9812 33.7531)">
<stop stop-color="#FFD645"/>
<stop offset="1" stop-color="#FFC700"/>
</radialGradient>
<radialGradient id="paint1_radial_2421_14242" cx="0" cy="0" r="1" gradientUnits="userSpaceOnUse" gradientTransform="translate(25.861 10.1089) rotate(90) scale(1.9809 2.5682)">
<stop stop-color="#FFD542"/>
<stop offset="1" stop-color="white"/>
</radialGradient>
<clipPath id="clip0_2421_14242">
<rect width="51.3884" height="15.8699" fill="white"/>
</clipPath>
<clipPath id="clip1_2421_14242">
<rect width="46.9817" height="46.9817" fill="white" transform="translate(3.77832 -13.5947)"/>
</clipPath>
</defs>
</svg>
