<svg width="360" height="223" viewBox="0 0 360 223" fill="none" xmlns="http://www.w3.org/2000/svg">
<g filter="url(#filter0_dd_4909_1115)">
<ellipse cx="206" cy="17" rx="264" ry="181" fill="url(#paint0_linear_4909_1115)"/>
<path d="M469.5 17C469.5 66.7691 440.077 111.882 392.393 144.574C344.712 177.264 278.814 197.5 206 197.5C133.186 197.5 67.2877 177.264 19.6065 144.574C-28.0769 111.882 -57.5 66.7691 -57.5 17C-57.5 -32.7691 -28.0769 -77.8819 19.6065 -110.574C67.2877 -143.264 133.186 -163.5 206 -163.5C278.814 -163.5 344.712 -143.264 392.393 -110.574C440.077 -77.8819 469.5 -32.7691 469.5 17Z" stroke="#438FFB"/>
</g>
<defs>
<filter id="filter0_dd_4909_1115" x="-73" y="-169" width="558" height="392" filterUnits="userSpaceOnUse" color-interpolation-filters="sRGB">
<feFlood flood-opacity="0" result="BackgroundImageFix"/>
<feColorMatrix in="SourceAlpha" type="matrix" values="0 0 0 0 0 0 0 0 0 0 0 0 0 0 0 0 0 0 127 0" result="hardAlpha"/>
<feOffset dy="4"/>
<feGaussianBlur stdDeviation="3"/>
<feColorMatrix type="matrix" values="0 0 0 0 0.0825 0 0 0 0 0.29625 0 0 0 0 0.6 0 0 0 0.17 0"/>
<feBlend mode="normal" in2="BackgroundImageFix" result="effect1_dropShadow_4909_1115"/>
<feColorMatrix in="SourceAlpha" type="matrix" values="0 0 0 0 0 0 0 0 0 0 0 0 0 0 0 0 0 0 127 0" result="hardAlpha"/>
<feOffset dy="10"/>
<feGaussianBlur stdDeviation="7.5"/>
<feColorMatrix type="matrix" values="0 0 0 0 0.0461805 0 0 0 0 0.256001 0 0 0 0 0.554167 0 0 0 0.29 0"/>
<feBlend mode="normal" in2="effect1_dropShadow_4909_1115" result="effect2_dropShadow_4909_1115"/>
<feBlend mode="normal" in="SourceGraphic" in2="effect2_dropShadow_4909_1115" result="shape"/>
</filter>
<linearGradient id="paint0_linear_4909_1115" x1="206" y1="-164" x2="206" y2="198" gradientUnits="userSpaceOnUse">
<stop stop-color="#2177F1"/>
<stop offset="1" stop-color="#1367DF"/>
</linearGradient>
</defs>
</svg>
