<svg width="100" height="100" viewBox="0 0 100 100" fill="none" xmlns="http://www.w3.org/2000/svg">
<path d="M100 50C100 77.6142 77.6142 100 50 100C22.3858 100 0 77.6142 0 50C0 22.3858 22.3858 0 50 0C77.6142 0 100 22.3858 100 50ZM6.50451 50C6.50451 74.0219 25.9781 93.4955 50 93.4955C74.0219 93.4955 93.4955 74.0219 93.4955 50C93.4955 25.9781 74.0219 6.50451 50 6.50451C25.9781 6.50451 6.50451 25.9781 6.50451 50Z" fill="url(#paint0_linear_143_2848)"/>
<path d="M96.7477 50C98.5439 50 100.011 51.4578 99.8943 53.2501C99.3323 61.8785 96.5402 70.234 91.7663 77.4877C86.3951 85.6491 78.7505 92.0579 69.777 95.9224C60.8035 99.787 50.8945 100.938 41.2742 99.2327C31.6539 97.5276 22.7439 93.0414 15.6452 86.3283C8.54646 79.6152 3.57006 70.9695 1.33086 61.4593C-0.908334 51.9491 -0.312202 41.9913 3.0456 32.8162C6.4034 23.641 12.3757 15.6507 20.2247 9.83249C27.2007 4.66131 35.3874 1.40735 43.971 0.3648C45.754 0.148231 47.2914 1.53171 47.3916 3.32508C47.4918 5.11846 46.1165 6.641 44.3356 6.8749C37.0216 7.83552 30.0529 10.6438 24.0981 15.0579C17.2703 20.1192 12.0749 27.0701 9.15391 35.0516C6.23293 43.0331 5.71434 51.6955 7.66224 59.9685C9.61014 68.2415 13.9392 75.7626 20.1144 81.6024C26.2897 87.4421 34.0405 91.3448 42.4093 92.828C50.7781 94.3113 59.3981 93.3102 67.2042 89.9484C75.0103 86.5866 81.6604 81.0115 86.3329 73.9118C90.4079 67.7201 92.8229 60.6055 93.374 53.2493C93.5081 51.4582 94.9516 50 96.7477 50Z" fill="url(#paint1_linear_143_2848)"/>
<defs>
<linearGradient id="paint0_linear_143_2848" x1="29" y1="94.5" x2="44.5" y2="36.5" gradientUnits="userSpaceOnUse">
<stop stop-color="#DBD8D8"/>
</linearGradient>
<linearGradient id="paint1_linear_143_2848" x1="29" y1="94.5" x2="58" y2="-136" gradientUnits="userSpaceOnUse">
<stop stop-color="#232020"/>
<stop offset="0.401139" stop-color="#232020" stop-opacity="0"/>
</linearGradient>
</defs>
</svg>
