<svg width="32" height="32" viewBox="0 0 32 32" fill="none" xmlns="http://www.w3.org/2000/svg">
<rect width="32" height="32" rx="4" fill="#EDF0F2"/>
<path d="M20 14C21.654 14 23 12.654 23 11C23 9.346 21.654 8 20 8C18.346 8 17 9.346 17 11C17 11.223 17.029 11.439 17.075 11.649L13.855 13.661C13.343 13.254 12.704 13 12 13C10.346 13 9 14.346 9 16C9 17.654 10.346 19 12 19C12.704 19 13.343 18.746 13.855 18.339L17.075 20.351C17.029 20.561 17 20.777 17 21C17 22.654 18.346 24 20 24C21.654 24 23 22.654 23 21C23 19.346 21.654 18 20 18C19.296 18 18.657 18.254 18.145 18.661L14.925 16.649C14.971 16.439 15 16.223 15 16C15 15.777 14.971 15.561 14.925 15.351L18.145 13.339C18.657 13.746 19.296 14 20 14Z" fill="#444444"/>
</svg>
