<svg width="14" height="13" viewBox="0 0 14 13" fill="none" xmlns="http://www.w3.org/2000/svg">
<path d="M5.28571 13C5.0584 13 4.84042 12.9096 4.67971 12.7489L0.394 8.46315C0.312134 8.38408 0.246835 8.2895 0.201913 8.18492C0.156991 8.08035 0.133346 7.96787 0.132357 7.85406C0.131368 7.74025 0.153055 7.62738 0.196153 7.52204C0.239251 7.4167 0.302896 7.321 0.383376 7.24052C0.463855 7.16004 0.559557 7.0964 0.664896 7.0533C0.770236 7.0102 0.883104 6.98852 0.996915 6.9895C1.11073 6.99049 1.2232 7.01414 1.32778 7.05906C1.43235 7.10398 1.52693 7.16928 1.606 7.25115L5.16571 10.81L12.2954 0.512291C12.3582 0.416836 12.4395 0.334901 12.5344 0.271303C12.6293 0.207706 12.736 0.163729 12.8482 0.14196C12.9604 0.12019 13.0757 0.121067 13.1876 0.144538C13.2994 0.16801 13.4054 0.213602 13.4993 0.278635C13.5933 0.343667 13.6733 0.426827 13.7346 0.523225C13.796 0.619623 13.8374 0.727313 13.8565 0.839963C13.8757 0.952613 13.8721 1.06795 13.846 1.17919C13.8199 1.29043 13.7718 1.39533 13.7046 1.48772L5.99029 12.6306C5.91923 12.7344 5.82618 12.8214 5.71775 12.8852C5.60931 12.9491 5.48815 12.9883 5.36286 13C5.33714 13 5.31143 13 5.28571 13Z" fill="#FFD43C"/>
</svg>
