<svg width="34" height="34" viewBox="0 0 34 34" fill="none" xmlns="http://www.w3.org/2000/svg">
<g filter="url(#filter0_dd_9584_117741)">
<path d="M27 4.99977C23.843 4.99977 20.135 3.88877 17.555 2.16777C17.219 1.94277 16.782 1.94277 16.446 2.16777C13.865 3.88877 10.157 4.99977 7 4.99977C6.448 4.99977 6 5.44677 6 5.99977C6 14.3738 9.965 21.0728 16.606 23.9188C16.732 23.9728 16.866 23.9998 17 23.9998C17.134 23.9998 17.268 23.9728 17.394 23.9188C24.035 21.0728 28 14.3738 28 5.99977C28 5.44677 27.552 4.99977 27 4.99977ZM17 21.9048V12.9998H9.141C8.491 11.1598 8.107 9.13277 8.02 6.96677C11.074 6.77177 14.442 5.73177 17 4.18477V12.9998H24.859C23.429 17.0448 20.709 20.1858 17 21.9048Z" fill="#F7F7F7"/>
<path d="M16.9995 21.9046V12.9996H9.14053C8.49053 11.1596 8.10653 9.13257 8.01953 6.96657C11.0735 6.77157 14.4415 5.73157 16.9995 4.18457V12.9996H24.8585C23.4285 17.0446 20.7085 20.1856 16.9995 21.9046Z" fill="#2591BF"/>
</g>
<defs>
<filter id="filter0_dd_9584_117741" x="0" y="-0.000976562" width="34" height="34.001" filterUnits="userSpaceOnUse" color-interpolation-filters="sRGB">
<feFlood flood-opacity="0" result="BackgroundImageFix"/>
<feColorMatrix in="SourceAlpha" type="matrix" values="0 0 0 0 0 0 0 0 0 0 0 0 0 0 0 0 0 0 127 0" result="hardAlpha"/>
<feOffset dy="4"/>
<feGaussianBlur stdDeviation="3"/>
<feColorMatrix type="matrix" values="0 0 0 0 0 0 0 0 0 0 0 0 0 0 0 0 0 0 0.12 0"/>
<feBlend mode="normal" in2="BackgroundImageFix" result="effect1_dropShadow_9584_117741"/>
<feColorMatrix in="SourceAlpha" type="matrix" values="0 0 0 0 0 0 0 0 0 0 0 0 0 0 0 0 0 0 127 0" result="hardAlpha"/>
<feOffset dy="2"/>
<feGaussianBlur stdDeviation="2"/>
<feColorMatrix type="matrix" values="0 0 0 0 0 0 0 0 0 0 0 0 0 0 0 0 0 0 0.08 0"/>
<feBlend mode="normal" in2="effect1_dropShadow_9584_117741" result="effect2_dropShadow_9584_117741"/>
<feBlend mode="normal" in="SourceGraphic" in2="effect2_dropShadow_9584_117741" result="shape"/>
</filter>
</defs>
</svg>
