<svg viewBox="0 0 32 30" fill="none" xmlns="http://www.w3.org/2000/svg">
<g clip-path="url(#clip0_4172_31176)">
<path d="M15.3334 3.66667C16.6965 3.66667 17.9597 4.0975 19.0001 4.82533V0.916667C19.0001 0.40975 18.5903 0 18.0834 0H1.58341C1.0765 0 0.666748 0.40975 0.666748 0.916667V21.0833C0.666748 21.5903 1.0765 22 1.58341 22H18.0834C18.5903 22 19.0001 21.5903 19.0001 21.0833V16.7218L18.1256 15.8473C17.2584 16.2736 16.3051 16.5 15.3334 16.5C11.796 16.5 8.91675 13.6208 8.91675 10.0833C8.91675 6.54592 11.796 3.66667 15.3334 3.66667ZM3.41675 5.5H8.00008V7.33333H3.41675V5.5ZM3.41675 10.0833H7.08342V11.9167H3.41675V10.0833ZM8.91675 16.5H3.41675V14.6667H8.91675V16.5Z" fill="#F7F7F7"/>
<path d="M22.3982 14.9352L19.4768 12.0138C19.7518 11.4253 19.9168 10.7754 19.9168 10.0833C19.9168 7.55242 17.8644 5.5 15.3335 5.5C12.8025 5.5 10.7501 7.55242 10.7501 10.0833C10.7501 12.6143 12.8025 14.6667 15.3335 14.6667C16.5022 14.6667 17.5573 14.2157 18.3667 13.4961L21.102 16.2314C21.2808 16.4102 21.5155 16.5 21.7501 16.5C21.9848 16.5 22.2195 16.4102 22.3982 16.2314C22.7566 15.873 22.7566 15.2937 22.3982 14.9352ZM15.3335 12.8333C13.8145 12.8333 12.5835 11.6023 12.5835 10.0833C12.5835 8.56442 13.8145 7.33333 15.3335 7.33333C16.8524 7.33333 18.0835 8.56442 18.0835 10.0833C18.0835 11.6023 16.8524 12.8333 15.3335 12.8333Z" fill="#56D39F"/>
</g>
<defs>
<clipPath id="clip0_4172_31176">
<rect width="22" height="22" fill="white" transform="translate(0.666748)"/>
</clipPath>
</defs>
</svg>
