<svg width="16" height="16" viewBox="0 0 16 16" fill="none" xmlns="http://www.w3.org/2000/svg">
<path d="M14.6663 9.00004H1.33301L0.333008 7.66671L1.66634 6.33337H14.333L15.6663 7.66671L14.6663 9.00004Z" fill="#870000"/>
<path d="M13.666 15.6667H2.33268C1.96435 15.6667 1.66602 15.3684 1.66602 15V1.00004C1.66602 0.631707 1.96435 0.333374 2.33268 0.333374H10.3327L14.3327 4.33337V15C14.3327 15.3684 14.0343 15.6667 13.666 15.6667Z" fill="#E6E6E6"/>
<path d="M10.333 0.333374V3.66671C10.333 4.03504 10.6313 4.33337 10.9997 4.33337H14.333L10.333 0.333374Z" fill="#B3B3B3"/>
<path d="M14.9997 13.6667H0.999674C0.631341 13.6667 0.333008 13.3684 0.333008 13.0001V7.66675H15.6663V13.0001C15.6663 13.3684 15.368 13.6667 14.9997 13.6667Z" fill="#BD0100"/>
<path d="M6.68971 10.215C6.68971 10.5077 6.60337 10.7337 6.43104 10.8927C6.25837 11.0523 6.01371 11.1317 5.69604 11.1317H5.49737V12H4.79004V9.38232H5.69604C6.02671 9.38232 6.27504 9.45466 6.44071 9.59866C6.60671 9.74332 6.68971 9.94899 6.68971 10.215ZM5.49737 10.5553H5.62637C5.73271 10.5553 5.81704 10.5253 5.87971 10.4653C5.94237 10.4057 5.97371 10.3233 5.97371 10.2187C5.97371 10.042 5.87604 9.95366 5.68004 9.95366H5.49737V10.5553Z" fill="white"/>
<path d="M9.32942 10.6357C9.32942 11.0727 9.20909 11.409 8.96842 11.6453C8.72809 11.882 8.39009 12 7.95442 12H7.10742V9.38232H8.01342C8.43342 9.38232 8.75776 9.48966 8.98642 9.70466C9.21509 9.91966 9.32942 10.2297 9.32942 10.6357ZM8.59542 10.6607C8.59542 10.4207 8.54809 10.243 8.45309 10.127C8.35842 10.011 8.21409 9.95332 8.02076 9.95332H7.81476V11.4193H7.97242C8.18742 11.4193 8.34475 11.3567 8.44509 11.232C8.54542 11.1073 8.59542 10.9173 8.59542 10.6607Z" fill="white"/>
<path d="M10.4942 12H9.79785V9.38232H11.3449V9.94966H10.4945V10.4493H11.2789V11.0167H10.4945V12H10.4942Z" fill="white"/>
</svg>
