<svg width="32" height="30" viewBox="0 0 32 30" fill="none" xmlns="http://www.w3.org/2000/svg">
<path d="M31.633 25.5221L18.683 1.60009C18.4208 1.11722 18.0332 0.714054 17.5609 0.433123C17.0887 0.152192 16.5495 0.00390625 16 0.00390625C15.4505 0.00390625 14.9113 0.152192 14.439 0.433123C13.9668 0.714054 13.5792 1.11722 13.317 1.60009L0.366994 25.5221C0.114689 25.9827 -0.0122828 26.5014 -0.00122712 27.0265C0.00982858 27.5516 0.158524 28.0645 0.429994 28.5141C0.698775 28.9691 1.08212 29.3458 1.54181 29.6065C2.00151 29.8672 2.52151 30.0029 3.04999 30.0001H28.95C29.4763 30.0015 29.9939 29.8661 30.4521 29.6073C30.9104 29.3484 31.2935 28.975 31.564 28.5235C31.8345 28.0721 31.9831 27.5581 31.9952 27.0319C32.0073 26.5058 31.8825 25.9855 31.633 25.5221ZM17.848 10.0001L17.134 20.0001H15.134L14.42 10.0001H17.848ZM16.134 26.0001C15.7823 26.0001 15.4386 25.8958 15.1462 25.7004C14.8538 25.5051 14.6259 25.2274 14.4913 24.9025C14.3568 24.5776 14.3216 24.2201 14.3902 23.8752C14.4588 23.5303 14.6281 23.2135 14.8768 22.9649C15.1254 22.7162 15.4422 22.5469 15.7871 22.4783C16.132 22.4096 16.4895 22.4449 16.8144 22.5794C17.1393 22.714 17.417 22.9419 17.6123 23.2343C17.8077 23.5267 17.912 23.8704 17.912 24.2221C17.912 24.6936 17.7247 25.1459 17.3912 25.4793C17.0578 25.8128 16.6056 26.0001 16.134 26.0001Z" fill="#D97706"/>
</svg>
