<svg width="56" height="38" viewBox="0 0 56 38" fill="none" xmlns="http://www.w3.org/2000/svg">
<rect x="0.395833" y="0.395833" width="55.2083" height="37.2083" rx="4.35417" fill="white" stroke="#D9D9D9" stroke-width="0.791667"/>
<path fill-rule="evenodd" clip-rule="evenodd" d="M28.3999 27.1655C26.4934 28.7936 24.0203 29.7764 21.3179 29.7764C15.2881 29.7764 10.3999 24.883 10.3999 18.8467C10.3999 12.8104 15.2881 7.91699 21.3179 7.91699C24.0203 7.91699 26.4934 8.89985 28.3999 10.528C30.3064 8.89985 32.7795 7.91699 35.4819 7.91699C41.5117 7.91699 46.3999 12.8104 46.3999 18.8467C46.3999 24.883 41.5117 29.7764 35.4819 29.7764C32.7795 29.7764 30.3064 28.7936 28.3999 27.1655Z" fill="#ED0006"/>
<path fill-rule="evenodd" clip-rule="evenodd" d="M28.3999 27.1655C30.7474 25.1608 32.236 22.1778 32.236 18.8467C32.236 15.5157 30.7474 12.5327 28.3999 10.5279C30.3064 8.89984 32.7795 7.91699 35.4818 7.91699C41.5117 7.91699 46.3999 12.8104 46.3999 18.8467C46.3999 24.883 41.5117 29.7764 35.4818 29.7764C32.7795 29.7764 30.3064 28.7936 28.3999 27.1655Z" fill="#F9A000"/>
<path fill-rule="evenodd" clip-rule="evenodd" d="M28.4 27.1653C30.7475 25.1606 32.236 22.1776 32.236 18.8465C32.236 15.5155 30.7475 12.5325 28.4 10.5278C26.0525 12.5325 24.564 15.5155 24.564 18.8465C24.564 22.1776 26.0525 25.1606 28.4 27.1653Z" fill="#FF5E00"/>
</svg>
