<svg width="44" height="44" viewBox="0 0 44 44" fill="none" xmlns="http://www.w3.org/2000/svg">
<path d="M0 22C0 9.84974 9.84974 0 22 0C34.1503 0 44 9.84974 44 22C44 34.1503 34.1503 44 22 44C9.84974 44 0 34.1503 0 22Z" fill="#562F94"/>
<g clip-path="url(#clip0_6503_131238)" filter="url(#filter0_dd_6503_131238)">
<path d="M32.4998 23C32.2346 23 31.9802 22.8947 31.7927 22.7071C31.6051 22.5196 31.4998 22.2652 31.4998 22C31.4998 21.7348 31.6051 21.4805 31.7927 21.2929C31.9802 21.1054 32.2346 21 32.4998 21H34.4488C34.2094 18.1764 32.979 15.5284 30.9752 13.5246C28.9714 11.5208 26.3234 10.2904 23.4998 10.051V12C23.4998 12.2652 23.3944 12.5196 23.2069 12.7071C23.0194 12.8947 22.765 13 22.4998 13C22.2346 13 21.9802 12.8947 21.7927 12.7071C21.6051 12.5196 21.4998 12.2652 21.4998 12V10.051C18.6761 10.2904 16.0281 11.5208 14.0244 13.5246C12.0206 15.5284 10.7901 18.1764 10.5508 21H12.4998C12.765 21 13.0194 21.1054 13.2069 21.2929C13.3944 21.4805 13.4998 21.7348 13.4998 22C13.4998 22.2652 13.3944 22.5196 13.2069 22.7071C13.0194 22.8947 12.765 23 12.4998 23H10.5508C10.7901 25.8237 12.0206 28.4717 14.0244 30.4755C16.0281 32.4792 18.6761 33.7097 21.4998 33.949V32C21.4998 31.7348 21.6051 31.4805 21.7927 31.2929C21.9802 31.1054 22.2346 31 22.4998 31C22.765 31 23.0194 31.1054 23.2069 31.2929C23.3944 31.4805 23.4998 31.7348 23.4998 32V33.949C26.3234 33.7097 28.9714 32.4792 30.9752 30.4755C32.979 28.4717 34.2094 25.8237 34.4488 23H32.4998ZM26.4998 23H22.4998C22.3352 23.0001 22.1731 22.9594 22.028 22.8818C21.8829 22.8042 21.7591 22.6919 21.6678 22.555L17.6678 16.555C17.5206 16.3344 17.4671 16.0643 17.519 15.8042C17.571 15.544 17.7241 15.3152 17.9448 15.168C18.1654 15.0208 18.4355 14.9673 18.6957 15.0193C18.9558 15.0712 19.1846 15.2244 19.3318 15.445L23.0348 21H26.4998C26.765 21 27.0194 21.1054 27.2069 21.2929C27.3944 21.4805 27.4998 21.7348 27.4998 22C27.4998 22.2652 27.3944 22.5196 27.2069 22.7071C27.0194 22.8947 26.765 23 26.4998 23Z" fill="white"/>
</g>
<defs>
<filter id="filter0_dd_6503_131238" x="5.5" y="9" width="34" height="34" filterUnits="userSpaceOnUse" color-interpolation-filters="sRGB">
<feFlood flood-opacity="0" result="BackgroundImageFix"/>
<feColorMatrix in="SourceAlpha" type="matrix" values="0 0 0 0 0 0 0 0 0 0 0 0 0 0 0 0 0 0 127 0" result="hardAlpha"/>
<feMorphology radius="1" operator="erode" in="SourceAlpha" result="effect1_dropShadow_6503_131238"/>
<feOffset dy="2"/>
<feGaussianBlur stdDeviation="2"/>
<feColorMatrix type="matrix" values="0 0 0 0 0 0 0 0 0 0 0 0 0 0 0 0 0 0 0.06 0"/>
<feBlend mode="normal" in2="BackgroundImageFix" result="effect1_dropShadow_6503_131238"/>
<feColorMatrix in="SourceAlpha" type="matrix" values="0 0 0 0 0 0 0 0 0 0 0 0 0 0 0 0 0 0 127 0" result="hardAlpha"/>
<feMorphology radius="1" operator="erode" in="SourceAlpha" result="effect2_dropShadow_6503_131238"/>
<feOffset dy="4"/>
<feGaussianBlur stdDeviation="3"/>
<feColorMatrix type="matrix" values="0 0 0 0 0 0 0 0 0 0 0 0 0 0 0 0 0 0 0.1 0"/>
<feBlend mode="normal" in2="effect1_dropShadow_6503_131238" result="effect2_dropShadow_6503_131238"/>
<feBlend mode="normal" in="SourceGraphic" in2="effect2_dropShadow_6503_131238" result="shape"/>
</filter>
<clipPath id="clip0_6503_131238">
<rect width="24" height="24" fill="white" transform="translate(10.5 10)"/>
</clipPath>
</defs>
</svg>
