<svg width="56" height="38" viewBox="0 0 56 38" fill="none" xmlns="http://www.w3.org/2000/svg">
<rect x="0.395833" y="0.395833" width="55.2083" height="37.2083" rx="4.35417" fill="white" stroke="#D9D9D9" stroke-width="0.791667"/>
<path fill-rule="evenodd" clip-rule="evenodd" d="M17.0006 25.7418H13.6081L11.0641 16.1375C10.9434 15.6957 10.687 15.3051 10.3099 15.121C9.36869 14.6584 8.33158 14.2902 7.2002 14.1045V13.7348H12.6653C13.4195 13.7348 13.9852 14.2902 14.0795 14.9353L15.3995 21.8632L18.7903 13.7348H22.0886L17.0006 25.7418ZM23.9742 25.7418H20.7702L23.4085 13.7348H26.6124L23.9742 25.7418ZM30.7576 17.0612C30.8519 16.4145 31.4176 16.0448 32.0776 16.0448C33.1147 15.9519 34.2444 16.1376 35.1872 16.5986L35.7529 14.0135C34.8101 13.6437 33.773 13.458 32.8318 13.458C29.7221 13.458 27.4594 15.1212 27.4594 17.4294C27.4594 19.1854 29.0622 20.1074 30.1936 20.6628C31.4176 21.2167 31.889 21.5864 31.7947 22.1403C31.7947 22.9711 30.8519 23.3408 29.9107 23.3408C28.7793 23.3408 27.6479 23.0639 26.6125 22.6013L26.0468 25.1881C27.1782 25.6491 28.4022 25.8347 29.5336 25.8347C33.0204 25.926 35.1872 24.2644 35.1872 21.7705C35.1872 18.6299 30.7576 18.4458 30.7576 17.0612ZM46.4002 25.7418L43.8562 13.7348H41.1237C40.558 13.7348 39.9923 14.1045 39.8037 14.6584L35.0929 25.7418H38.3911L39.0495 23.9874H43.102L43.4791 25.7418H46.4002ZM41.5951 16.9683L42.5363 21.4935H39.898L41.5951 16.9683Z" fill="#172B85"/>
</svg>
