<svg width="32" height="30" viewBox="0 0 32 30" fill="none" xmlns="http://www.w3.org/2000/svg">
<path d="M31.6329 25.5221L18.6829 1.60009C18.4207 1.11722 18.0331 0.714054 17.5609 0.433123C17.0887 0.152192 16.5494 0.00390625 15.9999 0.00390625C15.4505 0.00390625 14.9112 0.152192 14.439 0.433123C13.9668 0.714054 13.5791 1.11722 13.3169 1.60009L0.366933 25.5221C0.114628 25.9827 -0.0123439 26.5014 -0.00128815 27.0265C0.00976754 27.5516 0.158463 28.0645 0.429933 28.5141C0.698714 28.9691 1.08205 29.3458 1.54175 29.6065C2.00145 29.8672 2.52145 30.0029 3.04993 30.0001H28.9499C29.4762 30.0015 29.9938 29.8661 30.4521 29.6073C30.9103 29.3484 31.2934 28.975 31.5639 28.5235C31.8344 28.0721 31.983 27.5581 31.9951 27.0319C32.0072 26.5058 31.8824 25.9855 31.6329 25.5221ZM17.8479 10.0001L17.1339 20.0001H15.1339L14.4199 10.0001H17.8479ZM16.1339 26.0001C15.7823 26.0001 15.4385 25.8958 15.1461 25.7004C14.8537 25.5051 14.6258 25.2274 14.4913 24.9025C14.3567 24.5776 14.3215 24.2201 14.3901 23.8752C14.4587 23.5303 14.628 23.2135 14.8767 22.9649C15.1254 22.7162 15.4422 22.5469 15.7871 22.4783C16.132 22.4096 16.4895 22.4449 16.8143 22.5794C17.1392 22.714 17.4169 22.9419 17.6123 23.2343C17.8077 23.5267 17.9119 23.8704 17.9119 24.2221C17.9119 24.6936 17.7246 25.1459 17.3912 25.4793C17.0577 25.8128 16.6055 26.0001 16.1339 26.0001Z" fill="#D97706"/>
</svg>
